<svg xmlns="http://www.w3.org/2000/svg" width="228" height="64" fill="none" viewBox="0 0 228 64"><path fill="currentColor" d="M95.3057 23.1456L97.9651 15.0855H98.02L100.57 23.1456H95.3057ZM101.054 11.7853C100.908 11.2558 100.581 10.7967 100.132 10.4901C99.6834 10.1835 99.1419 10.0494 98.6048 10.1119H97.5447C97.0705 10.0536 96.5908 10.1608 96.1841 10.4157C95.7774 10.6707 95.4678 11.0585 95.3057 11.5157L89.4569 27.1524C89.235 27.7055 89.0904 28.2875 89.0274 28.8815C89.0192 29.1608 89.07 29.4386 89.1764 29.6962C89.2829 29.9538 89.4424 30.1851 89.6442 30.3746C89.8461 30.5641 90.0856 30.7073 90.3465 30.7945C90.6074 30.8817 90.8838 30.911 91.1567 30.8802C91.5827 30.9497 92.0191 30.8638 92.3887 30.6375C92.7583 30.4112 93.0373 30.0592 93.1764 29.6438L94.3462 26.2878H101.657L102.827 29.6438C102.991 30.0535 103.283 30.3968 103.658 30.6204C104.033 30.844 104.47 30.9353 104.901 30.8802C105.172 30.8965 105.444 30.8574 105.7 30.765C105.955 30.6727 106.19 30.5291 106.391 30.3427C106.591 30.1563 106.752 29.931 106.865 29.68C106.979 29.429 107.041 29.1575 107.049 28.8815C106.989 28.2879 106.848 27.7059 106.629 27.1524L101.054 11.7853Z"/><path fill="currentColor" d="M113.227 30.8802C114.182 30.8997 115.127 30.6821 115.98 30.2464C116.834 29.8106 117.57 29.1698 118.125 28.3795H118.18V28.9187C118.18 30.1644 118.71 30.9732 120.008 30.9732C121.306 30.9732 121.836 30.1644 121.836 28.9187V17.6327C121.836 17.0879 121.623 16.5653 121.244 16.18C120.865 15.7947 120.352 15.5782 119.816 15.5782C119.28 15.5782 118.767 15.7947 118.388 16.18C118.009 16.5653 117.796 17.0879 117.796 17.6327V24.3355C117.802 24.7525 117.727 25.1665 117.575 25.5537C117.422 25.9408 117.196 26.2933 116.908 26.5908C116.621 26.8882 116.279 27.1247 115.901 27.2866C115.523 27.4484 115.117 27.5323 114.707 27.5335C112.953 27.5335 112.158 26.3436 112.158 24.7446V17.6327C112.158 17.0879 111.945 16.5653 111.566 16.18C111.187 15.7947 110.674 15.5782 110.138 15.5782C109.602 15.5782 109.089 15.7947 108.71 16.18C108.331 16.5653 108.118 17.0879 108.118 17.6327V25.5255C108.173 29.6903 110.86 30.8802 113.273 30.8802"/><path fill="currentColor" d="M130.252 28.0727C127.273 28.0727 127.154 25.5905 125.327 25.5905C125.107 25.5783 124.887 25.6136 124.681 25.694C124.475 25.7743 124.289 25.898 124.133 26.0569C123.978 26.2158 123.858 26.4063 123.78 26.6159C123.702 26.8255 123.668 27.0495 123.682 27.2732C123.682 29.2719 126.716 30.8895 130.38 30.8895C133.414 30.8895 136.604 29.3742 136.604 26.0275C136.604 23.1549 133.862 22.1787 131.55 21.6953L129.896 21.3049C128.671 21.0353 127.712 20.8214 127.712 19.8453C127.712 18.8692 128.626 18.5996 130.051 18.5996C132.61 18.5996 132.665 20.4589 134.255 20.4589C134.485 20.4644 134.713 20.4215 134.925 20.333C135.137 20.2445 135.329 20.1123 135.489 19.9446C135.649 19.777 135.772 19.5776 135.853 19.3589C135.933 19.1402 135.968 18.907 135.955 18.674C135.955 16.8147 132.875 15.5875 129.786 15.5875C126.972 15.5875 123.727 16.8332 123.727 20.1335C123.727 22.8388 125.555 23.8521 127.931 24.4099L130.316 25.0049C131.724 25.4232 132.638 25.5905 132.638 26.6132C132.583 27.4219 131.724 28.0727 130.243 28.0727"/><path fill="currentColor" d="M144.399 28.0727C141.42 28.0727 141.255 25.5812 139.501 25.5812C139.281 25.569 139.061 25.6043 138.855 25.6847C138.65 25.765 138.463 25.8887 138.308 26.0476C138.152 26.2065 138.032 26.397 137.954 26.6066C137.876 26.8162 137.843 27.0402 137.856 27.2639C137.856 29.2627 140.89 30.8802 144.555 30.8802C147.589 30.8802 150.778 29.3649 150.778 26.0182C150.778 23.1456 148.036 22.1694 145.724 21.686L144.025 21.3049C142.8 21.0353 141.84 20.8214 141.84 19.8453C141.84 18.8692 142.754 18.5996 144.18 18.5996C146.739 18.5996 146.784 20.4589 148.384 20.4589C148.613 20.4644 148.841 20.4215 149.053 20.333C149.266 20.2445 149.458 20.1123 149.617 19.9446C149.777 19.777 149.901 19.5776 149.981 19.3589C150.061 19.1402 150.096 18.907 150.084 18.674C150.084 16.8147 147.004 15.5875 143.915 15.5875C141.1 15.5875 137.856 16.8332 137.856 20.1335C137.856 22.8388 139.684 23.8521 142.06 24.4099L144.445 25.0049C145.889 25.386 146.794 25.5441 146.794 26.576C146.739 27.3848 145.834 28.0355 144.399 28.0355"/><path fill="currentColor" d="M154.927 14.2209C155.482 14.2211 156.016 14.0006 156.414 13.6063C156.811 13.2121 157.042 12.6754 157.056 12.1106C157.054 11.8295 156.997 11.5516 156.888 11.293C156.78 11.0344 156.622 10.8002 156.424 10.604C156.226 10.4078 155.992 10.2535 155.735 10.1498C155.478 10.0462 155.203 9.9954 154.927 10.0003C154.372 10.0001 153.838 10.2207 153.44 10.6149C153.043 11.0091 152.812 11.5459 152.798 12.1106C152.8 12.3918 152.857 12.6697 152.966 12.9283C153.074 13.1869 153.232 13.421 153.43 13.6172C153.628 13.8134 153.862 13.9678 154.119 14.0714C154.376 14.175 154.651 14.2259 154.927 14.2209Z"/><path fill="currentColor" d="M152.907 17.6327V28.8815C152.907 29.4264 153.12 29.949 153.499 30.3343C153.878 30.7196 154.391 30.936 154.927 30.936C155.463 30.936 155.976 30.7196 156.355 30.3343C156.734 29.949 156.947 29.4264 156.947 28.8815V17.6327C156.977 17.3554 156.946 17.0746 156.855 16.8112C156.765 16.5478 156.617 16.3086 156.423 16.1113C156.229 15.9139 155.994 15.7635 155.735 15.6713C155.476 15.579 155.2 15.5472 154.927 15.5782C153.328 15.6247 152.907 16.5079 152.907 17.6327Z"/><path fill="currentColor" d="M166.789 18.4415C167.655 18.4421 168.488 18.7777 169.119 19.3802C169.751 19.9828 170.133 20.8072 170.189 21.686H163.115C163.545 19.6873 164.76 18.4415 166.771 18.4415M166.771 30.8802C169.22 30.8802 173.104 29.7461 173.104 27.3104C173.078 26.8854 172.893 26.4866 172.587 26.1961C172.281 25.9056 171.878 25.7454 171.459 25.7486C169.805 25.7486 169.805 27.7473 166.771 27.7473C166.279 27.7838 165.785 27.7131 165.321 27.54C164.858 27.3669 164.437 27.0954 164.085 26.7435C163.733 26.3917 163.459 25.9675 163.28 25.4994C163.102 25.0313 163.024 24.5299 163.051 24.0287H172.19C173.524 24.0287 173.945 23.6569 173.945 22.2996C173.945 18.9435 171.285 15.6433 166.634 15.6433C161.845 15.6433 158.976 18.8413 158.976 23.5453C158.976 27.0594 161.105 30.8988 166.734 30.8988"/><path fill="currentColor" d="M97.3254 51.0071H93.4963V45.5966H96.7405C98.9795 45.5966 101.054 45.922 101.054 48.3019C101.054 50.6818 99.1349 51.0071 97.3254 51.0071ZM93.5511 37.8061H97.2066C98.9064 37.8061 100.506 38.3546 100.506 40.2418C100.506 41.8129 99.4913 42.6775 97.362 42.6775H93.6425V37.8061H93.5511ZM102.169 43.7559C102.991 43.4533 103.701 42.9014 104.204 42.1749C104.708 41.4484 104.98 40.5822 104.984 39.6933C104.984 35.2589 101.054 34.5059 97.6727 34.5059H91.6594C90.0692 34.5059 89 35.1473 89 37.1554V51.8252C89 53.8798 90.0692 54.4747 91.6594 54.4747H98.3124C102.251 54.4747 105.623 52.7456 105.623 48.525C105.697 47.4343 105.383 46.353 104.739 45.4778C104.095 44.6026 103.164 43.9916 102.114 43.7559"/><path fill="currentColor" d="M114.936 39.5911C112.962 39.5911 112.057 41.3295 111.582 43.0586H111.527V41.4875C111.527 40.9944 111.334 40.5215 110.992 40.1728C110.649 39.8241 110.184 39.6282 109.699 39.6282C109.215 39.6282 108.75 39.8241 108.407 40.1728C108.064 40.5215 107.872 40.9944 107.872 41.4875V52.8478C107.906 53.3701 108.134 53.8594 108.51 54.2169C108.886 54.5744 109.381 54.7732 109.896 54.7732C110.41 54.7732 110.906 54.5744 111.281 54.2169C111.657 53.8594 111.886 53.3701 111.92 52.8478V48.088C111.92 44.732 112.834 43.5978 114.415 43.5978H115.164C115.433 43.62 115.702 43.5816 115.954 43.4853C116.206 43.3891 116.434 43.2374 116.622 43.0411C116.81 42.8449 116.953 42.6088 117.04 42.3499C117.128 42.091 117.158 41.8155 117.129 41.5433C117.116 41.2637 117.046 40.9898 116.926 40.7383C116.805 40.4867 116.635 40.2628 116.426 40.0802C116.218 39.8976 115.975 39.76 115.712 39.676C115.45 39.5919 115.173 39.563 114.899 39.5911"/><path fill="currentColor" d="M124.614 51.8717C122.219 51.8717 121.15 49.7149 121.15 47.2235C121.15 44.574 122.219 42.5752 124.614 42.5752C127.008 42.5752 128.068 44.5833 128.068 47.2235C128.068 49.8637 127.008 51.8717 124.614 51.8717ZM124.614 39.5911C119.715 39.5911 117.111 42.9471 117.111 47.2235C117.111 51.2767 119.085 54.9024 124.614 54.9024C130.143 54.9024 132.108 51.3325 132.108 47.2235C132.108 42.8913 129.503 39.5911 124.614 39.5911Z"/><path fill="currentColor" d="M143.229 49.2222C143.229 50.7375 141.895 52.1971 139.665 52.1971C138.276 52.1971 137.426 51.4441 137.426 50.5237C137.426 49.278 138.34 48.7946 140.031 48.525L141.52 48.3019C142.15 48.2379 142.753 48.0141 143.275 47.6511V49.2222H143.229ZM147.26 43.7559C147.26 40.8368 144.6 39.5911 140.716 39.5911C136.567 39.5911 134.319 41.6549 134.319 43.3097C134.34 43.747 134.531 44.158 134.85 44.4525C135.169 44.747 135.589 44.901 136.019 44.8808C137.618 44.8808 137.719 42.6589 140.698 42.6589C142.087 42.6589 143.257 43.1516 143.257 44.3416C143.257 45.5315 142.453 45.7453 141.502 45.8569L139.053 46.1265C135.964 46.4983 133.414 47.4187 133.414 50.8305C133.414 53.3778 135.699 54.9953 137.984 54.9953C139.024 55.0338 140.059 54.834 141.013 54.4108C141.966 53.9876 142.815 53.3518 143.494 52.5504C143.472 52.8736 143.519 53.1981 143.632 53.5011C143.745 53.8041 143.921 54.0784 144.149 54.3049C144.377 54.5314 144.651 54.7046 144.951 54.8127C145.252 54.9207 145.572 54.9608 145.889 54.9303C146.111 54.9506 146.334 54.926 146.546 54.8579C146.759 54.7897 146.955 54.6794 147.125 54.5332C147.295 54.3871 147.435 54.208 147.537 54.0065C147.638 53.8049 147.699 53.5849 147.717 53.3592C147.481 52.4866 147.328 51.5932 147.26 50.6911V43.7559Z"/><path fill="currentColor" d="M156.572 51.7137C154.397 51.6579 153.383 49.6592 153.383 47.2793C153.383 45.42 154.022 42.789 156.572 42.789C159.122 42.789 159.816 45.2247 159.816 47.2793C159.816 49.5476 158.966 51.7137 156.572 51.7137ZM161.626 34.0503C161.353 34.0193 161.077 34.0511 160.818 34.1434C160.559 34.2357 160.324 34.386 160.13 34.5834C159.936 34.7807 159.788 35.02 159.698 35.2834C159.607 35.5467 159.576 35.8275 159.606 36.1049V41.627H159.551C159.125 40.956 158.532 40.4116 157.832 40.0491C157.132 39.6866 156.351 39.519 155.567 39.5632C151.308 39.5632 149.343 43.1888 149.343 47.1398C149.343 52.3923 152.323 54.8745 155.667 54.8745C157.641 54.8745 159.323 54.0657 159.926 52.3365H159.981V52.9873C159.945 53.2437 159.967 53.505 160.045 53.7515C160.123 53.998 160.255 54.2233 160.431 54.4104C160.607 54.5975 160.822 54.7415 161.061 54.8315C161.3 54.9216 161.555 54.9554 161.809 54.9303C163.024 54.9303 163.636 54.2795 163.636 52.9873V36.1885C163.674 35.912 163.651 35.6303 163.567 35.3644C163.483 35.0984 163.342 34.855 163.153 34.6523C162.964 34.4496 162.733 34.2927 162.477 34.1933C162.22 34.0939 161.945 34.0546 161.671 34.0782"/><path fill="currentColor" d="M173.058 51.7137C170.719 51.7137 169.814 49.6034 169.814 47.2793C169.814 45.1689 170.618 42.7333 173.058 42.789C175.498 42.8448 176.257 45.3828 176.257 47.2793C176.303 49.6592 175.243 51.6579 173.058 51.7137ZM174.128 39.6282C173.341 39.5763 172.556 39.7364 171.85 40.0922C171.143 40.448 170.542 40.9871 170.107 41.6549V36.1328C170.107 35.5879 169.894 35.0653 169.515 34.68C169.136 34.2947 168.623 34.0782 168.087 34.0782C167.551 34.0782 167.038 34.2947 166.659 34.68C166.28 35.0653 166.067 35.5879 166.067 36.1328V52.9594C166.067 54.2051 166.652 54.9024 167.895 54.9024C168.149 54.9312 168.406 54.9001 168.647 54.8113C168.887 54.7226 169.104 54.5786 169.281 54.3906C169.458 54.2027 169.59 53.9758 169.666 53.7275C169.743 53.4793 169.762 53.2164 169.723 52.9594V52.3087H169.778C170.463 54.0378 172.062 54.8466 174.027 54.8466C177.381 54.8466 180.36 52.3644 180.36 47.1119C180.415 43.2167 178.441 39.5911 174.192 39.5911"/><path fill="currentColor" d="M191.519 49.2222C191.519 50.7375 190.13 52.1971 187.955 52.1971C186.575 52.1971 185.716 51.4441 185.716 50.5237C185.716 49.278 186.629 48.7946 188.329 48.525L189.81 48.3019C190.441 48.2363 191.047 48.0128 191.574 47.6511V49.2222H191.519ZM195.558 43.7559C195.558 40.8368 192.899 39.5911 189.015 39.5911C184.866 39.5911 182.618 41.6549 182.618 43.3097C182.639 43.747 182.83 44.158 183.148 44.4525C183.467 44.747 183.887 44.901 184.317 44.8808C185.917 44.8808 186.017 42.6589 188.996 42.6589C190.331 42.6589 191.555 43.1516 191.555 44.3416C191.555 45.5315 190.751 45.7453 189.801 45.8569L187.351 46.1265C184.262 46.4983 181.713 47.4187 181.713 50.8305C181.713 53.3778 183.997 54.9953 186.282 54.9953C187.321 55.0324 188.354 54.8319 189.306 54.4088C190.258 53.9856 191.105 53.3506 191.784 52.5504C191.761 52.8736 191.808 53.1981 191.921 53.5011C192.034 53.8041 192.211 54.0784 192.439 54.3049C192.667 54.5314 192.94 54.7046 193.241 54.8127C193.541 54.9207 193.861 54.9608 194.178 54.9303C194.4 54.9494 194.623 54.9239 194.834 54.8552C195.046 54.7866 195.242 54.6761 195.412 54.5302C195.582 54.3843 195.722 54.2058 195.824 54.0048C195.925 53.8039 195.987 53.5845 196.006 53.3592C195.776 52.4739 195.632 51.5678 195.576 50.6539V43.7559H195.558Z"/><path fill="currentColor" d="M206.78 39.5911C205.823 39.5792 204.878 39.8049 204.026 40.2488C203.174 40.6927 202.441 41.3413 201.891 42.1383H201.836V41.5991C201.836 40.3534 201.306 39.5446 200.009 39.5446C198.711 39.5446 198.181 40.3534 198.181 41.5991V52.8478C198.181 53.1177 198.233 53.3848 198.335 53.6341C198.436 53.8833 198.585 54.1098 198.772 54.3006C198.96 54.4914 199.183 54.6427 199.428 54.746C199.673 54.8492 199.935 54.9024 200.201 54.9024C200.466 54.9024 200.728 54.8492 200.973 54.746C201.218 54.6427 201.441 54.4914 201.629 54.3006C201.816 54.1098 201.965 53.8833 202.066 53.6341C202.168 53.3848 202.22 53.1177 202.22 52.8478V46.1451C202.214 45.7281 202.289 45.3141 202.442 44.9269C202.594 44.5398 202.821 44.1873 203.108 43.8898C203.395 43.5924 203.738 43.3559 204.116 43.194C204.493 43.0322 204.899 42.9483 205.309 42.9471C207.064 42.9471 207.859 44.137 207.859 45.736V52.82C207.859 53.3649 208.072 53.8874 208.45 54.2727C208.829 54.658 209.343 54.8745 209.878 54.8745C210.414 54.8745 210.928 54.658 211.307 54.2727C211.685 53.8874 211.898 53.3649 211.898 52.82V44.9551C211.852 40.781 209.157 39.5911 206.744 39.5911"/><path fill="currentColor" d="M220.927 51.7137C218.743 51.6579 217.738 49.6592 217.738 47.2793C217.738 45.42 218.378 42.789 220.927 42.789C223.477 42.789 224.171 45.2247 224.171 47.2793C224.171 49.5476 223.258 51.7137 220.927 51.7137ZM225.981 34.0503C225.708 34.0193 225.432 34.0511 225.173 34.1434C224.914 34.2357 224.679 34.386 224.485 34.5834C224.291 34.7807 224.143 35.02 224.053 35.2834C223.962 35.5467 223.931 35.8275 223.961 36.1049V41.627H223.906C223.478 40.9559 222.883 40.4117 222.182 40.0493C221.481 39.6869 220.698 39.5192 219.913 39.5632C215.663 39.5632 213.689 43.1888 213.689 47.1398C213.689 52.3923 216.669 54.8745 220.022 54.8745C221.987 54.8745 223.678 54.0657 224.281 52.3365H224.327V52.9873C224.291 53.2437 224.313 53.505 224.391 53.7515C224.469 53.998 224.601 54.2233 224.777 54.4104C224.953 54.5975 225.168 54.7415 225.407 54.8315C225.646 54.9216 225.901 54.9554 226.155 54.9303C227.379 54.9303 227.982 54.2795 227.982 52.9873V36.1885C228.02 35.912 227.997 35.6303 227.913 35.3644C227.829 35.0984 227.688 34.855 227.499 34.6523C227.311 34.4496 227.079 34.2927 226.823 34.1933C226.566 34.0939 226.291 34.0546 226.018 34.0782"/><path fill="#78BE20" d="M12.2004 10.9067C11.713 10.4943 11.0825 10.2907 10.4458 10.3402C9.80915 10.3897 9.21771 10.6883 8.79988 11.1711C5.45504 15.1128 2.58772 19.4358 0.257541 24.0502C-0.0296741 24.625 -0.0787731 25.2899 0.120882 25.9007C0.320537 26.5114 0.752865 27.019 1.32419 27.3133C1.67355 27.4748 2.05175 27.5647 2.43643 27.5776C2.88673 27.5822 3.32936 27.4609 3.71436 27.2274C4.09937 26.9939 4.41142 26.6574 4.61532 26.256C6.79036 21.9901 9.442 17.9844 12.5195 14.3157C12.7278 14.0733 12.8852 13.7915 12.9821 13.487C13.0791 13.1825 13.1138 12.8616 13.084 12.5435C13.0542 12.2253 12.9606 11.9164 12.8088 11.6352C12.657 11.354 12.4501 11.1062 12.2004 10.9067Z"/><path fill="#78BE20" d="M51.6666 38.7432C54.0727 37.479 56.7524 36.8249 59.4705 36.8382C60.8679 36.8234 62.2606 37.0013 63.6094 37.3668C64.7742 37.6364 65.9892 37.5963 67.1336 37.2506C68.2781 36.9049 69.312 36.2656 70.1326 35.3963C70.9531 34.5271 71.5318 33.4581 71.8108 32.2959C72.0899 31.1337 72.0597 29.9186 71.7233 28.7716C71.409 27.6195 70.7902 26.5731 69.932 25.7424C69.0738 24.9116 68.0078 24.3271 66.8459 24.0502C64.4324 23.454 61.9564 23.148 59.4705 23.1387C55.3246 23.1231 51.2192 23.9532 47.4053 25.5784C43.5914 27.2036 40.1493 29.5897 37.2895 32.5907C36.9605 32.9004 36.539 33.0939 36.0896 33.1417C35.6402 33.1894 35.1875 33.0887 34.8007 32.855C34.5533 32.6976 34.3435 32.4879 34.186 32.2407C34.0285 31.9934 33.9271 31.7147 33.889 31.424C33.8567 31.116 33.8923 30.8046 33.993 30.5118C34.0938 30.2189 34.2575 29.9516 34.4725 29.7287C40.1549 23.8837 47.7 20.2054 55.8056 19.3288C57.1066 19.1715 58.3351 18.6438 59.3447 17.8083C60.3543 16.9729 61.1025 15.865 61.5002 14.6165C61.8979 13.368 61.9283 12.0315 61.5879 10.7662C61.2474 9.50092 60.5504 8.3601 59.5799 7.4796C58.8544 6.83556 58.004 6.3478 57.0818 6.04672C56.1595 5.74563 55.1851 5.63768 54.2192 5.72957C46.077 6.58252 38.285 9.48989 31.5746 14.1788C24.8642 18.8677 19.4555 25.1844 15.8562 32.536C15.6122 32.9994 15.198 33.3501 14.7007 33.5145C14.2034 33.6788 13.6618 33.6441 13.1896 33.4175C12.7174 33.1909 12.3515 32.7901 12.1687 32.2994C11.9859 31.8086 12.0006 31.2662 12.2095 30.786C18.1235 18.7192 28.4409 9.37938 41.0365 4.69049C41.6252 4.45302 42.0978 3.99504 42.3535 3.41418C42.6093 2.83333 42.628 2.17556 42.4056 1.58113C42.1833 0.986695 41.7374 0.502622 41.1632 0.232122C40.589 -0.0383773 39.9318 -0.0739027 39.3317 0.133121C25.5863 5.25696 14.3228 15.445 7.85175 28.6076C7.45418 29.4206 7.22502 30.3055 7.17802 31.2093C7.13102 32.113 7.26716 33.0169 7.57825 33.8668C8.22373 35.6194 9.5339 37.0472 11.2249 37.8408C12.8319 38.588 14.6669 38.6794 16.3403 38.0957C18.0136 37.5119 19.3934 36.299 20.1866 34.7145C23.423 28.0903 28.2884 22.396 34.3269 18.1651C40.3654 13.9341 47.3793 11.3049 54.7115 10.5239C55.2459 10.449 55.7882 10.5893 56.219 10.9141C56.6498 11.2389 56.934 11.7215 57.009 12.2557C57.0839 12.79 56.9435 13.3321 56.6187 13.7629C56.2938 14.1936 55.8111 14.4777 55.2768 14.5526C46.0491 15.5396 37.4605 19.733 31.0081 26.4018C30.2797 27.1301 29.7282 28.0159 29.3963 28.991C29.0644 29.966 28.9608 31.0042 29.0936 32.0256C29.2368 33.311 29.7418 34.5294 30.5499 35.5394C31.358 36.5494 32.4361 37.3094 33.659 37.7313C34.8818 38.1531 36.1993 38.2195 37.4584 37.9227C38.7175 37.6258 39.8666 36.978 40.7721 36.0543C43.1786 33.5272 46.0759 31.518 49.2864 30.1497C52.497 28.7814 55.9531 28.083 59.4431 28.0972C61.5348 28.1008 63.6188 28.3517 65.6516 28.8446C65.9891 28.93 66.2986 29.1019 66.5496 29.3432C66.8005 29.5845 66.9843 29.887 67.0829 30.2209C67.1838 30.5609 67.1886 30.9222 67.0969 31.2649C67.0052 31.6075 66.8205 31.9181 66.5632 32.1623C66.3475 32.4255 66.0623 32.623 65.7401 32.7325C65.4179 32.8421 65.0714 32.8592 64.7399 32.7821C59.5647 31.5263 54.1118 32.1464 49.3509 34.5322C48.4232 35.0052 47.6186 35.6882 47.0014 36.5269C46.3841 37.3656 45.9712 38.3367 45.7954 39.363C45.6074 40.3967 45.6584 41.4598 45.9444 42.4709C46.2304 43.4819 46.7439 44.4142 47.4455 45.1964C48.0961 45.9015 48.8897 46.4597 49.7732 46.8338C50.6568 47.2078 51.6099 47.3892 52.5691 47.3657C53.6743 47.3503 54.763 47.0953 55.76 46.6183C56.8354 46.0844 58.0149 45.7931 59.2152 45.7647C60.4155 45.7364 61.6075 45.9717 62.7069 46.4542C63.2908 46.7141 63.9541 46.7314 64.5508 46.5024C65.1474 46.2733 65.6287 45.8167 65.8886 45.2329C66.1485 44.6491 66.1659 43.986 65.9368 43.3894C65.7076 42.7928 65.2509 42.3117 64.667 42.0518C62.9089 41.2887 61.0043 40.9217 59.0885 40.9768C57.1726 41.032 55.2924 41.5079 53.5811 42.3708C53.2418 42.557 52.8564 42.6425 52.4702 42.6172C52.084 42.5919 51.7131 42.457 51.401 42.2282C51.0888 41.9994 50.8485 41.6863 50.7082 41.3257C50.568 40.9651 50.5335 40.5719 50.609 40.1924C50.6659 39.8896 50.7905 39.6035 50.9737 39.3557C51.1568 39.1078 51.3937 38.9047 51.6666 38.7614"/><path fill="#78BE20" d="M59.2061 50.3098C58.5439 50.3098 57.8967 50.5062 57.3463 50.8742C56.7959 51.2421 56.367 51.7651 56.1141 52.3769C55.8611 52.9887 55.7954 53.6617 55.9252 54.3108C56.0551 54.96 56.3746 55.556 56.8435 56.0235C57.3123 56.4909 57.9093 56.8088 58.5589 56.9368C59.2086 57.0649 59.8816 56.9973 60.4928 56.7427C61.104 56.4882 61.6259 56.058 61.9925 55.5067C62.359 54.9554 62.5537 54.3078 62.5519 53.6458C62.5531 53.2066 62.4673 52.7715 62.2995 52.3656C62.1317 51.9597 61.8851 51.5911 61.5741 51.2809C61.263 50.9708 60.8936 50.7253 60.4872 50.5586C60.0808 50.3919 59.6454 50.3074 59.2061 50.3098Z"/></svg>