<svg id="Layer_1" xmlns="http://www.w3.org/2000/svg" xmlns:xlink="http://www.w3.org/1999/xlink" viewBox="0 0 196.6 76.8"><style>.st0{clip-path:url(#SVGID_2_);fill:url(#SVGID_3_)}.st1{clip-path:url(#SVGID_5_);fill:url(#SVGID_6_)}.st2{clip-path:url(#SVGID_8_);fill:url(#SVGID_9_)}.st3{clip-path:url(#SVGID_11_);fill:url(#SVGID_12_)}</style><defs><path id="SVGID_1_" d="M84.7 43.2c-2.8 0-7.9.7-10.2 5.7-2.2 4.8-1.2 11-.2 13.1.7 1.5 1.8 2.4 2.8 2.4.4 0 .8-.2 1-.4.4-.4.6-1 .6-1.9-.1-2.4.3-5.7.9-8.2.9-3.7 2-5.7 5.5-7.6 1.1-.6 1.8-1.4 1.6-2.2-.1-.5-.9-.9-2-.9zm3.1 2.8c0 4.1 1.3 10.5 4.9 16 .6 1 .7 1.4.3 2.2-2.1 4.4-4.4 7.7-7.1 10.1-.7.6-1 1.2-.8 1.7.2.4.6.7 1.3.7.3 0 .6 0 .9-.1 5.8-1.5 10.7-7.7 14.7-18.9 2-5.5 3.7-9.4 5.1-12.1.4-.7.5-1.5.2-1.9-.1-.2-.4-.5-.9-.5s-1.1.3-1.9.8c-2.8 2-5.6 5.8-7.9 10.9-.1.1-.1.2-.2.2s-.2-.1-.3-.2c-2.1-3.1-4.3-7.3-5.3-10.3-.3-.8-.9-1.4-1.6-1.4-.5 0-1.4.7-1.4 2.8M19.2 58.1c-2.5-.1-3.7-2.4-3.1-5.3.6-2.9 3.1-5.3 5.3-5.1 2.8.2 3.5 2.9 3 5.3-.5 2.9-2.7 5.1-5.2 5.1m1.4-14.9c-5.3.2-10 4.8-10.8 10.6-.4 3.1.3 5.9 2 7.8 1.6 1.8 3.9 2.8 6.5 2.8 5.7 0 10.5-4.5 11.2-10.5.4-3.1-.4-6-2.2-8-1.6-1.8-3.8-2.7-6.5-2.7.1-.1 0 0-.2 0m88.1 2.2c-.9 7.2 2 13.8 3.8 16.7.9 1.5 2.3 2.3 3.6 2.3 1.4 0 2.5-1 3-2.6.7-2.6 1.7-5.8 2.5-7.8.1-.3.2-.3.3-.3.1 0 .1.1.2.2 1 3.1 2.2 6.3 3.2 8.2.8 1.5 2.1 2.4 3.5 2.4 1.5 0 2.7-1 3-2.6 1.4-6.7 3.8-12.8 5.7-15.8.7-1.1.9-1.9.6-2.4-.1-.2-.3-.4-.9-.4-.5 0-1.3.2-2.1.6-1.7.9-5.2 4.7-7.3 10.1-.1.3-.2.4-.2.4s-.1-.1-.2-.4c-.8-2-1.5-4.5-2.1-7-.3-1.2-1.3-2-2.5-2-1.1 0-2.1.6-2.8 1.6-1.5 2.1-2.8 5.2-3.6 7.4-.1.2-.1.3-.2.3s-.2-.1-.3-.2c-1.5-2.4-3.1-7.2-3.7-9.6-.2-.9-.9-1.5-1.7-1.5-.7 0-1.6.6-1.8 2.4m41-2.5c-3 .1-6.2 1.7-8.8 4.4-2.6 2.8-4 6.2-3.9 9.5.2 5.8 4.1 7.8 7.7 7.8h.4c6.1-.3 10.2-5.2 11.5-8.5.2-.5.2-1 0-1.3-.1-.2-.3-.3-.6-.3s-.6.2-1 .5c-2.2 2-4.6 3.2-7.1 3.6-.4.1-.7.1-1.1.1-2.6 0-4.2-1.6-4.3-4.4-.1-3.4 2.8-6.7 5.2-6.9h.2c.9 0 1.5.6 1.6 1.4.1 1-.4 1.8-.9 2.3-.8.9-2 1.4-3.1 1.4h-.4c-.4 0-.8.2-.9.6-.1.3 0 .7.5 1s1.4.8 2.9.8h.6c2.1-.2 3.9-1.1 5.2-2.5 1.2-1.3 1.7-3 1.6-4.7-.2-2.2-1.8-4.7-5-4.7l-.3-.1zm18.8-.1c-5.6.5-9.9 4-9.7 7.8.1 1.5.7 3.5 4.7 4.8 2.7.9 4.2 1.6 4.3 2.6.1 1-1.5 2.2-3.9 2.6-.6.1-1.2.1-1.9.1-1.2 0-2.4-.1-3.3-.3h-.4c-.7 0-1.1.3-1.3.8-.2.6.2 1.4.9 1.9 1.4 1 3.8 1.6 6.4 1.6.8 0 1.6-.1 2.4-.2 5.6-.9 8.7-3.8 8.5-8-.1-2.2-1.9-3.9-5.3-5.2l-.9-.3c-1.7-.6-2.7-1-2.7-2 0-1.3 2.3-2.6 5.5-3 1.8-.2 1.9-1 1.9-1.3-.1-.9-1.6-1.8-4.1-1.8-.4-.1-.7-.1-1.1-.1m-105-.1c-3 .2-6.2 2-8.5 4.8-2.5 2.9-3.7 6.4-3.4 9.7.4 4.7 3.2 7.4 7.6 7.4h.9c6.6-.6 10.3-6.4 11.1-9.1.1-.5.1-1-.1-1.3-.1-.2-.3-.3-.5-.3-.3 0-.6.2-1 .5-2.1 2.1-4.5 3.4-6.9 3.9-.5.1-1 .1-1.4.1-2.5 0-4-1.5-4.2-4.2-.3-3.4 2.4-6.8 4.8-7.1h.3c.8 0 1.4.5 1.5 1.3.1 1.1-.4 1.9-.8 2.4-.8.9-2 1.5-3.1 1.5h-.2c-.5 0-.8.3-.9.6s0 .7.5 1c.7.4 1.6.6 2.6.6.3 0 .6 0 1-.1 2-.3 3.8-1.2 5-2.8 1.1-1.4 1.6-3.1 1.3-4.9-.3-2.2-1.9-4.4-4.9-4.4-.4.4-.5.4-.7.4M44.9 13.6c-.3.3-.4.7-.4 1.2.2 4.1.2 9 0 14.7 0 .5-.3.8-.8.8-.8.1-1.6.2-2.4.4h-.1c-.5 0-.6-.6-.6-.9-.4-7.7-2.1-13.1-3.5-15.5-.4-.7-1-1.1-1.6-1.1-.4 0-.7.1-.9.4-.3.3-.4.7-.4 1.2.2 4.6.2 10.5-.1 17.1 0 .7-.2.9-.6 1.1-5 2.1-7.4 4.6-8 5.3-.5.6-.7 1.2-.4 1.7.2.4.5.6.9.6.1 0 .3 0 .4-.1 2-.6 4.3-1.3 6.7-1.8h.2c.1 0 .2 0 .3.1s.1.2.1.4c-.5 8.7-1.4 17.6-2.4 25.3-.1.8.1 1.2.3 1.5s.6.4 1 .4c.6 0 1.1-.3 1.5-.9 2.1-3.2 5.7-11 6.5-27.7 0-.4.2-.6.7-.7l2.1-.3h.3c.2 0 .2 0 .3.1.1.1.1.4.1.8-.5 9.4-1.4 18.9-2.5 26.8-.1.8.1 1.3.3 1.5.2.3.6.4.9.4.6 0 1.1-.3 1.4-.9 2.2-3.3 5.9-11.4 6.6-28.5 0-1 .3-1.1.7-1.1 4.2-.4 8.1-.6 11.6-.6h1c.7 0 1.1-.3 1.3-.8.1-.6-.2-1.3-.9-1.6-2.3-1.3-6.4-2.8-13-2.9-.7 0-.8-.2-.8-1-.6-9.1-2.9-13.4-3.5-14.6-.4-.7-1-1.1-1.5-1.1-.3-.1-.6 0-.8.3m135.5 0c-.3.3-.4.7-.4 1.2.2 4.4.2 9.9 0 16.2 0 .4-.2.6-.5.7-4.2 1.4-6.9 4.3-7.6 5.8-.3.7-.2 1.1 0 1.3.2.3.5.4.8.4.1 0 .2 0 .3-.1 1.7-.6 4-1.3 6.3-1.7h.5v.2c-.5 9.1-1.4 18.5-2.5 26.6-.1.8.1 1.3.3 1.5.2.3.6.4.9.4.6 0 1.1-.3 1.4-.9 2.2-3.3 5.9-11.3 6.6-28.3 0-.2 0-.3.5-.4 2.1-.1 3.9-.2 5.5-.2 1.1 0 2.1 0 3 .1h.1c.4 0 .7-.2.9-.5.1-.1.1-.3.1-.5 0-.4-.1-.7-.4-1.1-.7-.8-3.3-3.5-9.3-3.7-.2 0-.4 0-.5-.7-.4-7.9-2.1-13.4-3.6-15.9-.4-.7-1-1.1-1.5-1.1-.4.3-.7.4-.9.7M7.2 11.4C4.9 15.1.8 24.2.1 43.5c0 1.1-.1 2.2-.1 3.2v.1c0 10.6 1.9 17.9 3.7 21.1.4.8 1 1.2 1.6 1.2.3 0 .7-.1.9-.4.3-.3.5-.8.4-1.3-.3-6.7-.1-15.5.5-25.5s1.6-20.5 2.7-29.4c.1-.9-.1-1.4-.4-1.7-.2-.3-.6-.4-.9-.4-.3.1-.9.4-1.3 1"/></defs><clipPath id="SVGID_2_"><use xlink:href="#SVGID_1_" overflow="visible"/></clipPath><linearGradient id="SVGID_3_" gradientUnits="userSpaceOnUse" x1="-304.668" y1="-98.59" x2="-303.667" y2="-98.59" gradientTransform="translate(59858.86 19413.838) scale(196.4724)"><stop offset="0" stop-color="#008ed3"/><stop offset=".258" stop-color="#009bde"/><stop offset=".649" stop-color="#00a8ea"/><stop offset="1" stop-color="#00adee"/></linearGradient><path class="st0" d="M.1 10.5h196.5v66.3H.1z"/><defs><path id="SVGID_4_" d="M84.7 43.2c-2.8 0-7.9.7-10.2 5.7-2.2 4.8-1.2 11-.2 13.1.7 1.5 1.8 2.4 2.8 2.4.4 0 .8-.2 1-.4.4-.4.6-1 .6-1.9-.1-2.4.3-5.7.9-8.2.9-3.7 2-5.7 5.5-7.6 1.1-.6 1.8-1.4 1.6-2.2-.1-.5-.9-.9-2-.9zm3.1 2.8c0 4.1 1.3 10.5 4.9 16 .6 1 .7 1.4.3 2.2-2.1 4.4-4.4 7.7-7.1 10.1-.7.6-1 1.2-.8 1.7.2.4.6.7 1.3.7.3 0 .6 0 .9-.1 5.8-1.5 10.7-7.7 14.7-18.9 2-5.5 3.7-9.4 5.1-12.1.4-.7.5-1.5.2-1.9-.1-.2-.4-.5-.9-.5s-1.1.3-1.9.8c-2.8 2-5.6 5.8-7.9 10.9-.1.1-.1.2-.2.2s-.2-.1-.3-.2c-2.1-3.1-4.3-7.3-5.3-10.3-.3-.8-.9-1.4-1.6-1.4-.5 0-1.4.7-1.4 2.8M19.2 58.1c-2.5-.1-3.7-2.4-3.1-5.3.6-2.9 3.1-5.3 5.3-5.1 2.8.2 3.5 2.9 3 5.3-.5 2.9-2.7 5.1-5.2 5.1m1.4-14.9c-5.3.2-10 4.8-10.8 10.6-.4 3.1.3 5.9 2 7.8 1.6 1.8 3.9 2.8 6.5 2.8 5.7 0 10.5-4.5 11.2-10.5.4-3.1-.4-6-2.2-8-1.6-1.8-3.8-2.7-6.5-2.7.1-.1 0 0-.2 0m88.1 2.2c-.9 7.2 2 13.8 3.8 16.7.9 1.5 2.3 2.3 3.6 2.3 1.4 0 2.5-1 3-2.6.7-2.6 1.7-5.8 2.5-7.8.1-.3.2-.3.3-.3.1 0 .1.1.2.2 1 3.1 2.2 6.3 3.2 8.2.8 1.5 2.1 2.4 3.5 2.4 1.5 0 2.7-1 3-2.6 1.4-6.7 3.8-12.8 5.7-15.8.7-1.1.9-1.9.6-2.4-.1-.2-.3-.4-.9-.4-.5 0-1.3.2-2.1.6-1.7.9-5.2 4.7-7.3 10.1-.1.3-.2.4-.2.4s-.1-.1-.2-.4c-.8-2-1.5-4.5-2.1-7-.3-1.2-1.3-2-2.5-2-1.1 0-2.1.6-2.8 1.6-1.5 2.1-2.8 5.2-3.6 7.4-.1.2-.1.3-.2.3s-.2-.1-.3-.2c-1.5-2.4-3.1-7.2-3.7-9.6-.2-.9-.9-1.5-1.7-1.5-.7 0-1.6.6-1.8 2.4m41-2.5c-3 .1-6.2 1.7-8.8 4.4-2.6 2.8-4 6.2-3.9 9.5.2 5.8 4.1 7.8 7.7 7.8h.4c6.1-.3 10.2-5.2 11.5-8.5.2-.5.2-1 0-1.3-.1-.2-.3-.3-.6-.3s-.6.2-1 .5c-2.2 2-4.6 3.2-7.1 3.6-.4.1-.7.1-1.1.1-2.6 0-4.2-1.6-4.3-4.4-.1-3.4 2.8-6.7 5.2-6.9h.2c.9 0 1.5.6 1.6 1.4.1 1-.4 1.8-.9 2.3-.8.9-2 1.4-3.1 1.4h-.4c-.4 0-.8.2-.9.6-.1.3 0 .7.5 1s1.4.8 2.9.8h.6c2.1-.2 3.9-1.1 5.2-2.5 1.2-1.3 1.7-3 1.6-4.7-.2-2.2-1.8-4.7-5-4.7l-.3-.1zm18.8-.1c-5.6.5-9.9 4-9.7 7.8.1 1.5.7 3.5 4.7 4.8 2.7.9 4.2 1.6 4.3 2.6.1 1-1.5 2.2-3.9 2.6-.6.1-1.2.1-1.9.1-1.2 0-2.4-.1-3.3-.3h-.4c-.7 0-1.1.3-1.3.8-.2.6.2 1.4.9 1.9 1.4 1 3.8 1.6 6.4 1.6.8 0 1.6-.1 2.4-.2 5.6-.9 8.7-3.8 8.5-8-.1-2.2-1.9-3.9-5.3-5.2l-.9-.3c-1.7-.6-2.7-1-2.7-2 0-1.3 2.3-2.6 5.5-3 1.8-.2 1.9-1 1.9-1.3-.1-.9-1.6-1.8-4.1-1.8-.4-.1-.7-.1-1.1-.1m-105-.1c-3 .2-6.2 2-8.5 4.8-2.5 2.9-3.7 6.4-3.4 9.7.4 4.7 3.2 7.4 7.6 7.4h.9c6.6-.6 10.3-6.4 11.1-9.1.1-.5.1-1-.1-1.3-.1-.2-.3-.3-.5-.3-.3 0-.6.2-1 .5-2.1 2.1-4.5 3.4-6.9 3.9-.5.1-1 .1-1.4.1-2.5 0-4-1.5-4.2-4.2-.3-3.4 2.4-6.8 4.8-7.1h.3c.8 0 1.4.5 1.5 1.3.1 1.1-.4 1.9-.8 2.4-.8.9-2 1.5-3.1 1.5h-.2c-.5 0-.8.3-.9.6s0 .7.5 1c.7.4 1.6.6 2.6.6.3 0 .6 0 1-.1 2-.3 3.8-1.2 5-2.8 1.1-1.4 1.6-3.1 1.3-4.9-.3-2.2-1.9-4.4-4.9-4.4-.4.4-.5.4-.7.4M44.9 13.6c-.3.3-.4.7-.4 1.2.2 4.1.2 9 0 14.7 0 .5-.3.8-.8.8-.8.1-1.6.2-2.4.4h-.1c-.5 0-.6-.6-.6-.9-.4-7.7-2.1-13.1-3.5-15.5-.4-.7-1-1.1-1.6-1.1-.4 0-.7.1-.9.4-.3.3-.4.7-.4 1.2.2 4.6.2 10.5-.1 17.1 0 .7-.2.9-.6 1.1-5 2.1-7.4 4.6-8 5.3-.5.6-.7 1.2-.4 1.7.2.4.5.6.9.6.1 0 .3 0 .4-.1 2-.6 4.3-1.3 6.7-1.8h.2c.1 0 .2 0 .3.1s.1.2.1.4c-.5 8.7-1.4 17.6-2.4 25.3-.1.8.1 1.2.3 1.5s.6.4 1 .4c.6 0 1.1-.3 1.5-.9 2.1-3.2 5.7-11 6.5-27.7 0-.4.2-.6.7-.7l2.1-.3h.3c.2 0 .2 0 .3.1.1.1.1.4.1.8-.5 9.4-1.4 18.9-2.5 26.8-.1.8.1 1.3.3 1.5.2.3.6.4.9.4.6 0 1.1-.3 1.4-.9 2.2-3.3 5.9-11.4 6.6-28.5 0-1 .3-1.1.7-1.1 4.2-.4 8.1-.6 11.6-.6h1c.7 0 1.1-.3 1.3-.8.1-.6-.2-1.3-.9-1.6-2.3-1.3-6.4-2.8-13-2.9-.7 0-.8-.2-.8-1-.6-9.1-2.9-13.4-3.5-14.6-.4-.7-1-1.1-1.5-1.1-.3-.1-.6 0-.8.3m135.5 0c-.3.3-.4.7-.4 1.2.2 4.4.2 9.9 0 16.2 0 .4-.2.6-.5.7-4.2 1.4-6.9 4.3-7.6 5.8-.3.7-.2 1.1 0 1.3.2.3.5.4.8.4.1 0 .2 0 .3-.1 1.7-.6 4-1.3 6.3-1.7h.5v.2c-.5 9.1-1.4 18.5-2.5 26.6-.1.8.1 1.3.3 1.5.2.3.6.4.9.4.6 0 1.1-.3 1.4-.9 2.2-3.3 5.9-11.3 6.6-28.3 0-.2 0-.3.5-.4 2.1-.1 3.9-.2 5.5-.2 1.1 0 2.1 0 3 .1h.1c.4 0 .7-.2.9-.5.1-.1.1-.3.1-.5 0-.4-.1-.7-.4-1.1-.7-.8-3.3-3.5-9.3-3.7-.2 0-.4 0-.5-.7-.4-7.9-2.1-13.4-3.6-15.9-.4-.7-1-1.1-1.5-1.1-.4.3-.7.4-.9.7M7.2 11.4C4.9 15.1.8 24.2.1 43.5c0 1.1-.1 2.2-.1 3.2v.1c0 10.6 1.9 17.9 3.7 21.1.4.8 1 1.2 1.6 1.2.3 0 .7-.1.9-.4.3-.3.5-.8.4-1.3-.3-6.7-.1-15.5.5-25.5s1.6-20.5 2.7-29.4c.1-.9-.1-1.4-.4-1.7-.2-.3-.6-.4-.9-.4-.3.1-.9.4-1.3 1"/></defs><clipPath id="SVGID_5_"><use xlink:href="#SVGID_4_" overflow="visible"/></clipPath><linearGradient id="SVGID_6_" gradientUnits="userSpaceOnUse" x1="-304.668" y1="-101.01" x2="-303.668" y2="-101.01" gradientTransform="matrix(196.4885 0 0 -196.4885 59863.785 -19803.68)"><stop offset="0" stop-color="#008ed3"/><stop offset=".258" stop-color="#009bde"/><stop offset=".649" stop-color="#00a8ea"/><stop offset="1" stop-color="#00adee"/></linearGradient><path class="st1" d="M.1 10.5h196.5v66.3H.1z"/><defs><path id="SVGID_7_" d="M109.2 6.1C97.4 8.9 86.1 16.2 83.5 25.4c-1.9 6.7 1.8 7.3 4.1 5.9 1.7-1 3.9-3.5 5.3-5.1 3.4-3.8 7.9-6.9 13.5-9.1-4.8 3-8.8 6.9-10.7 11.3-2.1 5 1.7 6.9 5 5.5 1.6-.7 4.3-2.9 5.9-4.2 6.5-5.3 12.3-8.7 20.8-8.6 9.6.1 18.9 6.9 23.8 12.1 1.9 2 3.4 1.5 2.3-1-1.5-3.6-6.5-11.8-14.6-16.8 9.4 3 15.9 9 20.2 14.6 1.7 2.2 2.8 1.5 1.7-1-1.8-4.1-8.6-19.5-30.9-22.3 2.7 0 23.8-1.2 35.7 24.6 1 2.5 2.2 2.4 1.8-.2-.7-5.8-6.6-23.6-28-30-2.6-.8-5.5-1.1-8.6-1.1-7.8 0-16.3 2.3-21.6 6.1"/></defs><clipPath id="SVGID_8_"><use xlink:href="#SVGID_7_" overflow="visible"/></clipPath><linearGradient id="SVGID_9_" gradientUnits="userSpaceOnUse" x1="-305.725" y1="-96.919" x2="-304.725" y2="-96.919" gradientTransform="translate(25352.76 8028.153) scale(82.6505)"><stop offset="0" stop-color="#f6911e"/><stop offset=".241" stop-color="#faac11"/><stop offset=".485" stop-color="#fdbf08"/><stop offset=".736" stop-color="#feca03"/><stop offset="1" stop-color="#ffce01"/></linearGradient><path class="st2" d="M81.7 0h86v35.5h-86z"/><defs><path id="SVGID_10_" d="M109.2 6.1C97.4 8.9 86.1 16.2 83.5 25.4c-1.9 6.7 1.8 7.3 4.1 5.9 1.7-1 3.9-3.5 5.3-5.1 3.4-3.8 7.9-6.9 13.5-9.1-4.8 3-8.8 6.9-10.7 11.3-2.1 5 1.7 6.9 5 5.5 1.6-.7 4.3-2.9 5.9-4.2 6.5-5.3 12.3-8.7 20.8-8.6 9.6.1 18.9 6.9 23.8 12.1 1.9 2 3.4 1.5 2.3-1-1.5-3.6-6.5-11.8-14.6-16.8 9.4 3 15.9 9 20.2 14.6 1.7 2.2 2.8 1.5 1.7-1-1.8-4.1-8.6-19.5-30.9-22.3 2.7 0 23.8-1.2 35.7 24.6 1 2.5 2.2 2.4 1.8-.2-.7-5.8-6.6-23.6-28-30-2.6-.8-5.5-1.1-8.6-1.1-7.8 0-16.3 2.3-21.6 6.1"/></defs><clipPath id="SVGID_11_"><use xlink:href="#SVGID_10_" overflow="visible"/></clipPath><linearGradient id="SVGID_12_" gradientUnits="userSpaceOnUse" x1="-305.689" y1="-102.619" x2="-304.689" y2="-102.619" gradientTransform="matrix(84.2997 0 0 -84.2997 25852.67 -8632.968)"><stop offset="0" stop-color="#f6911e"/><stop offset=".241" stop-color="#faac11"/><stop offset=".485" stop-color="#fdbf08"/><stop offset=".736" stop-color="#feca03"/><stop offset="1" stop-color="#ffce01"/></linearGradient><path class="st3" d="M81.7 0h86v35.5h-86z"/></svg>