<svg xmlns="http://www.w3.org/2000/svg" xmlns:xlink="http://www.w3.org/1999/xlink" id="Layer_3" x="0" y="0" version="1.1" viewBox="0 0 147 72" style="enable-background:new 0 0 147 72" xml:space="preserve"><style type="text/css">.st0{fill:#f26722}</style><path d="M28.270113,54.491867c0,1.930431-2.114952,3.495422-4.724236,3.495422	c-2.608992,0-4.724119-1.564991-4.724119-3.495422c0-1.930115,2.115128-3.495106,4.724119-3.495106	C26.155161,50.996761,28.270113,52.561752,28.270113,54.491867z" class="st0"/><path d="M22.352993,48.462551c0,1.527046-1.673622,2.765152-3.737913,2.765152s-3.737912-1.238106-3.737912-2.765152	c0-1.527866,1.673621-2.766003,3.737912-2.766003S22.352993,46.934685,22.352993,48.462551z" class="st0"/><path d="M17.129457,43.9226c0,1.119068-1.226415,2.026318-2.739313,2.026318	c-1.512606,0-2.739165-0.907249-2.739165-2.026318c0-1.119656,1.22656-2.026905,2.739165-2.026905	C15.903043,41.895695,17.129457,42.802944,17.129457,43.9226z" class="st0"/><path d="M12.269024,40.788612c0,0.830158-0.910259,1.503601-2.032896,1.503601	c-1.122929,0-2.033334-0.673443-2.033334-1.503601c0-0.831333,0.910405-1.504772,2.033334-1.504772	C11.358765,39.28384,12.269024,39.957279,12.269024,40.788612z" class="st0"/><path d="M8.713964,38.419273c0,0.704689-0.772659,1.276226-1.725452,1.276226	c-0.95291,0-1.725715-0.571537-1.725715-1.276226c0-0.705425,0.772805-1.277107,1.725715-1.277107	C7.941304,37.142166,8.713964,37.713848,8.713964,38.419273z" class="st0"/><path d="M5.483624,36.347702c0,0.623188-0.683293,1.128628-1.525878,1.128628	c-0.842613,0-1.526024-0.50544-1.526024-1.128628c0-0.623775,0.68341-1.12936,1.526024-1.12936	C4.80033,35.218342,5.483624,35.723927,5.483624,36.347702z" class="st0"/><path d="M2.414153,34.732456c0,0.493015-0.540548,0.892838-1.207003,0.892838	C0.540548,35.625294,0,35.225471,0,34.732456c0-0.493305,0.540548-0.893272,1.20715-0.893272	C1.873605,33.839184,2.414153,34.239151,2.414153,34.732456z" class="st0"/><path d="M36.836918,48.171944c0.38456,1.892166-1.376293,3.847126-3.933334,4.366688	c-2.556755,0.519558-4.941353-0.592644-5.325884-2.484226c-0.384533-1.892166,1.376583-3.847126,3.933336-4.366688	C34.06805,45.168129,36.452385,46.280361,36.836918,48.171944z" class="st0"/><path d="M29.837561,43.442123c0.304024,1.496498-1.089399,3.043221-3.112589,3.454296	c-2.022898,0.411659-3.909628-0.468754-4.213682-1.965221c-0.304316-1.497055,1.089108-3.043777,3.112005-3.455437	C27.646484,41.064659,29.532951,41.945068,29.837561,43.442123z" class="st0"/><path d="M23.644363,40.026649c0.222668,1.096825-0.798208,2.230164-2.280968,2.531643	c-1.482203,0.300896-2.865072-0.343723-3.08774-1.440548c-0.222961-1.097378,0.798178-2.230423,2.280411-2.531609	C22.038826,38.284801,23.421402,38.929565,23.644363,40.026649z" class="st0"/><path d="M18.426966,37.930523c0.165283,0.813469-0.59267,1.654797-1.692623,1.878605	c-1.100507,0.223808-2.126821-0.255234-2.292105-1.068554c-0.165576-0.814754,0.592379-1.656055,1.692886-1.879745	C17.235077,36.637314,18.261389,37.115768,18.426966,37.930523z" class="st0"/><path d="M14.471062,36.317005c0.140465,0.690575-0.502721,1.40456-1.436512,1.59425	c-0.933821,0.189846-1.805082-0.216377-1.945255-0.906952c-0.140757-0.691303,0.502721-1.405437,1.436512-1.595276	C13.459627,35.219334,14.330626,35.625557,14.471062,36.317005z" class="st0"/><path d="M10.892878,34.930279c0.124183,0.610649-0.44478,1.241993-1.27038,1.409851	c-0.825892,0.167854-1.596125-0.191273-1.720307-0.801922c-0.124475-0.611355,0.444781-1.242958,1.27038-1.410847	C9.998464,33.959507,10.768696,34.318928,10.892878,34.930279z" class="st0"/><path d="M7.563321,33.958656c0.098223,0.483166-0.351995,0.982613-1.005149,1.11536	c-0.653183,0.132889-1.262692-0.15131-1.360886-0.634476c-0.098194-0.483307,0.351995-0.982903,1.005178-1.115795	C6.855648,33.190994,7.465127,33.475349,7.563321,33.958656z" class="st0"/><path d="M44.481331,40.720379c0.722847,1.790234-0.652454,4.03352-3.072044,5.010136	c-2.419415,0.976357-4.966751,0.317177-5.689453-1.472496c-0.722404-1.790791,0.652893-4.03352,3.072483-5.010429	C41.211617,38.271088,43.758923,38.930412,44.481331,40.720379z" class="st0"/><path d="M36.524475,37.557686c0.571388,1.415844-0.517162,3.190929-2.431576,3.963448	c-1.914124,0.773357-3.929623,0.251225-4.50116-1.164764c-0.571653-1.416809,0.516579-3.191223,2.430729-3.964584	C33.936882,35.619007,35.952091,36.14114,36.524475,37.557686z" class="st0"/><path d="M29.981007,35.303555c0.418646,1.037422-0.378685,2.337795-1.781666,2.904449	c-1.402866,0.565689-2.879925,0.183701-3.298424-0.85413c-0.419231-1.0383,0.378393-2.338234,1.780819-2.90448	C28.08498,33.883003,29.561775,34.264961,29.981007,35.303555z" class="st0"/><path d="M24.300821,34.216873c0.3106,0.769794-0.28134,1.735012-1.322182,2.155239	c-1.041428,0.420631-2.137814,0.136459-2.448561-0.633221c-0.311186-0.77108,0.281046-1.736118,1.322182-2.15649	C22.893131,33.162174,23.989517,33.445793,24.300821,34.216873z" class="st0"/><path d="M20.117132,33.350582c0.263769,0.653622-0.238512,1.472786-1.122082,1.829346	c-0.883684,0.356701-1.814348,0.116055-2.078001-0.537537c-0.2645-0.65403,0.238367-1.473522,1.121935-1.830078	C18.922699,32.455612,19.853071,32.696404,20.117132,33.350582z" class="st0"/><path d="M16.346245,32.638874c0.233076,0.57782-0.211267,1.302216-0.992462,1.617817	c-0.781516,0.315308-1.604105,0.102489-1.837356-0.475449c-0.233952-0.578403,0.210829-1.303089,0.991907-1.618546	C15.289821,31.847244,16.112848,32.060352,16.346245,32.638874z" class="st0"/><path d="M12.895371,32.28989c0.184431,0.457207-0.167008,1.030289-0.785083,1.279793	c-0.618192,0.249653-1.269212,0.081093-1.453789-0.37611c-0.184432-0.457207,0.166862-1.030582,0.785083-1.280087	C12.059773,31.663982,12.710677,31.832685,12.895371,32.28989z" class="st0"/><path d="M50.596737,32.073654c1.051834,1.619217,0.131023,4.083767-2.057304,5.505169	c-2.18821,1.421249-4.81477,1.260818-5.86602-0.357697c-1.051426-1.619835-0.130203-4.084091,2.057861-5.505198	C46.919338,30.294531,49.545868,30.454844,50.596737,32.073654z" class="st0"/><path d="M42.212349,30.309673c0.831184,1.280642,0.102345,3.231041-1.629509,4.355251	c-1.730423,1.125069-3.80901,0.998051-4.640602-0.282913c-0.832031-1.281227-0.103073-3.231041,1.628078-4.356104	C39.301762,28.901691,41.379322,29.028446,42.212349,30.309673z" class="st0"/><path d="M35.146603,29.561712c0.609364,0.937946,0.075363,2.367033-1.193439,3.191229	c-1.268948,0.823612-2.79155,0.731384-3.400766-0.207848c-0.609802-0.938934-0.075657-2.367027,1.192738-3.190935	C33.014084,28.529556,34.536831,28.622049,35.146603,29.561712z" class="st0"/><path d="M29.436308,29.64506c0.452059,0.695864,0.055395,1.756847-0.885704,2.368345	c-0.941801,0.61179-2.072271,0.542419-2.524479-0.153299c-0.453053-0.697704-0.056244-1.757841,0.885559-2.369894	C27.8529,28.879122,28.9834,28.9475,29.436308,29.64506z" class="st0"/><path d="M25.174099,29.481647c0.383537,0.591209,0.047241,1.490913-0.751669,2.010181	c-0.799202,0.519295-1.75869,0.461063-2.142519-0.130175c-0.384678-0.591795-0.047533-1.491764,0.751522-2.010914	C23.83049,28.831591,24.789421,28.889971,25.174099,29.481647z" class="st0"/><path d="M21.32671,29.477934c0.339424,0.522688,0.041832,1.31847-0.664732,1.778101	c-0.707001,0.458754-1.555023,0.407099-1.894594-0.115618c-0.340008-0.522715-0.041948-1.319345,0.664322-1.778246	C20.138678,28.902979,20.9874,28.954634,21.32671,29.477934z" class="st0"/><path d="M17.942341,29.656782c0.268505,0.413502,0.032974,1.043123-0.525845,1.406256	c-0.558966,0.362841-1.230566,0.322031-1.499334-0.091352c-0.268213-0.413795-0.032974-1.04327,0.526136-1.406549	C17.002411,29.202003,17.673573,29.243397,17.942341,29.656782z" class="st0"/><path d="M55.453022,22.550783c1.341591,1.388716,0.907246,3.983847-0.96978,5.796211	c-1.877026,1.812654-4.486015,2.155939-5.826496,0.767368c-1.341331-1.389565-0.906662-3.984289,0.970215-5.796505	C51.503841,21.50535,54.112976,21.161774,55.453022,22.550783z" class="st0"/><path d="M46.798985,22.466972c1.060284,1.098812,0.716705,3.152287-0.769062,4.585934	c-1.484337,1.434553-3.549068,1.705894-4.609497,0.607376c-1.061131-1.099104-0.717262-3.152113,0.767368-4.586782	C43.673298,21.639822,45.737152,21.368189,46.798985,22.466972z" class="st0"/><path d="M39.677433,23.041927c0.777073,0.80464,0.525726,2.309265-0.562824,3.360397	c-1.08881,1.050402-2.600979,1.250093-3.378201,0.444635c-0.777657-0.805634-0.525726-2.309381,0.562679-3.360106	C37.387608,22.435429,38.899513,22.236031,39.677433,23.041927z" class="st0"/><path d="M34.075474,24.02141c0.576389,0.596647,0.389122,1.713875-0.41806,2.493813	c-0.807911,0.779938-1.930988,0.927387-2.507669,0.330597c-0.577381-0.598372-0.390085-1.715015,0.417799-2.494953	C32.37487,23.57122,33.497684,23.422771,34.075474,24.02141z" class="st0"/><path d="M29.872084,24.785942c0.489187,0.50728,0.330597,1.454929-0.354713,2.11697	c-0.685282,0.662012-1.638336,0.787771-2.127932,0.280607c-0.490618-0.50728-0.331327-1.455366,0.354275-2.117378	C28.428995,24.4041,29.381788,24.278778,29.872084,24.785942z" class="st0"/><path d="M26.109205,25.539892c0.432621,0.448053,0.292185,1.286371-0.313757,1.87188	c-0.606499,0.585508-1.448673,0.696419-1.881878,0.247925c-0.433496-0.448463-0.292624-1.287365,0.313026-1.872435	C24.833242,25.201723,25.676264,25.090668,26.109205,25.539892z" class="st0"/><path d="M22.778948,26.509932c0.342552,0.354713,0.23138,1.017452-0.247808,1.480797	c-0.479597,0.46291-1.146637,0.550814-1.489044,0.196129c-0.342436-0.354715-0.231672-1.017895,0.248074-1.480947	C21.769911,26.242743,22.436512,26.155218,22.778948,26.509932z" class="st0"/><path d="M57.869015,12.051148c1.588703,1.097789,1.673183,3.727623,0.188992,5.874002	c-1.483345,2.146086-3.974144,2.995977-5.561703,1.898157c-1.588409-1.098663-1.672337-3.728352-0.188698-5.874145	C53.791237,11.803047,56.28175,10.952892,57.869015,12.051148z" class="st0"/><path d="M49.470798,13.954278c1.255531,0.869007,1.32262,2.949878,0.147598,4.647763	c-1.173035,1.698441-3.143696,2.370596-4.399517,1.502024c-1.256699-0.868982-1.323204-2.949411-0.150169-4.648144	C46.243469,13.7583,48.213837,13.085706,49.470798,13.954278z" class="st0"/><path d="M42.63187,16.05669c0.920082,0.636198,0.969749,2.160789,0.109333,3.405621	c-0.861,1.243984-2.304676,1.736996-3.224785,1.100245c-0.920959-0.637047-0.969749-2.160936-0.109623-3.405329	C40.267796,15.912395,41.710331,15.419497,42.63187,16.05669z" class="st0"/><path d="M37.290264,18.195234c0.68259,0.471441,0.718548,1.603958,0.080799,2.527344	c-0.63921,0.9235-1.710892,1.289206-2.394039,0.817472c-0.683735-0.473341-0.719398-1.604982-0.081066-2.528366	C35.534294,18.088299,36.605976,17.721891,37.290264,18.195234z" class="st0"/><path d="M33.319244,19.558517c0.579517,0.400961,0.610359,1.361177,0.068817,2.145384	c-0.541836,0.783651-1.451393,1.094368-2.0312,0.693438c-0.58095-0.400814-0.611206-1.361738-0.069078-2.145531	C31.829325,19.467896,32.739143,19.15744,33.319244,19.558517z" class="st0"/><path d="M29.778158,20.752979c0.512455,0.354422,0.539846,1.203993,0.060541,1.896992	c-0.479332,0.693438-1.283533,0.967936-1.796253,0.613367c-0.513273-0.354275-0.540401-1.204723-0.061359-1.897459	C28.460684,20.672764,29.265177,20.39768,29.778158,20.752979z" class="st0"/><path d="M26.704128,22.359072c0.405666,0.280346,0.426804,0.952209,0.047972,1.500622	c-0.379124,0.54841-1.016024,0.765934-1.421137,0.485327c-0.405638-0.280491-0.42762-0.952501-0.048233-1.500914	C25.661852,22.295546,26.298168,22.07902,26.704128,22.359072z" class="st0"/><path d="M59.0215,1.547216c1.775673,0.759241,2.38261,3.319413,1.35574,5.718569	c-1.02602,2.398601-3.297283,3.727652-5.071815,2.968412c-1.775414-0.760089-2.381763-3.320261-1.35545-5.718832	C54.975967,2.116764,57.247257,0.787274,59.0215,1.547216z" class="st0"/><path d="M51.114162,5.013525c1.403419,0.601207,1.884159,2.627116,1.070835,4.524984	c-0.811069,1.898277-2.608143,2.949556-4.011856,2.348609c-1.40456-0.601057-1.884449-2.626382-1.07338-4.524984	C47.912502,5.464562,49.709312,4.412874,51.114162,5.013525z" class="st0"/><path d="M44.755684,8.688208c1.028591,0.440187,1.381142,1.924119,0.785931,3.31555	c-0.595798,1.390708-1.912132,2.161349-2.940731,1.720866c-1.029442-0.440776-1.381142-1.924266-0.78619-3.315262	C42.410461,9.017927,43.725685,8.247548,44.755684,8.688208z" class="st0"/><path d="M39.947781,11.919687c0.762806,0.325861,1.023743,1.428532,0.582966,2.460546	c-0.442501,1.032424-1.419994,1.604252-2.183357,1.278215c-0.76421-0.327585-1.024853-1.429525-0.583229-2.46154	S39.182693,11.592248,39.947781,11.919687z" class="st0"/><path d="M36.119801,14.188961c0.647747,0.27748,0.869568,1.212262,0.495033,2.088556	c-0.374855,0.875998-1.204166,1.361879-1.852207,1.084398c-0.649178-0.277069-0.870121-1.212732-0.495296-2.088584	C34.641865,14.397218,35.47147,13.911452,36.119801,14.188961z" class="st0"/><path d="M32.887882,15.782338c0.572968,0.245236,0.769093,1.072413,0.437355,1.84706	c-0.331444,0.774937-1.064842,1.204285-1.638073,0.958786c-0.573523-0.244797-0.769648-1.072678-0.438204-1.847061	C31.580961,15.966331,32.314358,15.5364,32.887882,15.782338z" class="st0"/><path d="M30.124308,17.337507c0.453638,0.19396,0.608076,0.848139,0.346003,1.461067	c-0.262075,0.612783-0.842731,0.953085-1.295786,0.758656c-0.453638-0.193844-0.608923-0.848137-0.346294-1.461067	C29.090305,17.482941,29.670698,17.144098,30.124308,17.337507z" class="st0"/><g><path fill="currentColor" d="M56.168999,32.169567h3.292576l3.685379,10.457508h0.037392l3.591892-10.457508h3.255188v13.357399h-2.226303V35.219044 h-0.037415l-3.704094,10.307922h-1.926838l-3.704235-10.307922h-0.037388v10.307922h-2.226154V32.169567z"/><path fill="currentColor" d="M72.688942,32.169567h2.338501v7.78257c0,1.795666,0.112198,3.872238,3.14299,3.872238 c3.030647,0,3.142845-2.076572,3.142845-3.872238v-7.78257h2.338348v8.549381c0,3.423454-2.188469,5.126045-5.481194,5.126045 c-3.292572,0-5.481491-1.702591-5.481491-5.126045V32.169567z"/><path fill="currentColor" d="M86.346535,32.169567h2.338387v11.336781h6.790688v2.020618h-9.129074V32.169567z"/><path fill="currentColor" d="M97.085121,32.169567h9.223259v2.020473h-6.884613v3.498405h6.042442v1.907982h-6.042442v5.930538h-2.338646V32.169567z"/><path fill="currentColor" d="M120.264885,38.848469c0,3.816288-2.3946,6.996525-6.398148,6.996525c-4.003555,0-6.398178-3.180237-6.398178-6.996525 c0-3.816547,2.394623-6.996931,6.398178-6.996931C117.870285,31.851538,120.264885,35.031921,120.264885,38.848469z M109.807198,38.848469c0,2.562748,1.197304,5.088394,4.05954,5.088394c2.862206,0,4.059502-2.525646,4.059502-5.088394 c0-2.563156-1.197296-5.088654-4.059502-5.088654C111.004501,33.759815,109.807198,36.285313,109.807198,38.848469z"/><path fill="currentColor" d="M122.398544,32.169567h6.379333c2.918152,0,4.415207,1.347031,4.415207,3.6106 c0,2.563011-1.777405,3.217918-2.207886,3.367504v0.037392c0.804459,0.112194,1.98349,0.710857,1.98349,2.824818 c0,1.552711,0.224396,2.974697,0.729126,3.517086h-2.506516c-0.355713-0.58007-0.355713-1.309464-0.355713-1.964375 c0-2.45084-0.504715-3.535648-2.656082-3.535648h-3.442314v5.500023h-2.338646V32.169567z M124.73719,38.249691h3.835136 c1.477615,0,2.28212-0.729687,2.28212-2.132668c0-1.702446-1.103668-2.039181-2.319824-2.039181h-3.797432V38.249691z"/><path fill="currentColor" d="M135.569412,32.169567h5.537735c4.116013,0,5.892853,2.993229,5.892853,6.678902 c0,3.685268-1.77684,6.678497-5.892853,6.678497h-5.537735V32.169567z M137.908051,43.618839h2.300964 c3.666702,0,4.452896-2.095428,4.452896-4.77037c0-2.675346-0.786194-4.770626-4.452896-4.770626h-2.300964V43.618839z"/></g><path d="M59.962013,65.668655h-0.015842c-0.231525,0.347145-0.879856,0.946655-1.874046,0.946655	c-1.680752,0-1.983196-1.175606-1.770233-2.177628c0.243217-1.144215,1.165169-2.178219,2.696045-2.178219	c0.781078,0,1.313938,0.42622,1.471504,0.947243h0.015846l0.50988-2.398895h0.583931l-1.207558,5.681324h-0.583961	L59.962013,65.668655z M58.893898,62.748798c-0.923241,0-1.786667,0.647163-2.00808,1.688885	c-0.174431,0.82045,0.098782,1.688324,1.29023,1.688324c0.970627,0,1.85104-0.615501,2.079144-1.688324	C60.434624,63.593224,60.085464,62.748798,58.893898,62.748798z" class="st0"/><path d="M66.088089,65.179352c-0.391106,0.725685-1.157448,1.435959-2.514626,1.435959	c-1.680752,0-1.983227-1.175606-1.770264-2.177628c0.243217-1.144215,1.165199-2.178219,2.696075-2.178219	c1.057274,0,2.214607,0.457909,1.818794,2.32011h-3.961166c-0.18116,0.85215,0.278912,1.546432,1.320484,1.546432	c0.978458,0,1.489048-0.323174,1.826771-0.946655H66.088089z M65.828186,64.137634	c0.048958-1.010002-0.612381-1.388836-1.393578-1.388836c-0.749531,0-1.636639,0.38652-1.98378,1.388836H65.828186z" class="st0"/><path d="M68.0522,60.807812h0.583931l-1.207558,5.681324h-0.583961L68.0522,60.807812z" class="st0"/><path d="M69.405807,62.385929h0.583931l-0.872139,4.103207h-0.583931L69.405807,62.385929z M69.741226,60.807812	h0.583961l-0.184433,0.86787h-0.583931L69.741226,60.807812z" class="st0"/><path d="M74.464355,62.385929h0.631172l-2.797546,4.103207h-0.631203l-1.053268-4.103207h0.631348l0.880127,3.432339	L74.464355,62.385929z" class="st0"/><path d="M79.442802,65.179352c-0.391113,0.725685-1.1576,1.435959-2.514778,1.435959	c-1.680603,0-1.983078-1.175606-1.770111-2.177628c0.243217-1.144215,1.165192-2.178219,2.69622-2.178219	c1.057121,0,2.214462,0.457909,1.818497,2.32011h-3.961021c-0.181152,0.85215,0.278915,1.546432,1.320343,1.546432	c0.978607,0,1.489044-0.323174,1.827065-0.946655H79.442802z M79.182747,64.137634	c0.04908-1.010002-0.612083-1.388836-1.393425-1.388836c-0.74939,0-1.636673,0.38652-1.98381,1.388836H79.182747z" class="st0"/><path d="M81.087456,62.385929h0.584099l-0.199837,0.938965h0.015961	c0.316887-0.48933,0.826187-1.06543,1.796547-1.06543c0.16584,0,0.257195,0.015995,0.340569,0.031693l-0.127342,0.599804	c-0.174988-0.031399-0.345123-0.047386-0.526688-0.047386c-0.631203,0-1.478783,0.386517-1.72686,1.554436l-0.444778,2.091125	h-0.583809L81.087456,62.385929z" class="st0"/><path d="M84.228867,62.385929h0.583809l-0.872139,4.103207h-0.584099L84.228867,62.385929z M84.564026,60.807812	h0.584076l-0.184402,0.86787h-0.584106L84.564026,60.807812z" class="st0"/><path d="M89.111137,63.845592c0.172707-0.812473-0.264091-1.096794-1.005768-1.096794	c-1.14418,0-1.789085,0.584076-1.987198,1.515324l-0.472763,2.225014h-0.584076l0.872406-4.103207h0.583809l-0.171013,0.804787	h0.015701c0.265785-0.433937,0.986908-0.931252,1.894447-0.931252c1.365158,0,1.624657,0.710278,1.416542,1.688911	l-0.540108,2.54076h-0.583809L89.111137,63.845592z" class="st0"/><path d="M94.938332,62.385929h0.584076l-0.838722,3.945324c-0.322029,1.51506-1.625534,1.89389-2.706627,1.89389	c-1.870186,0-1.862175-0.891548-1.815376-1.333496h0.53643c-0.007133,0.441948,0.015694,0.891548,1.396553,0.891548	c1.073112,0,1.80394-0.504997,2.013481-1.491325l0.155869-0.733978h-0.015694	c-0.309753,0.418526-0.955482,0.931244-2.012901,0.931244c-1.041428,0-2.063736-0.536713-1.723175-2.138245	c0.23127-1.089111,1.138771-2.091427,2.685234-2.091427c0.797043,0,1.411987,0.300053,1.55587,0.923241h0.015694	L94.938332,62.385929z M93.125244,62.748798c-1.025734,0-1.814201,0.592056-2.028893,1.602093	c-0.255234,1.19931,0.398796,1.648941,1.385147,1.648941c0.962616,0,1.833618-0.607521,2.054878-1.648941	C94.719353,63.490467,94.285149,62.748798,93.125244,62.748798z" class="st0"/><path d="M101.870338,63.601234c-0.008858-0.662888-0.37912-0.852436-1.231003-0.852436	c-0.615501,0-1.212143,0.134151-1.333168,0.702267c-0.090218,0.426216,0.167267,0.513012,1.37886,0.678879	c1.219543,0.165573,1.693176,0.38652,1.523888,1.183586c-0.173004,0.812477-0.939812,1.301781-2.225891,1.301781	c-1.302071,0-1.984665-0.425926-1.774826-1.412544h0.536423c-0.043411,0.686859,0.293182,0.923241,1.34259,0.923241	c0.812469,0,1.400002-0.165581,1.531021-0.781082c0.08709-0.410225-0.16613-0.591789-1.417686-0.717964	c-1.251236-0.126488-1.637489-0.426216-1.483047-1.151924c0.150726-0.710278,0.83416-1.215572,2.025764-1.215572	c1.333458,0,1.775673,0.481327,1.663765,1.34177H101.870338z" class="st0"/><path d="M105.91301,62.259464c1.578117,0,2.108253,1.034004,1.865005,2.178219	c-0.243217,1.144211-1.2127,2.177628-2.790817,2.177628c-1.578148,0-2.107994-1.033417-1.864746-2.177628	C103.365669,63.293468,104.334862,62.259464,105.91301,62.259464z M105.091095,66.126007	c1.104797,0,1.893303-0.702293,2.102844-1.688324c0.209541-0.986618-0.280342-1.688885-1.385147-1.688885	c-1.104515,0-1.892723,0.702267-2.102562,1.688885C103.496429,65.423714,103.986282,66.126007,105.091095,66.126007z" class="st0"/><path d="M109.529167,60.807812h0.584076l-1.207565,5.681324h-0.584099L109.529167,60.807812z" class="st0"/><path d="M113.685722,65.68409h-0.015991c-0.266045,0.434196-0.987167,0.931221-1.894417,0.931221	c-1.365181,0-1.62439-0.710274-1.416542-1.688591l0.540108-2.540791h0.584106l-0.561829,2.643253	c-0.173004,0.813057,0.263763,1.096825,1.00544,1.096825c1.144211,0,1.789383-0.583817,1.986938-1.51474l0.473343-2.225338h0.583527	l-0.87188,4.103207h-0.584076L113.685722,65.68409z" class="st0"/><path d="M116.777466,61.091869h0.584084l-0.2752,1.29406h1.160202l-0.094223,0.441944h-1.159615l-0.57724,2.714317	c-0.075363,0.355156,0,0.520996,0.473343,0.520996c0.284325,0,0.470451-0.023972,0.586357-0.047386l-0.104477,0.489326	c-0.227257,0.031395-0.459633,0.047096-0.649178,0.047096c-0.907249,0-1.028862-0.354858-0.88842-1.017715l0.575539-2.706635	h-0.891846l0.094223-0.441944h0.891808L116.777466,61.091869z" class="st0"/><path d="M119.106964,62.385929h0.584106l-0.871841,4.103207h-0.584114L119.106964,62.385929z M119.442703,60.807812	h0.584076l-0.184982,0.86787h-0.583527L119.442703,60.807812z" class="st0"/><path d="M123.024895,62.259464c1.578117,0,2.107964,1.034004,1.864746,2.178219	c-0.243217,1.144211-1.2127,2.177628-2.790848,2.177628c-1.578117,0-2.107971-1.033417-1.864746-2.177628	C120.477264,63.293468,121.446777,62.259464,123.024895,62.259464z M122.202713,66.126007	c1.104805,0,1.893311-0.702293,2.102821-1.688324c0.209541-0.986618-0.280312-1.688885-1.384567-1.688885	c-1.104805,0-1.893272,0.702267-2.102821,1.688885C120.608604,65.423714,121.098465,66.126007,122.202713,66.126007z" class="st0"/><path d="M129.498993,63.845592c0.172424-0.812473-0.264359-1.096794-1.006027-1.096794	c-1.144211,0-1.788826,0.584076-1.986938,1.515324l-0.472763,2.225014h-0.584076l0.872406-4.103207h0.583519l-0.170723,0.804787	h0.015434c0.26606-0.433937,0.987175-0.931252,1.894417-0.931252c1.365189,0,1.624405,0.710278,1.41655,1.688911l-0.540115,2.54076	h-0.583511L129.498993,63.845592z" class="st0"/><path d="M134.326416,63.601234c-0.009109-0.662888-0.379089-0.852436-1.231522-0.852436	c-0.615509,0-1.212158,0.134151-1.332626,0.702267c-0.09079,0.426216,0.166718,0.513012,1.378281,0.678879	c1.219574,0.165573,1.693481,0.38652,1.523895,1.183586c-0.172424,0.812477-0.939224,1.301781-2.225601,1.301781	c-1.301773,0-1.984634-0.425926-1.775116-1.412544h0.536713c-0.043411,0.686859,0.292892,0.923241,1.342331,0.923241	c0.812469,0,1.400558-0.165581,1.531311-0.781082c0.086761-0.410225-0.166168-0.591789-1.417679-0.717964	c-1.251556-0.126488-1.637527-0.426216-1.483383-1.151924c0.150757-0.710278,0.834198-1.215572,2.025772-1.215572	c1.333755,0,1.775665,0.481327,1.663757,1.34177H134.326416z" class="st0"/><g><path fill="currentColor" d="M57.547363,57.625l3.253906-8.279297h0.885742L64.86084,57.625h-0.804688l-0.955078-2.598633H59.32959L58.352051,57.625 H57.547363z M59.594238,54.359375h3.243164l-1.62207-4.34668L59.594238,54.359375z"/><path fill="currentColor" d="M69.254395,49.345703h0.78125v4.932617c0,1.02832,0.192383,1.767578,0.575195,2.219727 c0.383789,0.453125,1.000977,0.678711,1.851562,0.678711c0.444336,0,0.822266-0.05957,1.132812-0.178711 c0.310547-0.118164,0.562012-0.298828,0.753418-0.540039c0.192383-0.241211,0.330078-0.541992,0.414062-0.902344 c0.084961-0.360352,0.126953-0.786133,0.126953-1.277344v-4.932617h0.782227v5.163086 c0,1.081055-0.266602,1.907227-0.799805,2.478516s-1.336426,0.856445-2.409668,0.856445 c-1.081055,0-1.885742-0.291016-2.415039-0.874023s-0.792969-1.40332-0.792969-2.460938V49.345703z"/><path fill="currentColor" d="M81.133789,55.152344c0.030273,0.368164,0.112305,0.680664,0.24707,0.9375 c0.133789,0.256836,0.306641,0.46582,0.517578,0.626953s0.454102,0.27832,0.729492,0.350586 c0.276367,0.073242,0.571289,0.109375,0.885742,0.109375c0.368164,0,0.686523-0.045898,0.955078-0.137695 c0.267578-0.092773,0.486328-0.216797,0.655273-0.374023c0.167969-0.157227,0.292969-0.338867,0.374023-0.545898 c0.080078-0.207031,0.120117-0.425781,0.120117-0.65625c0-0.321289-0.072266-0.582031-0.21875-0.78125 c-0.145508-0.199219-0.334961-0.362305-0.568359-0.489258c-0.234375-0.125977-0.50293-0.227539-0.805664-0.304688 c-0.302734-0.076172-0.613281-0.151367-0.931641-0.224609c-0.317383-0.072266-0.62793-0.158203-0.930664-0.258789 c-0.303711-0.098633-0.571289-0.233398-0.805664-0.402344c-0.233398-0.167969-0.423828-0.384766-0.569336-0.649414 s-0.217773-0.599609-0.217773-1.005859c0-0.28418,0.058594-0.55957,0.177734-0.828125s0.294922-0.505859,0.529297-0.712891 c0.233398-0.207031,0.526367-0.37207,0.879883-0.495117c0.352539-0.12207,0.758789-0.183594,1.21875-0.183594 c0.467773,0,0.875977,0.06543,1.224609,0.195312c0.348633,0.130859,0.638672,0.308594,0.868164,0.535156 c0.230469,0.225586,0.402344,0.488281,0.517578,0.787109s0.172852,0.617188,0.172852,0.955078h-0.748047 c0-0.314453-0.055664-0.586914-0.166016-0.816406c-0.111328-0.230469-0.263672-0.417969-0.455078-0.563477 c-0.191406-0.146484-0.410156-0.253906-0.655273-0.322266c-0.245117-0.069336-0.498047-0.103516-0.758789-0.103516 c-0.398438,0-0.734375,0.055664-1.005859,0.166992c-0.272461,0.110352-0.489258,0.254883-0.650391,0.430664 c-0.161133,0.176758-0.272461,0.37207-0.333008,0.586914c-0.061523,0.214844-0.073242,0.428711-0.035156,0.643555 c0.045898,0.268555,0.15332,0.483398,0.322266,0.644531c0.168945,0.160156,0.375977,0.292969,0.621094,0.396484 s0.515625,0.1875,0.810547,0.25293s0.595703,0.133789,0.90332,0.207031c0.305664,0.073242,0.603516,0.15918,0.890625,0.258789 c0.288086,0.099609,0.542969,0.233398,0.764648,0.402344c0.222656,0.168945,0.400391,0.385742,0.535156,0.649414 c0.133789,0.264648,0.201172,0.59668,0.201172,0.995117c0,0.766602-0.264648,1.361328-0.793945,1.782227 c-0.52832,0.421875-1.272461,0.632812-2.230469,0.632812c-0.429688,0-0.828125-0.055664-1.196289-0.166992 c-0.368164-0.110352-0.685547-0.279297-0.954102-0.505859c-0.268555-0.225586-0.477539-0.505859-0.626953-0.839844 c-0.149414-0.333008-0.224609-0.725586-0.224609-1.178711H81.133789z"/><path fill="currentColor" d="M90.356445,49.345703h6.026367v0.666992h-2.62207V57.625h-0.782227v-7.612305h-2.62207V49.345703z"/><path fill="currentColor" d="M101.535156,53.864258V57.625l-0.782227-0.011719v-8.267578h3.243164c0.912109,0,1.610352,0.169922,2.092773,0.511719 c0.483398,0.34082,0.724609,0.894531,0.724609,1.661133c0,0.521484-0.105469,0.935547-0.316406,1.242188 s-0.553711,0.567383-1.029297,0.782227c0.245117,0.083984,0.4375,0.207031,0.575195,0.368164 c0.137695,0.160156,0.241211,0.344727,0.310547,0.551758s0.113281,0.425781,0.131836,0.655273 c0.019531,0.230469,0.033203,0.452148,0.041016,0.666992c0.006836,0.314453,0.020508,0.575195,0.040039,0.782227 c0.018555,0.207031,0.041992,0.375977,0.069336,0.505859c0.026367,0.130859,0.058594,0.232422,0.097656,0.304688 c0.038086,0.073242,0.083984,0.128906,0.137695,0.166992v0.068359L106.008789,57.625 c-0.084961-0.137695-0.143555-0.329102-0.178711-0.575195c-0.03418-0.245117-0.061523-0.501953-0.080078-0.770508 c-0.019531-0.267578-0.035156-0.52832-0.045898-0.78125c-0.011719-0.25293-0.033203-0.459961-0.063477-0.621094 c-0.045898-0.222656-0.121094-0.400391-0.224609-0.535156c-0.103516-0.133789-0.227539-0.235352-0.373047-0.304688 c-0.146484-0.069336-0.30957-0.115234-0.489258-0.137695c-0.180664-0.023438-0.366211-0.035156-0.557617-0.035156H101.535156z M103.972656,53.197266c0.291992,0,0.561523-0.030273,0.811523-0.091797c0.249023-0.060547,0.464844-0.15918,0.649414-0.292969 c0.183594-0.133789,0.329102-0.304688,0.436523-0.511719s0.161133-0.456055,0.161133-0.74707 c0-0.306641-0.055664-0.55957-0.166016-0.759766c-0.111328-0.199219-0.260742-0.356445-0.449219-0.47168 c-0.1875-0.114258-0.402344-0.195312-0.643555-0.241211c-0.242188-0.045898-0.493164-0.068359-0.753906-0.068359h-2.483398v3.18457 H103.972656z"/><path fill="currentColor" d="M110.942383,57.625l3.253906-8.279297h0.885742l3.173828,8.279297h-0.804688l-0.955078-2.598633h-3.771484 L111.74707,57.625H110.942383z M112.989258,54.359375h3.243164l-1.62207-4.34668L112.989258,54.359375z"/><path fill="currentColor" d="M122.636719,57.625v-8.279297h0.782227v7.612305h4.438477V57.625H122.636719z"/><path fill="currentColor" d="M132.572266,57.625v-8.279297h0.782227V57.625H132.572266z"/><path fill="currentColor" d="M138.000977,57.625l3.253906-8.279297h0.885742l3.173828,8.279297h-0.804688l-0.955078-2.598633h-3.771484 L138.805664,57.625H138.000977z M140.047852,54.359375h3.243164l-1.62207-4.34668L140.047852,54.359375z"/></g></svg>