<svg xmlns="http://www.w3.org/2000/svg" xmlns:xlink="http://www.w3.org/1999/xlink" id="Layer_1" x="0" y="0" version="1.1" viewBox="0 0 141 75" style="enable-background:new 0 0 141 75" xml:space="preserve"><style type="text/css">.st0{fill:#6a2875}.st1{fill:#fff}.st2{fill:#82c341}</style><desc>Created with Sketch.</desc><g id="Symbols"><g id="Component-_x2F_-Nav-_x2F_-Header-_x2F_-L-_x2F_-Top-6" transform="translate(0.000000, -11.000000)"><g id="Component-_x2F_-Brand-_x2F_-Logo-full" transform="translate(-2.000000, 8.000000)"><g id="NDIS_Logo" transform="translate(2.000000, 3.296512)"><path id="Shape" d="M9.9,0.1c0,0-9.8,0-9.8,9.8v53.2c0,0,0,10.7,10.6,10.7H131c0,0,9.8,0,9.8-9.8V33.9 c0,0,0-33.8-33.6-33.8H9.9z" class="st0"/><path id="Shape_00000171697335878732009140000013140192640206561189_" d="M17.6,26.7c3.4,0,4,0.1,4.3,0.9 c0.2,0.6,0.3,1.7,0.5,2.8c2.2-2.5,5.8-4.3,9.9-4.3s7.5,1.4,9.6,3.7c2.3,2.5,3.2,5.9,3.2,11.1v21.2c0,0.8-0.4,1-4.5,1h-0.3 c-4.5,0-4.6-0.3-4.6-1V43.5c0-4.8-0.3-6.2-1.4-7.4c-0.9-1-2.6-1.6-4.6-1.6c-1.6,0-3.4,0.3-4.6,1.1c-1.5,0.9-1.8,2-1.9,3.7 c-0.1,1.6-0.1,4.1-0.1,6.8v16.2c0,0.8-0.4,1-4.5,1h-0.3c-4.5,0-4.6-0.3-4.6-1v-19c0-5.4-0.2-11.4-0.5-15.1 c0-0.9,0.2-1.2,4.1-1.2L17.6,26.7L17.6,26.7z" class="st1"/><path id="Shape_00000148648620897037925450000004353811453613406901_" d="M71.8,37.3c-1.7-2.1-3.8-3.2-6.2-3.2 c-5,0-7.4,4-7.4,11.3c0,4,0.9,6.7,2.3,8.3c1.2,1.5,3.2,2,5.2,2c1.9,0,4.1-0.7,5.2-1.8c0.8-0.8,0.9-1.9,0.9-3.7V37.3z M76.8,10.7 c4,0,4.5,0.3,4.5,1v42.1c0,1.5,0.6,1.9,2,1.9c0.8,0,0.9,0.3,0.9,2.8v0.8c0,2.4-0.1,3-0.6,3.2c-1.2,0.5-3.1,0.8-4.9,0.8 c-3,0-5.1-1.4-6-3.4c-2.3,2.5-5.8,3.9-9.6,3.9c-9,0-14.5-7.1-14.5-18.4c0-12.2,6.1-19.4,15.1-19.4c3.2,0,5.9,1.1,8.2,3.1V11.7 c0-0.8,0.1-1,4.6-1H76.8z" class="st1"/><path id="Shape_00000049184532087081664250000005717722606598934673_" d="M101.3,55.3c1.2-2.1,1.8-2.7,2.5-2.1 c2.7,1.8,5.9,3,8.8,3c3.7,0,5.8-1.4,5.8-3.2c0-5.4-17.6-2.1-17.6-15.3c0-7.3,6.2-11.7,14.2-11.7c4.5,0,8.4,1.2,11.4,3.4 c0.7,0.5,0.6,1-0.8,3.4l-0.6,1c-1.2,2.1-1.7,2.5-2.5,2c-2.2-1.4-4.3-2.2-7-2.2c-2,0-3.6,0.4-4.5,1.2c-0.6,0.6-0.9,1.2-0.9,2 c0,5.2,17.6,2.5,17.6,14.9c0,3.2-1.3,6.2-3.5,8.3c-2.5,2.5-6.3,3.8-11.4,3.8c-5.3,0-9.9-1.7-12.8-4.1c-0.6-0.5-0.5-1.1,0.6-3.1 L101.3,55.3z" class="st1"/><path id="Shape_00000127025506849880307210000015434099360696872604_" d="M92.8,26.7c4.1,0,4.5,0.3,4.5,1v34.4 c0,0.8-0.4,1-4.5,1h-0.4c-4.5,0-4.6-0.3-4.6-1V27.7c0-0.8,0.1-1,4.6-1H92.8z" class="st1"/><path id="Shape_00000021096135808861830910000001592875772733527721_" d="M92.4,22.8c3.3,0,6.1-2.7,6.1-6.1 s-2.7-6.1-6.1-6.1s-6.1,2.7-6.1,6.1S89.1,22.8,92.4,22.8" class="st2"/></g></g></g></g></svg>