<?xml version="1.0" standalone="no"?>
<!DOCTYPE svg PUBLIC "-//W3C//DTD SVG 1.1//EN" "http://www.w3.org/Graphics/SVG/1.1/DTD/svg11.dtd">
<svg xmlns="http://www.w3.org/2000/svg" xmlns:xlink="http://www.w3.org/1999/xlink" version="1.1" id="图层_1" x="0px" y="0px" viewBox="0 0 319.6 87.4" style="enable-background:new 0 0 319.6 87.4;" xml:space="preserve" width="319.6000061035156" height="87.4000015258789">
<style type="text/css">
	.st0{fill-rule:evenodd;clip-rule:evenodd;fill:#D36221;}
	.st1{fill-rule:evenodd;clip-rule:evenodd;fill:#1F833B;}
</style>
<path class="st0" d="M166.8,59.3c53.9-1.7,91,1.8,136.6,7.4l-1.9,1.3c-38.1-2.7-62.4-6.9-104.9-5.8c-68.5,1.9-125.7,11-180.2,21.6  l1.6-7.5C67,67.1,116.8,61.4,166.8,59.3z"/>
<path class="st1" d="M109.2,14.2l-6.3,6c-4.3-4.5-9.2-6.8-14.6-6.8c-4.3-0.1-8.5,1.6-11.5,4.6c-3.1,3-4.8,7.1-4.7,11.4  c-0.1,2.9,0.6,5.8,2,8.4c1.4,2.4,3.4,4.4,5.9,5.7c2.6,1.4,5.4,2.1,8.4,2.1c2.5,0,5-0.5,7.2-1.4c2.7-1.3,5.1-3.1,7.2-5.3l6.1,6.3  c-2.8,3-6.2,5.3-9.9,7.1c-3.4,1.4-7,2.1-10.7,2c-7.3,0-13.4-2.3-18.1-6.9C65.4,42.7,63,36.7,63,29.4c-0.1-4.4,1-8.7,3.2-12.5  c2.2-3.7,5.4-6.8,9.2-8.8c3.9-2.2,8.4-3.3,12.9-3.3c3.9,0,7.8,0.8,11.4,2.4C103.3,8.8,106.6,11.2,109.2,14.2z"/>
<path class="st1" d="M21.9,55.4V4.3h16.5c6.3,0,10.4,0.3,12.3,0.8c3,0.8,5.5,2.5,7.4,5c2.1,2.9,3.1,6.4,3,9.9  c0.1,2.7-0.5,5.5-1.7,7.9c-1,2-2.5,3.7-4.3,5c-1.6,1.2-3.4,2-5.3,2.4c-3.5,0.6-7.1,0.8-10.7,0.7h-6.7v19.3L21.9,55.4z M224.1,3.5  L211,55.4h-14.3l-8.3-32.1l-8,32.1H166L152.8,3.5h13.5l7.1,34.8l8.7-34.8h12.9l8.2,34.8L211,3.5H224.1z M298.6,16.2l-19.8,53.5  h-13.1l5.9-15.3l-14.4-38.2h12.8l8.2,24.6l7.7-24.6L298.6,16.2z M245.7,45.2V37c-2.1,0.2-3.8,0.4-5,0.5c-1.3,0.2-2.6,0.5-3.8,0.9  c-1,0.3-1.8,0.9-2.5,1.7c-0.6,0.9-0.9,1.9-0.9,3c0,1.8,0.5,3.1,1.5,3.8c1.3,0.8,2.8,1.1,4.4,1c1.1,0,2.2-0.3,3.3-0.7  C243.8,46.7,244.9,46,245.7,45.2L245.7,45.2z M245.7,51.2v4.1h12.1V28.8c0-4.6-1.5-8-4.6-10.3c-3.1-2.2-8-3.4-14.7-3.4  c-2.7,0-5.5,0.2-8.2,0.7c-2.7,0.5-4.6,0.9-5.9,1.2v9.4h1c1.8-0.8,3.7-1.5,5.6-2c1.6-0.5,3.3-0.7,5.1-0.8c2.4-0.1,4.9,0.3,7.2,1.2  c1.6,0.9,2.6,2.6,2.4,4.5v0.2c-3.5,0.2-6.8,0.6-9.9,1c-2.7,0.3-5.4,1.1-7.9,2.2c-2,0.9-3.8,2.4-5,4.2c-1.2,2.1-1.9,4.5-1.8,7  c-0.1,3.3,1.1,6.4,3.4,8.8c2.3,2.3,5.4,3.6,8.6,3.5c2.6,0.2,5.2-0.4,7.5-1.6c0.9-0.5,1.8-1,2.7-1.7  C244.1,52.5,244.9,51.9,245.7,51.2L245.7,51.2z M152.2,39.4c0,2.6,0.4,5-0.6,6.9c-0.9,1.9-2.3,3.5-3.9,4.8c-1.9,1.5-4.1,2.6-6.4,3.3  c-2.9,0.7-5.9,1.1-8.9,1h-20.8V3.6h18.3c2.9,0,5.8,0.1,8.7,0.4c1.9,0.3,3.8,0.9,5.5,1.8c1.7,0.9,3.2,2.3,4.2,4  c0.9,1.8,1.4,3.8,1.4,5.8c0,2.4-0.6,4.7-1.9,6.8c-1.3,2-3.1,3.5-5.2,4.4v0.3c2.9,0.5,5.6,2,7.7,4.1C152,33.3,152.2,36,152.2,39.4  L152.2,39.4z M136.3,18.3c0-0.9-0.2-1.8-0.6-2.6c-0.4-0.9-1.1-1.5-2-1.9c-1-0.4-2-0.6-3-0.6c-1.2,0-2.9-0.1-5.2-0.1h-0.9v11h1.6  c2.2,0,3.8,0,4.7-0.1c1-0.1,1.9-0.3,2.8-0.7c0.9-0.4,1.7-1.1,2.2-2C136.2,20.4,136.4,19.4,136.3,18.3L136.3,18.3z M139.6,39.4  c0.1-1.3-0.3-2.6-1-3.8c-0.7-1-1.8-1.7-2.9-2.1c-1.1-0.3-2.2-0.5-3.3-0.5c-1.4,0-3.2-0.1-5.5-0.1h-2.4v13h0.7c3.4,0,5.7,0,7-0.1  c1.4-0.1,2.7-0.4,4-0.9c1.1-0.4,2-1.2,2.6-2.2C139.3,41.7,139.6,40.6,139.6,39.4L139.6,39.4z M32.2,13v14.5h5.6  c4.1,0,6.8-0.3,8.2-0.8c1.3-0.5,2.4-1.4,3.2-2.5c0.8-1.2,1.2-2.6,1.2-4c0.1-1.7-0.5-3.3-1.6-4.6c-1.1-1.2-2.5-2-4.1-2.3  c-2.5-0.3-4.9-0.4-7.4-0.3L32.2,13z"/>
</svg>