<svg xmlns="http://www.w3.org/2000/svg" xmlns:svg="http://www.w3.org/2000/svg" id="svg2" width="1196" height="236" version="1.1" viewBox="0 0 1196 236" xml:space="preserve"><metadata id="metadata8"/><g id="g10" transform="matrix(1.3333333,0,0,-1.3333333,0,236)"><g id="g12" transform="scale(0.1)"><path d="m 1366.01,1047.59 -1.37,-0.69 -413.269,240.18 c -10.84,5.35 -23.351,8.02 -37.547,8.02 h -2.062 -0.688 c -12.058,-0.46 -22.969,-2.9 -32.738,-7.33 L 460.258,1045.53 H 459.57 L 59.3555,1276.32 v 0.69 c 32.207,56.63 72.8085,99.9 121.8045,129.82 l 560.715,323.97 c 49,25.34 105.395,38.01 169.199,38.01 62.426,0 117.986,-12.06 166.676,-36.18 l 562.55,-325.11 c 49.15,-29.92 90.21,-73.42 123.18,-130.51 l -397.47,-229.42" style="fill:#e0dfdd;fill-opacity:1;fill-rule:nonzero;stroke:none" id="path14"/><path d="m 1366.01,1047.59 397.47,229.42 c 29.92,-51.29 46.86,-102.8 50.83,-154.55 V 446.129 c -3.97,-51.289 -20.68,-102.574 -50.14,-153.863 L 1366.01,522.367 V 1047.59 M 59.3555,1276.32 459.57,1045.53 V 524.43 L 59.3555,292.953 C 26.8398,349.582 9.67188,406.207 7.84375,462.836 v 642.914 c 1.82813,57.09 18.99605,113.94 51.51175,170.57" style="fill:#64c1d8;fill-opacity:1;fill-rule:nonzero;stroke:none" id="path16"/><path d="m 459.57,524.43 282.305,163.246 c 49.453,25.031 105.855,37.543 169.199,37.543 62.891,0 118.676,-12.281 167.366,-36.86 L 1366.01,522.367 V 4.00781 L 1362.81,1.94922 949.313,240.754 c -10.684,5.34 -23.204,8.012 -37.551,8.012 h -0.688 c -13.734,0 -26.176,-2.907 -37.32,-8.703 L 460.258,1.94922 H 459.57 V 524.43" style="fill:#3789b2;fill-opacity:1;fill-rule:nonzero;stroke:none" id="path18"/><path d="M 459.57,524.43 V 1.94922 L 179.785,163.824 C 131.703,193.738 91.5625,236.555 59.3555,292.266 v 0.687 L 459.57,524.43 m 1304.6,-232.164 h -0.69 c -30.84,-53.118 -68.76,-94.559 -113.79,-124.328 L 1366.01,4.00781 V 522.367 l 398.16,-230.101" style="fill:#46acd9;fill-opacity:1;fill-rule:nonzero;stroke:none" id="path20"/><path d="m 2825.77,296.461 h -76.16 l -161.84,527.687 -163.2,-527.687 h -74.81 l -213.52,641.93 87.04,16.32 165.92,-534.484 160.49,526.32 h 78.87 l 160.49,-526.32 160.48,523.601 h 89.76 L 2825.77,296.461" style="fill:#64c1d8;fill-opacity:1;fill-rule:nonzero;stroke:none" id="path22"/><path d="m 3646.25,616.063 h -447.44 c 2.72,-157.758 76.15,-251.598 205.36,-251.598 85.68,0 160.48,38.078 227.12,95.199 l 13.6,-81.601 c -63.92,-54.399 -146.88,-91.122 -246.16,-91.122 -168.64,0 -289.69,114.243 -289.69,335.926 0,206.723 119.69,334.567 277.45,334.567 175.44,0 259.76,-144.168 259.76,-322.329 0,-5.437 0,-12.238 0,-19.042 z m -259.76,269.285 c -100.64,0 -165.92,-74.801 -183.6,-198.559 h 350.88 c -9.52,115.598 -63.92,198.559 -167.28,198.559" style="fill:#64c1d8;fill-opacity:1;fill-rule:nonzero;stroke:none" id="path24"/><path d="m 4040.17,292.383 c -89.77,0 -161.85,17.68 -233.93,42.16 v 926.167 l 89.76,16.32 V 859.508 c 46.25,50.32 108.8,97.926 198.56,97.926 140.09,0 258.41,-102.004 258.41,-316.887 0,-235.281 -134.65,-348.164 -312.8,-348.164 z m 44.87,584.805 c -72.08,0 -131.91,-44.879 -189.04,-111.52 V 395.742 c 40.8,-16.316 82.96,-25.84 148.24,-25.84 127.84,0 217.61,82.965 217.61,266.563 0,156.402 -74.81,240.723 -176.81,240.723" style="fill:#64c1d8;fill-opacity:1;fill-rule:nonzero;stroke:none" id="path26"/><path d="m 4886.06,1097.51 c -35.36,0 -65.28,29.92 -65.28,65.28 0,35.37 29.92,65.28 65.28,65.28 35.37,0 63.93,-29.91 63.93,-65.28 0,-35.36 -28.56,-65.28 -63.93,-65.28 z m -44.88,-796.967 v 643.285 h 88.41 V 300.543 h -88.41" style="fill:#64c1d8;fill-opacity:1;fill-rule:nonzero;stroke:none" id="path28"/><path d="m 5526.05,300.543 v 443.363 c 0,82.965 -38.07,133.282 -119.67,133.282 -68.01,0 -137.36,-42.161 -208.09,-111.52 V 300.543 h -89.77 v 643.285 h 69.37 l 14.96,-95.199 c 70.72,62.562 144.16,108.805 231.2,108.805 127.84,0 191.77,-73.446 191.77,-197.204 V 300.543 h -89.77" style="fill:#64c1d8;fill-opacity:1;fill-rule:nonzero;stroke:none" id="path30"/><path d="m 6520.2,300.543 -14.97,85.68 c -59.83,-55.758 -134.63,-99.282 -227.11,-99.282 -111.53,0 -191.77,61.204 -191.77,175.442 0,150.961 122.4,221.683 413.45,250.246 v 42.156 c 0,87.039 -51.68,123.766 -133.28,123.766 -76.17,0 -150.96,-23.121 -221.68,-57.125 l -12.24,80.246 c 74.79,32.641 148.23,55.762 239.35,55.762 142.81,0 216.25,-66.641 216.25,-198.567 V 300.543 Z m -20.4,341.359 c -252.96,-25.839 -323.69,-87.039 -323.69,-174.082 0,-69.359 47.6,-104.718 115.61,-104.718 69.35,0 145.51,38.082 208.08,96.562 v 182.238" style="fill:#64c1d8;fill-opacity:1;fill-rule:nonzero;stroke:none" id="path32"/><path d="m 7333.47,292.383 c -89.76,0 -161.84,17.68 -233.93,42.16 v 926.167 l 89.77,16.32 V 859.508 c 46.24,50.32 108.8,97.926 198.56,97.926 140.08,0 258.4,-102.004 258.4,-316.887 0,-235.281 -134.64,-348.164 -312.8,-348.164 z m 44.88,584.805 c -72.08,0 -131.92,-44.879 -189.04,-111.52 V 395.742 c 40.8,-16.316 82.96,-25.84 148.24,-25.84 127.84,0 217.59,82.965 217.59,266.563 0,156.402 -74.79,240.723 -176.79,240.723" style="fill:#64c1d8;fill-opacity:1;fill-rule:nonzero;stroke:none" id="path34"/><path d="m 8056.5,286.941 c -164.56,0 -288.32,122.399 -288.32,334.563 0,213.523 126.48,335.93 288.32,335.93 167.29,0 292.41,-122.407 292.41,-335.93 0,-212.164 -127.85,-334.563 -292.41,-334.563 z m 0,594.329 c -127.84,0 -197.19,-107.442 -197.19,-259.766 0,-148.242 70.71,-258.402 197.19,-258.402 130.57,0 199.93,106.082 199.93,258.402 0,148.242 -70.73,259.766 -199.93,259.766" style="fill:#64c1d8;fill-opacity:1;fill-rule:nonzero;stroke:none" id="path36"/><path d="M 8872.91,291.02 8687.95,565.746 8513.87,300.543 h -96.57 l 224.41,330.48 -210.8,306.008 88.4,17.68 170,-254.324 163.2,243.441 h 96.56 L 8736.91,633.746 8961.32,307.344 8872.91,291.02" style="fill:#64c1d8;fill-opacity:1;fill-rule:nonzero;stroke:none" id="path38"/></g></g></svg>