<svg xmlns="http://www.w3.org/2000/svg" viewBox="0 0 141.9 141.9"><rect x="0.08" y="0.08" width="141.73" height="141.73" rx="13.23" style="fill:#ffde17;stroke:#231f20;stroke-miterlimit:10;stroke-width:0.166666666666668px"/>
<path style="fill:#333" d="M70.85,141.71H13.21a13.18,13.18,0,0,1-13-11A14.17,14.17,0,0,1,0,128.3Q0,70.91,0,13.52A13.34,13.34,0,0,1,11.24.16a12.28,12.28,0,0,1,2-.15H128.54a13,13,0,0,1,7.86,2.71A12.87,12.87,0,0,1,141.55,11a9.81,9.81,0,0,1,.17,1.88q0,58.05,0,116.1a12,12,0,0,1-4.15,9.15,13.64,13.64,0,0,1-9.53,3.64Q99.44,141.67,70.85,141.71Zm-.06-.2q28.74,0,57.47,0a13.21,13.21,0,0,0,9.35-3.79,12.09,12.09,0,0,0,3.91-9.07q0-57.78,0-115.56a10,10,0,0,0-.1-1.54,12.7,12.7,0,0,0-4.52-8.14,12.92,12.92,0,0,0-8.4-3.18H13.22A12.33,12.33,0,0,0,11,.42,13.29,13.29,0,0,0,.21,13.59q.08,57.27,0,114.55c0,.34,0,.67,0,1a12.8,12.8,0,0,0,4.07,8.77,13.07,13.07,0,0,0,9.42,3.6Q42.27,141.48,70.79,141.51Z" transform="translate(0.08 0.08)" />
<path style="fill:#333" d="M131.14,95.67c-.41-.23-.22-.52-.07-.78s.23-.21.42-.39l-.49-.26c.15-.36-.35-1,.32-1.44a10.13,10.13,0,0,1,1.11-.5c.12,0,.3-.09.35-.19.3-.52.88-.51,1.31-.78s1-.67,1.47-1l.58-.44c.32.83-.61.7-.89,1.21h1l-.27.53c.24.15.46.36.09.64a3.39,3.39,0,0,1-.84.53c-.59.24-.69.77-.79,1.32l.59-.89.08.58.38-.7.09.38h.63l.13.17-1.11,1.23-.71,0V95l.5.33-.11.22-.81-.31c-.84.34-1.12.81-1,1.86.22-.18.43-.37.66-.53s.37-.21.68-.38c.68.25,1-.81,1.9-.83-.39.33-.34,1.11-.86.94s-.53.18-.9.24c.32.23.47.39.82.18.15-.09.7.16.76.34a4.42,4.42,0,0,1,0,1.26l-.21,0-.54-.57L132,100l.07.73.85-1v.67l.9-.29-.55-.75c.19,0,.5-.37.65.23,0,.09.44.09.71.14,0-.52.07-1,.81-.65.17.08.48-.17.73-.27l.1.15c-.16.13-.34.24-.48.38a3.36,3.36,0,0,0-.34.41c.13.09.25.24.4.26.47.08.43.38.34.71a4.28,4.28,0,0,1-.17.43l-.65,0c0-.37-.18-.48-.66-.35-.09,0-.16.11-.23.16s.13.12.21.13.46,0,.7.05l-.26.91c.39-.21.45-.87,1.08-.51l-.33.29a.77.77,0,0,1,.2,1.12c-.25.24-.25.35,0,.58s.09.81-.46,1.2l.66.22L136,106.4l.29.65-1,.34-.53-.68-.17.8-.32-.21c.07.34-.59.63.07,1l-.4.19c.17.29.46,0,.5-.43a2.64,2.64,0,0,0,0-.29l1.78-.28c-.09.2-.14.57-.35.72-.38.27-.39.49-.14.82a.6.6,0,0,1,0,.27l.16,0-.14-.67.07-.12c.1.09.29.19.3.29,0,.51,0,1,0,1.52a5.62,5.62,0,0,0,0,.58c.09.56-.1.82-.67.91,0,.76,0,.76.54.8-.47-.37-.46-.46.12-.81,0,.17,0,.32,0,.46,0,.6,0,1.21,0,1.81a1,1,0,0,1-.76,1.24l.11.14.52-.11s.07,0,.07.08c0,1.23,0,2.46,0,3.69-.67-.45-1.06.36-1.79.32.47.28.63.53.29.9.2-.19.29-.44.47-.58s.36,0,.67,0l.14-.68h.24a6.94,6.94,0,0,1-.07,2.57h-.21l.31.36-.14.09c.06.3.13.52.15.74s0,.55,0,.82l-.05,0-.26-.12c.34,1,.61,1.85,0,2.67a2.76,2.76,0,0,1,.07.79,10.62,10.62,0,0,1-9,8.59c-.58.08-.69,0-.78-.78a2,2,0,0,1-.47.6,1.7,1.7,0,0,1-.88.25c-1.44,0-2.89,0-4.33,0a3.73,3.73,0,0,1-1-.32l-.09.34H16.22a11.19,11.19,0,0,1-6.38-1.83c-.41-.27-.88-.49-1.06-1.06,0-.17-.47-.18-.63-.35a10.26,10.26,0,0,1-3-7.11c0-2.44,0-4.87,0-7.31,0-.55,0-1.1,0-1.64,0-5.16,0-10.32,0-15.48a5,5,0,0,1,.1-.69l.48.31.1-.08c-.07-.15-.09-.35-.2-.42-.5-.34-.49-.81-.48-1.33,0-3.3,0-6.59,0-9.89,0-1.24,0-2.48,0-3.72,0-3.54,0-7.09,0-10.63a8.91,8.91,0,0,1,.18-1,.79.79,0,0,1-.17-.38c0-1.9,0-3.81,0-5.71a.48.48,0,0,1,0-.15l.76.29-.36-1.14-.44.39a4.68,4.68,0,0,1,0-1.26A1,1,0,0,1,5.85,65c.19,0,.45.17.76.31l-.5-1-.6.87a1.56,1.56,0,0,1-.12-1.83.4.4,0,0,0,0-.32c-.34-.63-.4-.85.28-1.15A1.67,1.67,0,0,1,5.26,60l.22.84.26-.78,1.34-.2-.33-.44c.53.12,1.11.32,1.33-.37.09-.27-.14-.63-.22-.95l-.26,0-.61.8-1.78.58-.13-.08.54-.66.1-1.05-.51.14V56.46c.09,0,.21,0,.23,0,.26.62.68.35,1,.13.17-.11.23-.38.33-.58-.23,0-.47,0-.71,0,0,0-.08.13-.07.12l-.79-.11c0,.06,0,0,0-.08a4.38,4.38,0,0,0,.13-1.42c-.32-1.18.62-1.15,1.23-1.5.24-.14.39-.44.58-.66l.78-.05c-.09-.43-.08-.51.45-.44.8.11,1.57-1,1.52-2L8.06,51c-.41.24-.84.46-1.25.72a6.64,6.64,0,0,1-.75.56,3.78,3.78,0,0,1-.93.17l.5-.76,0,.11a3.29,3.29,0,0,0,.89-.41A16.47,16.47,0,0,0,7.7,50.18c.06-.07.19-.17.2-.15.53.45.79-.16,1.17-.33l-.41-.35c.27,0,.5-.1.61,0,.55.43.5,0,.57-.35a2.09,2.09,0,0,1,.25-.46.81.81,0,0,0,0-.43,23.92,23.92,0,0,1-4.91,2.78A.73.73,0,0,1,5.66,50c.6-.31,1.22-.59,1.8-.94.2-.12.32-.39.47-.59l.14-.15.79.07-.24-.65c.74.59,1.19-.36,1.86-.31,0,.74,0,1.46,0,2.18a.52.52,0,0,1-.16.32c-.27.31-.16.25,0,.65a2.18,2.18,0,0,1,.07,1.32c0,.19-.34.37-.69.14-.17-.1-.56.14-.86.23V53c.43,0,.83,0,.71-.49l.81-.1a1,1,0,0,1-.61,1.15,17.15,17.15,0,0,0-1.8.95c-.1.06-.09.29-.13.46l.86-.6.07.58.48-.25c.14-.06.29-.1.43-.15l.58-.21c.06.21.12.41.17.62a1,1,0,0,1,0,.17A3.75,3.75,0,0,0,7.86,57c.35.22.76.61.8-.26,0,0,.13-.15.16-.14.69.4,1-.55,1.73-.4l-1,.91.58.88-.2-.86.15-.11c.12.17.34.34.34.52a20.18,20.18,0,0,1,0,2.2c0,.13-.19.28-.33.38s-.55.31-.33.77l-.45-.36-.49.66.3.35c.32-.65.86.15,1.32-.29,0,.8,0,1.48,0,2.15a.74.74,0,0,1-.29.47c-.27.22-.3.44,0,.59.46.24.33.53.14.83s-.27.46,0,.71c.12.1.12.36.13.55,0,1.09,0,2.18,0,3.27a8,8,0,0,1-.28,1.31c.08.12.28.28.27.42,0,.39-.13.77-.15,1.15,0,.18.15.37.16.55,0,.73,0,1.47,0,2.2a.62.62,0,0,1-.14.31c-.19.3-.48.56,0,.88.15.1.13.52.12.78,0,.91-.1,1.82-.1,2.73,0,1.46.06,2.92.1,4.37,0,0,0,.07,0,0-.34.13-.66.16-.76.32s0,.48,0,.9l.77-.76v1.9c0,3.09,0,6.19,0,9.28,0,.52.07,1.12-.68,1.23-.12.57-.46.38-.72.23l-.35.64c.55.36.82-.33,1.24-.37l-.17-.5a2.92,2.92,0,0,1,.28.21c.14.14.36.29.37.44s-.25.27-.49.51c0,0,.41.49-.21.4h.73v1.15c0,8.25,0,16.5,0,24.76a5.15,5.15,0,0,0,.38,2.14,5.48,5.48,0,0,0,5.06,3.37H125.23a5.63,5.63,0,0,0,3.74-1.22,5.37,5.37,0,0,0,1.95-3.73c.05-.42.17-.83.22-1.25a3.38,3.38,0,0,0,0-.84,8,8,0,0,1-.16-1c0-3.24,0-6.48,0-9.73,0-1.12,0-2.23,0-3.35a1.65,1.65,0,0,1,.16-.49,6.37,6.37,0,0,1-.16-2.2l.72.12.42-1h-1.15c.28-1.45-.19-3,.06-4.47h.48l0-.19L131,101v-.87l.78-.35a.72.72,0,0,1,.45-1.09l-.35.63c.31.26.28.25.41-.11.05-.13.22-.23.35-.33a4.58,4.58,0,0,1,.46-.31c.51.34.76-.26,1.14-.47L132.7,98l-.06.82-.7-.76c-.1.19-.17.39-.28.56a3.07,3.07,0,0,1-.34.38c-.13-.12-.34-.23-.36-.38a8.53,8.53,0,0,1,0-1.15l.58.58a3.7,3.7,0,0,0,.49-.57,8.33,8.33,0,0,0,.39-1l-.19-.09-.31.4-.2-.05a2.08,2.08,0,0,1,.15-.63c.11-.17.35-.23.52-.37a4.23,4.23,0,0,0,.38-.39L134,94.8l-.75-.41.73-.51-.61.05c-.66.39-1.24.76-1.85,1.07-.3.16-.48.32-.38.68Zm4,10.3-.14-.92a3.64,3.64,0,0,1-.51.31,1.67,1.67,0,0,1-.39,0c-.16-.37-.33-.68-.81-.36-.08.06-.26,0-.39,0a2.38,2.38,0,0,0-.37.06l0,.15h.3l-.2.88,1.44-.72-.23.47.73.58.28-.17c.14,0,.28.14.4.12.69-.14.35-.76.5-1.08ZM7.65,53.25l.1.18c-.23.14-.5.42-.71.38-1-.19-1.67.45-1.31,1.69L6.7,54l.15.44,1.24-.79c-.57-.45-.69-.51-.86-.36ZM135.81,92.1l0-.2-.8-.23.13-.36c-.25.09-.53.11-.66.26a1.19,1.19,0,0,0-.35.78c0,.29.36.36.65.23S135.46,92.26,135.81,92.1ZM6.67,60.9a2.79,2.79,0,0,0,.45.53s.21-.11.42-.22c-1.25-.33.24-.71-.22-1.06l-1.77,1,0,.18.85.24Zm1.71-3.23-.13.06.3,1c.91-.36.91-.36.37-1.58l-.16.74Zm123,64.27a4.79,4.79,0,0,1,.48-.5c.06,0,.19,0,.26-.07s.32-.22.48-.33c-.08-.09-.19-.27-.25-.26a1.18,1.18,0,0,0-.54.26,9.57,9.57,0,0,0-.67.83l.24.43.11-.07ZM9.1,70.15c.12,0,.33.11.42,0s.15-.31.21-.46L8,70.05c.12.17.23.42.28.41A6,6,0,0,0,9.1,70.15ZM9.59,60c.93-.42,0-1,.26-1.43a2,2,0,0,0-.42.33,3.28,3.28,0,0,1-.31.2l.44.33ZM6.37,57.79,7.31,57l-.11-.45c-.41.47-.76.84-1,1.24,0,0,.26.32.4.48l.11-.1Zm1.32,5.82c.3-.07.53-.06.64-.17a2.2,2.2,0,0,0,.31-.59l-.17-.1c-.15.11-.29.3-.45.33-.72.13-.61.55-.39,1Zm.87-4c-.63-.15-.4.32-.41.53a2.9,2.9,0,0,0,.15.77l.82-.53,0-.16-.59.06ZM131.92,93.73c-.17-.5.2-.34.45-.38a.54.54,0,0,0,.3-.22s0-.23,0-.24a.55.55,0,0,0-.36,0c-.32.16-.63.34-.91.5Zm1.27-.19.39-1.45-.14-.07-.64.44ZM132,107.21l0,.23a4.62,4.62,0,0,0,.63.06c.09,0,.17-.13.25-.2.05.26.18.35.3.07,0-.06-.25-.37-.38-.37A3.07,3.07,0,0,0,132,107.21Zm-6.74,27.26-1.07-.21.17.41-.43,0C124.51,135,124.93,135,125.27,134.47Zm9.27-9.66-.08-.13c-.16.1-.43.16-.46.3a5.1,5.1,0,0,0-.13,1l.24.12c-.26-1,.35-.52.82-.48C134.57,125.37,133.86,125.32,134.54,124.81ZM7.05,62.66l0,.22.5.27c0-.48,0-.92.6-.66.08,0,.27-.19.41-.29l-.1-.14ZM8.16,74.33H7.61c0,.41-.28.55-.92.38l.4.58ZM133,114.15c-.36-.37-.49,0-.68.27l-.48-.32.43.88Zm2,6.55-.64.69.83.23Zm-2.08-16.6a1.84,1.84,0,0,0-.39-.46,2.15,2.15,0,0,0-.58-.15l-.28.22c1.05-.14.49.44.59.68Zm.92-1.52-.07-.12-.79.38.56.7.12-.09-.21-.38Zm1.7,10.28-.32-.5a5.22,5.22,0,0,0-.18.56,3.32,3.32,0,0,0,0,.56Zm-4.11,10.06.56.93.53-.37ZM10,71.61l-.14-.19-1,.66.14.19Zm122.54,37.23h-.08l-.06.83,1.1-.56-.08-.15-.84.4Z" transform="translate(0.08 0.08)" />
<path style="fill:#333" d="M81.43,35.05V47.37c0,1-.18,1.15-1.14,1.15-.67,0-1.34,0-2,0a.89.89,0,0,1-1-.81,15.13,15.13,0,0,1-.15-2.6c.09-1.92.3-3.83.41-5.75a12.31,12.31,0,0,0-.1-2c0-.42-.2-.86-.71-.9s-.72.43-.8.81c-.25,1.3-.45,2.61-.62,3.93-.26,2-.47,3.93-.73,5.89a3.21,3.21,0,0,1-.32.88.88.88,0,0,1-.9.55c-.81,0-1.62,0-2.43,0a.89.89,0,0,1-1-.66,24.83,24.83,0,0,1-.68-3c-.29-2.18-.47-4.37-.74-6.56a4.41,4.41,0,0,0-.42-1.35.85.85,0,0,0-.61-.43.8.8,0,0,0-.57.49,4.63,4.63,0,0,0-.25,1.56c.1,2,.29,4,.39,5.94a20.31,20.31,0,0,1-.07,3c-.07.83-.38,1-1.21,1h-1.9c-.95,0-1.15-.2-1.15-1.14V22.68c0-.94.21-1.15,1.15-1.15.71,0,1.43,0,2.13,0A1,1,0,0,1,67,22.3q1.72,5.49,3.48,11c.27.86.54,1.73.83,2.6.12.36.25.88.73.77a1.26,1.26,0,0,0,.67-.78C74.2,31.42,75.62,27,77,22.48c.28-.9.34-.95,1.29-.95h2c.89,0,1.09.2,1.09,1.08Zm-1.82,5.22-.47.44.32.31.72-.83c-.66-.43-.71-.69-.33-1.35v.78h.22a1.13,1.13,0,0,0,0-.45,1.74,1.74,0,0,0-.38-.44.42.42,0,0,0-.13.09l-.7.77.21.55.44-.21Zm-12-10.17-.93.1.24,1.15.52-.65.35.85.2-.07Zm-2-2.59-.14.1a.74.74,0,0,0,1.14-.18l-.53-.52a1.47,1.47,0,0,0-.46.17C65.56,27.13,65.62,27.36,65.62,27.51Zm-1.32.37-.08.15c.11.25.23.49.32.74.17.49.5.56.83.22Zm2.16-3.22a5.24,5.24,0,0,0-1.06.14c-.06,0,0,.4,0,.61h.12l.26-.5.47.44Zm5.42,21.15,1.49.27-.13-.66Zm7.78-9.41.09,1.73C80.16,37.89,80.09,36.82,79.66,36.4Zm.29,9-1.2.73A.8.8,0,0,0,80,45.42Zm-.57-2,.17.19a1.83,1.83,0,0,0,.39-.51c0-.11-.13-.35-.26-.42s-.27.08-.44.14l.4.3ZM67.48,29.13l.73.18-.68-1h-.11ZM63.68,26l.6-.72s-.18,0-.24.05A4.75,4.75,0,0,0,63.68,26Z" transform="translate(0.08 0.08)" />
<path style="fill:#333" d="M59.24,101.51c0,2.68,0,5.36,0,8a8.17,8.17,0,0,1-2.14,5.88A7.91,7.91,0,0,1,50,117.7c-4.35-.59-6.91-3.66-6.94-8.21,0-5.34,0-10.67,0-16a8.53,8.53,0,0,1,2.46-6.42,7.23,7.23,0,0,1,4.21-2,8.24,8.24,0,0,1,7,2,7.17,7.17,0,0,1,2.36,5.05c.11,3.12,0,6.26,0,9.39Zm-5.07,0q0-4.08,0-8.15a3.13,3.13,0,0,0-1.55-3,3,3,0,0,0-4.55,2.88c-.05,5.47,0,10.94,0,16.42a2.88,2.88,0,0,0,1.17,2.48,3.07,3.07,0,0,0,3.3.27,2.8,2.8,0,0,0,1.64-2.68C54.18,107,54.17,104.24,54.17,101.49Zm.17-12.65-.88-.33v.92Zm-.68,25.42.92.43C54.44,113.82,54.4,113.81,53.66,114.26Zm-4.6,1.25,1.23-.36,0-.11-.71.1-.37-.5-.1.06Zm8.48-21.45.11,0-.37-1.21-.35.29Zm-11.6-1.5c.09-1.35.09-1.35-.42-1.37Zm10.53,1.16h.16l0-.92-.21,0A.89.89,0,0,0,56.47,93.72Z" transform="translate(0.08 0.08)" />
<path style="fill:#333" d="M134.39,9c.58.54,1.18,1.07,1.74,1.64a11,11,0,0,1,3.1,8.13q0,54.06,0,108.12a9.92,9.92,0,0,1-1.61,5.69c-2.34,3.47-5.53,5.52-9.83,5.53H19.42a11.15,11.15,0,0,1-6.88-2.33l-.32-.26s-.07-.09-.19-.25a4.29,4.29,0,0,1,.49.22,11.63,11.63,0,0,0,5.63,1.37H126a11.37,11.37,0,0,0,11.19-8.48,12.62,12.62,0,0,0,.45-3.55q0-53.64,0-107.28a12,12,0,0,0-3.18-8.2l-.22-.24Z" transform="translate(0.08 0.08)" />
<path style="fill:#333" d="M79.16,101.46v8.92a7.34,7.34,0,0,1-14.54,1.52,6.84,6.84,0,0,1-.14-1.42q0-9,0-18a7.34,7.34,0,1,1,14.68,0C79.17,95.42,79.16,98.44,79.16,101.46Zm-5,0c0-3,0-5.92,0-8.87a3.41,3.41,0,0,0-.55-1.76,2.22,2.22,0,0,0-2.61-.7,2.25,2.25,0,0,0-1.52,2.25c0,6,0,12.07,0,18.1a2.68,2.68,0,0,0,.63,1.59,2.28,2.28,0,0,0,2.67.52,2.09,2.09,0,0,0,1.38-2.15C74.18,107.45,74.17,104.45,74.18,101.46Zm2.87-3.53c-.78.61-.78.61-.29,1.46,0-.74.57-.69,1-.72a2.58,2.58,0,0,1-.17-.52,4,4,0,0,1,.13-.67c-.38.26-.76-.4-1.09.17Zm-10.38-1.8,1.25-.37v-.45l-.27.32c0-.1-.06-.25-.14-.29a2.4,2.4,0,0,0-.77-.29c-.1,0-.34.25-.32.36A3.62,3.62,0,0,0,66.67,96.13Zm10.66,11.6-.53.25c.45,0,.8-.13,1-.65a.76.76,0,0,0-.36-.9C76.89,106.91,76.88,107.08,77.33,107.73Zm-1.09,1.57H76l0,.68.72-.07Zm.48,2.15c-.06.43-.16.77.32.81l.25-.64Z" transform="translate(0.08 0.08)" />
<path style="fill:#333" d="M113.58,96.7c-.55,0-1.11,0-1.66,0a.86.86,0,0,1-1-.78c-.12-.72-.16-1.46-.25-2.18a23.33,23.33,0,0,0-.39-2.64,1.87,1.87,0,0,0-1.74-1.54,1.84,1.84,0,0,0-2.11,1.27c-1.05,2.91-1,5,1.34,6.85.41.32.8.65,1.21,1,1.23.92,2.49,1.81,3.69,2.77,3.33,2.64,4.34,6.08,3.4,10.18a7.67,7.67,0,0,1-2.86,4.84c-2.5,1.77-7.24,1.87-9.76,0a7.31,7.31,0,0,1-2.81-4.86,35.55,35.55,0,0,1-.31-4.38c0-.88.28-1.13,1.14-1.14h3.14c.71,0,1,.19,1.09.89.12.9.14,1.82.25,2.72a14.62,14.62,0,0,0,.36,2.1,2,2,0,0,0,3.8.27c1-2.52,1.22-5.22-1.22-7.06-1.31-1-2.66-1.92-4-2.87a13.27,13.27,0,0,1-3.26-3.17,8.77,8.77,0,0,1-1.21-6.33,14.11,14.11,0,0,1,.74-3.16,6.56,6.56,0,0,1,6-4.4,10.33,10.33,0,0,1,4.6.56,6.42,6.42,0,0,1,3.78,3.85,15.14,15.14,0,0,1,.81,6.26c0,.71-.36,1-1.06,1ZM103.81,94l-.84-.52a2.21,2.21,0,0,0-.23.61c0,.26.1.53.09.8s-.07.72-.11,1.12l1-.19.24.45.21-.09a.93.93,0,0,0-.48-.69,1.3,1.3,0,0,1-.47-.54,7.08,7.08,0,0,1-.21-1.06Zm5.07-6.45a2.47,2.47,0,0,0,.91,0c.26-.12.43-.42.65-.64-.11-.09-.27-.28-.32-.25a8.1,8.1,0,0,0-.75.5l-.56-.52-.15.21.41.25Zm4.34,24.32c.19-.6.41-1.18-.27-1.61l-.39.37c.07.17.23.4.18.48C112.28,111.76,112.94,111.64,113.22,111.82Zm-10-2.89-.89.27.13.18.17.24c-.48.22-.51.39-.19.7l.91-.51Zm7.89-4.62.07.16,1.63-.58-1.19-1-.16.07.28,1.08Zm3.14,4c-.17-.05-.28-.05-.3-.1-.13-.32-.4-.29-.54-.1s.07.41.18.59a4.75,4.75,0,0,0,.57.68l.25-1.65-.16,0Zm-.92-17.14-.2-.07a2,2,0,0,0,0,.74c.09.21.35.35.54.51s.31.22.46.33l.1-.13-.81-1-.11.08Zm-.5,22.62.49-1.12C112.36,112.94,112.26,113.12,112.78,113.77Zm-2.55,1.11c.39,1,.39,1,.65.85l-.45-1.3h-.56l-.06.16Zm-6.57-4.37-.1-.18c-.18,0-.51-.09-.54,0a11.11,11.11,0,0,0-.46,1.18l.24.14A1,1,0,0,1,103.66,110.51Zm3-22.64-.47-.55-.29.84.12.06Zm2.73,27.88.1.27.75-.17-.19-.44Zm4.12-26.33-.24,0a2.84,2.84,0,0,0,.08.66c0,.08.26.08.56.16Z" transform="translate(0.08 0.08)" />
<path style="fill:#333" d="M25.5,21.53H26c1.12,0,1.44.18,1.57,1.31.17,1.55.18,3.12.27,4.68.05.83.13,1.66.21,2.49a.71.71,0,0,0,.11.39c.2.24.42.58.67.62s.56-.34.6-.58c.22-1.13.37-2.26.51-3.4.17-1.44.25-2.88.49-4.3a1.78,1.78,0,0,1,2.62-1.1,1.27,1.27,0,0,1,.45.83c.41,2.6.79,5.21,1.17,7.81.06.38.16.81.58.75a1,1,0,0,0,.68-.66,30.08,30.08,0,0,0,.31-3c.09-1.42.08-2.85.24-4.27.11-1,.58-1.74,1.76-1.57a10.44,10.44,0,0,0,1.48,0c.74,0,1,.3.93,1-.13,1.36-.29,2.72-.45,4.08-.33,3-.67,6-1,8.92s-.67,5.87-1,8.8c-.12,1.06-.22,2.13-.36,3.19-.1.72-.35,1-1.07,1-.53,0-1.07,0-1.6,0A1.08,1.08,0,0,1,34,47.64c-.23-1.28-.43-2.58-.58-3.87-.19-1.67-.32-3.35-.49-5a1.62,1.62,0,0,0-.2-.73,5.14,5.14,0,0,0-.66-.74c-.23.24-.59.45-.66.73a22.11,22.11,0,0,0-.47,2.8c-.22,2.08-.4,4.18-.6,6.27a4.37,4.37,0,0,1-.2.68,1.08,1.08,0,0,1-1.1.81c-.63,0-1.26,0-1.89-.06-.46,0-.68-.37-.74-.86q-1-8.72-2-17.43l-.84-7.38c-.11-1,.12-1.29,1.14-1.3ZM37.63,38.31,37.15,38l.35-.63a5.3,5.3,0,0,0-.78.29.51.51,0,0,0-.16.37,2.82,2.82,0,0,0,0,.6Zm-10.07.77.14.86c.86.07.26-.75.64-1Zm-2-9.92-.14.24c.19.18.38.27.4.39.11.53.41.52.93.31-.55-.05-.57-.27-.39-.5Zm3.07,12.13-.13-.07a6.42,6.42,0,0,0-.64.53c-.05.06,0,.21,0,.32s.3,0,.34,0A8.06,8.06,0,0,0,28.64,41.29Z" transform="translate(0.08 0.08)" />
<path style="fill:#333" d="M102.21,35V22.67c0-1,.17-1.14,1.14-1.14.69,0,1.38,0,2.07,0a1.12,1.12,0,0,1,1.2.67c.51,1.14,1,2.27,1.44,3.44.79,2.2,1.49,4.43,2.27,6.63a7,7,0,0,0,.77,1.46c.13.18.51.4.66.33a1.39,1.39,0,0,0,.56-.67,1.43,1.43,0,0,0,0-.59V22.73c0-1,.2-1.2,1.22-1.2h2.13c.64,0,.9.27.9.9q0,12.58,0,25.18c0,.63-.25.89-.9.9s-1.54,0-2.31,0a1.46,1.46,0,0,1-1.52-.9c-.6-1.41-1.16-2.85-1.67-4.31-.66-1.88-1.24-3.79-1.9-5.68a5.32,5.32,0,0,0-.74-1.34.75.75,0,0,0-.63-.3c-.18,0-.35.33-.43.55a2,2,0,0,0-.07.7V47.43c0,.89-.19,1.09-1.07,1.09h-2.13c-.81,0-1-.21-1-1Zm4.42-4.38c.14.43.15.9.73.48l.23.67.18-.06-.3-1.21Zm7.43,13.15,0,.17-.59.13.75.35c0-.42.19-.84,0-1s-.62-.32-.92-.45l.29.76Zm.61-20.3-.23.05a1.76,1.76,0,0,1,.22.63,2.86,2.86,0,0,1-.27.73l.84.18,0-.11-.53-.37.72-.46-.57-.08Zm.34,4.22a1,1,0,0,0-.64-1.1l0,.79Zm-9.58,1.89A4.3,4.3,0,0,0,105,29a2.31,2.31,0,0,0-.53-.31l-.16.34.16-.08c.09.09.23.18.27.29C104.9,29.76,104.91,29.77,105.43,29.57Zm.69-1.86h-.54c.15.3.21.58.38.7s.39-.07.61-.12ZM114,29.22c-.13.38-.24.7-.34,1,0,.05,0,.16.07.16s.13,0,.2-.06c-.26-.64.46-.48.66-.78Zm-2.89,10.6,1.24-.08c0-.38-.2-.55-.53-.4A5.5,5.5,0,0,0,111.15,39.82Zm-5-13.49.12-.11-.4-.65c-.09.33-.78.2-.36.76C105.76,25.75,106,26.18,106.2,26.33Z" transform="translate(0.08 0.08)" />
<path style="fill:#333" d="M56.41,67V79.25c0,.89-.23,1.13-1.11,1.13-.69,0-1.38,0-2.07,0a1.22,1.22,0,0,1-1.3-.72,27.11,27.11,0,0,1-1.22-2.83c-.75-2.17-1.41-4.37-2.14-6.54a10,10,0,0,0-.88-1.87c-.15-.24-.52-.35-.78-.52-.15.3-.43.59-.43.9,0,1.92,0,3.84,0,5.77,0,1.59,0,3.17,0,4.76,0,.78-.26,1-1,1s-1.46,0-2.19,0-1-.24-1-1V54.79c0-1,.17-1.19,1.21-1.19.65,0,1.31,0,2,0a1.13,1.13,0,0,1,1.2.67c.48,1.07,1,2.12,1.36,3.22.79,2.22,1.5,4.46,2.28,6.68a7.84,7.84,0,0,0,.87,1.61.7.7,0,0,0,.59.27c.17,0,.34-.31.4-.51a3.28,3.28,0,0,0,.08-.89v-9.7c0-1.23.11-1.34,1.37-1.34h1.77c.81,0,1.07.25,1.07,1.06ZM46.59,62.6l.43.81.27-.39.32.7.16-.07-.34-1.15ZM53.9,76.23c.61-.91.59-1-.41-1.14l-.12.48.55.11v.17l-.63.08ZM54,56.89l1,.21.05-.11-.55-.34.65-.46c-.65.27-.47-.52-.86-.7C54.19,56,54.87,56.5,54,56.89Zm-9.66,4h.17c.08.11.21.2.24.32.14.49.18.52.66.35a3.17,3.17,0,0,0-.44-.68C44.79,60.73,44.5,60.41,44.35,60.93Zm9.08,1.42.11.07.84-.88-.51-.29Zm1-3.73c-.41.39-.39.44.34,1.09C55.41,59.12,54.21,59.12,54.45,58.62ZM46.21,59.9v-.23c-.17.07-.44.11-.48.22a.54.54,0,0,0,.18.5,2.3,2.3,0,0,0,.78-.07Z" transform="translate(0.08 0.08)" />
<path style="fill:#333" d="M14,127a5.35,5.35,0,0,1-1.66-3.69c0-.15,0-.31,0-.47V17.29A5.48,5.48,0,0,1,18,11.55q52.79,0,105.57,0a5.56,5.56,0,0,1,3.56,1.19c-.56,0-1-.09-1.39-.09H18.48a4.69,4.69,0,0,0-4.77,4.81q0,53.67,0,107.34A18.65,18.65,0,0,0,14,127Z" transform="translate(0.08 0.08)" />
<path style="fill:#333" d="M57.6,35.1c0,2.48,0,5,0,7.44A6.35,6.35,0,0,1,53,48.68a7.09,7.09,0,0,1-7.94-2.45,6.58,6.58,0,0,1-1.23-3.85c0-4.88-.06-9.75,0-14.63a6.41,6.41,0,0,1,5.06-6.49c4.72-1,8.65,1.81,8.68,6.82,0,2.34,0,4.68,0,7Zm-4.28.06c0-2.34,0-4.68,0-7a2.72,2.72,0,0,0-1-2.25,2.48,2.48,0,0,0-2.73-.29,2.54,2.54,0,0,0-1.46,2.47q0,7.05,0,14.1a2.83,2.83,0,0,0,.26,1.14,2.53,2.53,0,0,0,3,1.33,2.49,2.49,0,0,0,1.94-2.46C53.33,39.84,53.32,37.5,53.32,35.16ZM49,47.08l.75-.27L49,46.34Z" transform="translate(0.08 0.08)" />
<path style="fill:#333" d="M23.58,67c0-2.42,0-4.84,0-7.26a6.53,6.53,0,0,1,4.35-6.26A7,7,0,0,1,36,56a7.43,7.43,0,0,1,1.33,4.33c0,4.53,0,9.05,0,13.58a7,7,0,0,1-.17,1.77,6.55,6.55,0,0,1-6.49,5.19c-4.26.11-7.08-2.72-7.08-7Zm9.36,0v-6.9a2.68,2.68,0,0,0-1-2.24,2.45,2.45,0,0,0-2.68-.25,2.53,2.53,0,0,0-1.42,2.43q0,7,0,14a2.41,2.41,0,0,0,2.68,2.51A2.47,2.47,0,0,0,32.94,74ZM28.65,78.92l.91-.29-.91-.33Zm3.83-1.07.89.38C33.2,77.51,33.2,77.51,32.48,77.85Z" transform="translate(0.08 0.08)" />
<path style="fill:#333" d="M100.39,67V79.2c0,1-.2,1.18-1.17,1.18h-2c-.74,0-1.07-.24-1.1-1,0-.93,0-1.86.06-2.79a39.69,39.69,0,0,0,0-4.08c-.1-1.24-.73-1.67-2-1.67-.34,0-.67,0-1,0a1.38,1.38,0,0,0-1.41,1.56q0,3.33,0,6.66c0,1.08-.2,1.29-1.27,1.29H89.07c-1.41,0-1.49-.08-1.49-1.52V54.63c0-.77.27-1,1-1H90.7c.86,0,1.12.26,1.12,1.14v9.88c0,1.47.49,2,2,2,2.06,0,2.42-.36,2.42-2.41V54.7c0-.91.19-1.1,1.12-1.1h2c.81,0,1.06.25,1.06,1.07Z" transform="translate(0.08 0.08)" />
<path style="fill:#333" d="M33.76,104.25v11.61c0,1.1-.27,1.37-1.35,1.37H29.8c-.74,0-1-.3-1.06-1,0-.2,0-.4,0-.6,0-7.44,0-14.88,0-22.31,0-2.29-.72-2.72-2.92-2.74-.45,0-.91,0-1.36,0-.64-.06-.9-.36-.9-1q0-1.45,0-2.91c0-.73.32-1.06,1.05-1.06H38a.91.91,0,0,1,1,1c0,1,0,2,0,2.92,0,.71-.29,1-1,1s-1.57,0-2.36.08c-1.42.14-1.9.7-1.9,2.12Zm-2.61,5.8-.72.8c.51-.27.66,0,.75.43a4.91,4.91,0,0,0,.14-1.12S31.17,110.07,31.15,110.05ZM30,89l.09.18,1-.26c-.19-.15-.38-.12-.49-.21C30.08,88.27,30.22,88.88,30,89ZM31.1,113.1l.14,1.07c.14-.24.3-.4.32-.57C31.61,113.2,31.39,113,31.1,113.1Zm1.31-5.84.18-.18c-.47-.13-.15-1.12-.93-.89Zm.23-19.84-.15,0a5.8,5.8,0,0,0,.11.85c0,.08.24.1.35.13Z" transform="translate(0.08 0.08)" />
<path style="fill:#333" d="M86.75,35V22.75c0-1,.23-1.21,1.18-1.22H96.4c.8,0,1,.22,1,1s0,1.51,0,2.26-.23,1-.94,1-1.26,0-1.89,0a17.6,17.6,0,0,0-2.41.06,1.15,1.15,0,0,0-1,1.31c0,1.85,0,3.69,0,5.54A1.21,1.21,0,0,0,92.36,34c.84.06,1.69,0,2.54,0,.16,0,.32,0,.47,0,1.09,0,1.31.25,1.31,1.34,0,.66,0,1.31,0,2s-.26,1-1,1c-.57,0-1.15-.05-1.72-.05a11.47,11.47,0,0,0-1.76.07,1.16,1.16,0,0,0-1.06,1.23q0,1.69,0,3.39a1.27,1.27,0,0,0,1.35,1.3c.86,0,1.73,0,2.59,0a14,14,0,0,1,1.71,0,.71.71,0,0,1,.63.8c0,.87,0,1.75,0,2.62a.74.74,0,0,1-.82.81c-3,0-5.92,0-8.89,0-.72,0-.95-.29-.95-1.06Q86.75,41.24,86.75,35Zm2.14-2.28.49-.69h-.81a.23.23,0,0,0-.16.11c0,.05,0,.15,0,.18A5.15,5.15,0,0,0,88.89,32.73Zm.35,4.63-.09-.1-.88.37.44.54Z" transform="translate(0.08 0.08)" />
<path style="fill:#333" d="M85.2,101.38V86.85c0-1.06.27-1.34,1.32-1.34h2.61c.86,0,1.17.31,1.17,1.18v23.4a1.92,1.92,0,0,0,2.09,2.18c.67,0,1.35,0,2,0,.37,0,.74,0,1.12,0,1.18,0,1.45.31,1.46,1.49,0,.81,0,1.63,0,2.44s-.31,1.13-1.16,1.13H86.4c-.92,0-1.2-.29-1.2-1.21Zm8.72,14.3.19.07a3.15,3.15,0,0,0,.25-.81c0-.08-.36-.2-.57-.26s-.41.06-.52,0c-.41-.36-.64,0-1,.18l.54.21-.12.43,1-.59Zm-6.1-22.91.38.71.09,0V92Zm2.24,22.39-.82-1.09a2.14,2.14,0,0,0,.18.82c0,.13.08.33.16.35A1.1,1.1,0,0,0,90.06,115.16ZM86.9,87.6l0,.18.59.39.44-.87Zm3.77,28.33c.74,0,.76-.07.34-.92Zm-.47-2.82-1,.55C90.19,113.91,90.19,113.91,90.2,113.11Z" transform="translate(0.08 0.08)" />
<path style="fill:#333" d="M106.05,66.92V54.72c0-.88.24-1.12,1.13-1.12h8.35c.85,0,1.09.24,1.09,1.09s0,1.47,0,2.21-.27,1-.92,1-1.38,0-2.07,0a19.57,19.57,0,0,0-2.3.06,1.12,1.12,0,0,0-1,1.18c0,1.92,0,3.85,0,5.77,0,.79.54,1.2,1.46,1.24.63,0,1.26,0,1.89-.06s1,0,1.53,0a.72.72,0,0,1,.69.81c0,.85,0,1.71,0,2.56,0,.56-.3.84-.92.84-.89,0-1.78-.05-2.67-.06a3.78,3.78,0,0,0-.82.06,1.17,1.17,0,0,0-1.17,1.25q-.08,1.69,0,3.39c0,.82.56,1.27,1.48,1.29s2-.07,3.07-.11c.18,0,.36,0,.54,0,1,0,1.24.25,1.24,1.27,0,.72,0,1.43,0,2.15s-.28.88-.88.88q-4.41,0-8.82,0c-.62,0-.87-.32-.87-1Zm2-2.15.12-.07a.82.82,0,0,1,0-.17l.45-.46a1.46,1.46,0,0,0-.71,0,1.22,1.22,0,0,1-.27,0l.14.24Zm-.21,5.36.53-.85-.11-.06-.79.37Z" transform="translate(0.08 0.08)" />
<path style="fill:#333" d="M74.75,69.54V60c0-1.56-.49-2.05-2-2.1-.55,0-1.1,0-1.65-.07a.69.69,0,0,1-.68-.8c0-.84,0-1.67,0-2.5,0-.59.29-.89.87-.89h11.2c.59,0,.86.29.87.89,0,.83,0,1.66,0,2.5a.67.67,0,0,1-.68.79c-.61.06-1.22.06-1.83.09-1.37.06-1.86.57-1.86,2V79.18c0,1-.18,1.2-1.21,1.2h-2c-.8,0-1-.23-1-1Zm2.1,4.74-.66.64c.41-.21.49.09.66.36Z" transform="translate(0.08 0.08)" />
<path style="fill:#333" d="M30.49,118c.67,0,1.33,0,2,0,1.43-.06,2-.66,2-2.08v-23c0-1.16.42-1.62,1.59-1.67a13,13,0,0,1,1.53,0c1.48.1,2.13-.46,2.2-1.95,0-.77,0-1.55,0-2.35a.79.79,0,0,1,.81.85c0,1.07,0,2.15,0,3.22a.79.79,0,0,1-.73.81,8.26,8.26,0,0,1-1,.09c-.51,0-1,0-1.54,0-1.47.09-2,.71-2,2.19v23c0,.16,0,.32,0,.48a.91.91,0,0,1-1,.95c-1,0-2,0-3,0a3,3,0,0,1-.9-.35Z" transform="translate(0.08 0.08)" />
<path style="fill:#333" d="M59.5,89.88a8.51,8.51,0,0,1,1.28,4.53q0,8.45,0,16.91c0,4.84-3.76,8.18-8.71,7.78a27.6,27.6,0,0,1-2.81-.5l0-.23a2,2,0,0,1,.35,0c.14,0,.27.06.41.07,5.38.52,9.75-2.66,9.87-8.42s0-11.35,0-17A24.59,24.59,0,0,0,59.5,89.88Z" transform="translate(0.08 0.08)" />
<path style="fill:#333" d="M79.53,89.71a7.32,7.32,0,0,1,1.19,3.91v12.2c0,2.1,0,4.21,0,6.31a7.29,7.29,0,0,1-10.22,6.38s-.06-.05,0,0a23.22,23.22,0,0,0,3-.16,7.94,7.94,0,0,0,6.4-7.48c.07-6.33,0-12.66,0-19A16.16,16.16,0,0,0,79.53,89.71Z" transform="translate(0.08 0.08)" />
<path style="fill:#333" d="M41.29,22.72a.77.77,0,0,1,.76,1c-.12,1.12-.26,2.24-.38,3.36L40.53,37Q40,42,39.4,47q-.1.85-.18,1.71c0,.55-.29.93-.86,1a23,23,0,0,1-2.35,0c-.17,0-.33-.21-.49-.33l0-.19c.43,0,.87,0,1.3,0,1.19-.1,1.51-.47,1.64-1.67.37-3.39.76-6.77,1.14-10.16l1.11-9.92C40.93,25.84,41.11,24.31,41.29,22.72Z" transform="translate(0.08 0.08)" />
<path style="fill:#333" d="M37.57,57.32a6.55,6.55,0,0,1,1,3.39c0,5,0,10,0,15.06a5.78,5.78,0,0,1-1.62,4A6.94,6.94,0,0,1,31.32,82c-.82-.06-1.64-.27-2.46-.41l0-.19c.54,0,1.08.1,1.61.09a7.37,7.37,0,0,0,6-3,6.37,6.37,0,0,0,1.35-3.9c.06-5,0-10,0-14.93A17.33,17.33,0,0,0,37.57,57.32Z" transform="translate(0.08 0.08)" />
<path style="fill:#333" d="M49.07,49.43a7.85,7.85,0,0,0,4.65-.35,6.59,6.59,0,0,0,4.43-6c.17-2.53.09-5.07.09-7.61,0-2.7,0-5.4-.07-8.09a14.66,14.66,0,0,0-.34-2.12,7.12,7.12,0,0,1,1.11,3.85c0,4.82.06,9.64,0,14.46-.06,4.53-3.59,7.11-7.94,6.55a16.6,16.6,0,0,1-1.94-.47Z" transform="translate(0.08 0.08)" />
<path style="fill:#333" d="M113.7,49.18c.63,0,1.26,0,1.88,0,1-.07,1.65-.44,1.64-1.71,0-8,0-16,0-23.93v-.76l.19-.11a2.57,2.57,0,0,1,.5.65,1.78,1.78,0,0,1,.06.7V48.36a5.72,5.72,0,0,1,0,.59.72.72,0,0,1-.78.72c-1,0-1.9,0-2.85,0a2.18,2.18,0,0,1-.68-.28Z" transform="translate(0.08 0.08)" />
<path style="fill:#333" d="M83.9,54.76c.5.1.72.33.72.74,0,.91,0,1.83,0,2.74a.67.67,0,0,1-.72.71c-.59,0-1.18,0-1.77.06-1.42.09-1.86.57-1.86,2V80.32c0,1-.17,1.18-1.17,1.18-.71,0-1.42,0-2.13,0a3.3,3.3,0,0,1-.82-.24l0-.2.42-.06c.11,0,.23,0,.35,0,2.11.13,2.61-.33,2.61-2.44q0-9.34,0-18.69c0-1.09.29-1.42,1.38-1.47.47,0,.94,0,1.42,0a1.29,1.29,0,0,0,1.5-1.25A22.12,22.12,0,0,0,83.9,54.76Z" transform="translate(0.08 0.08)" />
<path style="fill:#333" d="M57.23,54.71a7.34,7.34,0,0,1,.48.75,1.21,1.21,0,0,1,0,.47v24.4c0,1-.15,1.17-1.16,1.17-.79,0-1.58,0-2.37,0a2.69,2.69,0,0,1-.77-.29L53.5,81c.64,0,1.3,0,1.94,0,1.22-.11,1.57-.53,1.57-1.75V54.84Z" transform="translate(0.08 0.08)" />
<path style="fill:#333" d="M101.19,54.71a4.58,4.58,0,0,1,.5.74,1.68,1.68,0,0,1,0,.64v24.1c0,1.2-.12,1.31-1.34,1.31-.67,0-1.34,0-2,0a3.11,3.11,0,0,1-.8-.26l.06-.23h.54a13.4,13.4,0,0,0,1.42,0c1-.11,1.37-.55,1.37-1.56V54.84Z" transform="translate(0.08 0.08)" />
<path style="fill:#333" d="M91.69,111.47a3.78,3.78,0,0,1-.55-.73,2,2,0,0,1-.12-.81V87.49c0-.17,0-.35,0-.54a.71.71,0,0,1,.8.64,3.35,3.35,0,0,1,0,.71v23.06Z" transform="translate(0.08 0.08)" />
<path style="fill:#333" d="M106.29,118.54c1,0,1.92.06,2.88,0,4.11-.3,6.64-2.49,7.53-6.54a10.77,10.77,0,0,0-.09-6.26,1.62,1.62,0,0,1,0-.26,6.6,6.6,0,0,1,1.23,3.11,12,12,0,0,1-1.15,7,6.58,6.58,0,0,1-5.55,3.51,10.17,10.17,0,0,1-4.21-.35c-.23-.07-.46-.17-.68-.26Z" transform="translate(0.08 0.08)" />
<path style="fill:#333" d="M82.28,22.67a4.79,4.79,0,0,1,.46.68,1.65,1.65,0,0,1,0,.59V48.46c0,1.09-.14,1.21-1.24,1.22-.69,0-1.39,0-2.07,0a2.67,2.67,0,0,1-.79-.28l.06-.21h1.52c1.33,0,1.81-.52,1.81-1.85V22.77Z" transform="translate(0.08 0.08)" />
<path style="fill:#333" d="M117.47,54.71c.16.28.44.54.46.83.06.86,0,1.74,0,2.61a.74.74,0,0,1-.66.79,14.92,14.92,0,0,1-2.11.2c-.66,0-1.33-.15-2-.14-1.13,0-1.58.44-1.57,1.45,0,1.62,0,3.24,0,4.88-.5.08-.7-.18-.7-.59,0-1.86,0-3.72,0-5.59,0-.67.64-.77,1.14-.79,1,0,2,0,3.07,0,.19,0,.39.05.59.05a1.25,1.25,0,0,0,1.46-1.15c.12-.81.11-1.64.15-2.47Z" transform="translate(0.08 0.08)" />
<path style="fill:#333" d="M32,38.15a12.93,12.93,0,0,1,.18,6.11c-.26,1.56-.53,3.11-.79,4.67a.77.77,0,0,1-.83.75c-.66,0-1.33,0-2,0-.25,0-.48-.22-.72-.34l.06-.14h1.21a1.42,1.42,0,0,0,1.56-1.44C31.12,44.58,31.57,41.43,32,38.15Z" transform="translate(0.08 0.08)" />
<path style="fill:#333" d="M92.48,33.4c-.54,0-.69-.3-.69-.68,0-1.84,0-3.69,0-5.53,0-.67.53-.83,1-.86a23.21,23.21,0,0,1,3.12,0c1.53.14,2.12-.31,2.17-1.87,0-.57,0-1.14,0-1.74a.61.61,0,0,1,.64.69,24.85,24.85,0,0,1,0,2.73,1,1,0,0,1-.64.71,6.9,6.9,0,0,1-1.87.23A15.74,15.74,0,0,1,94.16,27c-1.09-.11-1.66.37-1.67,1.47,0,1.43,0,2.85,0,4.28Z" transform="translate(0.08 0.08)" />
<path style="fill:#333" d="M71.38,49.19c.54,0,1.08,0,1.62,0,1.28,0,1.68-.37,1.89-1.62q.77-4.53,1.56-9.06a1.23,1.23,0,0,1,.16-.44c0,2.72.24,5.45-.45,8.14-.22.88-.4,1.78-.57,2.67-.11.54-.36.83-1,.8-.85,0-1.7,0-2.54,0a3,3,0,0,1-.78-.26Z" transform="translate(0.08 0.08)" />
<path style="fill:#333" d="M97.75,113.61a.93.93,0,0,1,.82,1q0,1.49,0,3a1,1,0,0,1-1.1,1c-3.16,0-6.31,0-9.47,0a4.22,4.22,0,0,1-1.15-.35l.05-.22.61,0h8.17c1.39,0,2-.54,2.06-1.95C97.79,115.25,97.75,114.46,97.75,113.61Z" transform="translate(0.08 0.08)" />
<path style="fill:#333" d="M136.11,86.14a2.93,2.93,0,0,1,.12.75c0,.12-.29.21-.44.3l-.46.26c-.29.18-.44.62-.9.48,0,0-.13,0-.14.09,0,.47-.28.57-.71.63a3,3,0,0,0-.94.53l-.32.62.68.5c.43-.09.68-.5.71-1.27l.4.53.69-.78.1.31c.23-.89.84-.57,1.38-.52l-.95.66.42.51c-.11.09-.24.27-.32.25a2,2,0,0,0-1.61.27c-.35.2-.91,0-1,.72-.6-.33-.74.11-1,.53l.63.26-.58.61-.28-.82-.35.19.24.32-.32.53-.15,0c0-.4-.25-.87-.11-1.19s.64-.4,1.06-.64l-1.05.07,0-.21,1.11-.37,0-.1-.3,0v-.65l-.7.84c.05-.44-.21-.8.38-1,.28-.09.71-.26.53-.72l-1.21-.4c.32-.31.51-.59.77-.7a1.25,1.25,0,0,0,.88-1c.75.43,1.05-.29,1.67-.6l-.21.85a6.51,6.51,0,0,0-1,.48,5.09,5.09,0,0,0-.69.7,2.84,2.84,0,0,0,1.07.26c.34-.07.61-.43.92-.65.08-.06.19-.06.28-.11l1-.53c.35-.19.73-.34.47-.91Z" transform="translate(0.08 0.08)" />
<path style="fill:#333" d="M47.31,68.91a11.63,11.63,0,0,1,.44,2.14c0,3.11,0,6.23,0,9.34,0,.93-.18,1.11-1.1,1.11-.75,0-1.5,0-2.25,0a3,3,0,0,1-.79-.27l.06-.24c.64,0,1.28,0,1.91,0,1.07-.09,1.45-.54,1.45-1.61q0-4.89,0-9.76V69Z" transform="translate(0.08 0.08)" />
<path style="fill:#333" d="M95.37,71.93l-.83.1a1.37,1.37,0,0,0-1.39,1.57q0,3.39,0,6.78c0,.91-.21,1.12-1.11,1.12-.75,0-1.5,0-2.25,0a3.11,3.11,0,0,1-.8-.26L89,81h.6A14.34,14.34,0,0,0,91.1,81a1.32,1.32,0,0,0,1.31-1.52v-6.6c0-1.13.28-1.4,1.4-1.4S95,71.44,95.37,71.93Z" transform="translate(0.08 0.08)" />
<path style="fill:#333" d="M116.47,67.17a.78.78,0,0,1,.72.81c0,.85,0,1.7,0,2.56,0,.65-.47.87-1,.9-.9,0-1.81,0-2.71,0-1.47-.06-2,.39-2,1.87,0,.71,0,1.42,0,2.16-.41,0-.6-.21-.61-.61,0-1.09,0-2.19,0-3.27a1,1,0,0,1,.64-.7,19.26,19.26,0,0,1,2.41-.12s.07,0,.11,0c1.89.29,2.44-.19,2.45-2.35C116.54,68,116.5,67.63,116.47,67.17Z" transform="translate(0.08 0.08)" />
<path style="fill:#333" d="M103.67,49.17c.57,0,1.13,0,1.7,0,1.24-.06,1.7-.54,1.7-1.77V37l.21,0a8.71,8.71,0,0,1,.47,1.89c0,3.24,0,6.49,0,9.74,0,.87-.19,1.06-1,1.06s-1.54,0-2.31,0a3.56,3.56,0,0,1-.81-.24Z" transform="translate(0.08 0.08)" />
<path style="fill:#333" d="M92.43,43.58c-.47,0-.64-.24-.64-.62,0-1.09,0-2.18,0-3.27a.71.71,0,0,1,.7-.75c.82-.07,1.64-.07,2.47-.08.23,0,.47.06.7.07a1.36,1.36,0,0,0,1.62-1.4c.06-.74,0-1.49,0-2.27A.67.67,0,0,1,98,36c0,.89,0,1.79,0,2.67a1,1,0,0,1-.56.73,5.08,5.08,0,0,1-1.56.23,14,14,0,0,1-1.71-.11,1.36,1.36,0,0,0-1.7,1.35c-.07.78,0,1.58,0,2.37C92.45,43.34,92.44,43.45,92.43,43.58Z" transform="translate(0.08 0.08)" />
<path style="fill:#333" d="M112.63,97.51c.67,0,1.33,0,2,0a6.18,6.18,0,0,0,1.22-.16,1.47,1.47,0,0,0,1.24-1.63,19.26,19.26,0,0,0-.58-6,5.85,5.85,0,0,1,1.14,2.85c.18,1.46.24,3,.3,4.43,0,.74-.31,1-1,1.06-1.14,0-2.29,0-3.43,0a3,3,0,0,1-.94-.36Z" transform="translate(0.08 0.08)" />
<path style="fill:#333" d="M67.7,38.25a29.68,29.68,0,0,1,.47,3.37c.07,2.33,0,4.67,0,7,0,.85-.2,1-1.06,1s-1.5,0-2.24,0a2.67,2.67,0,0,1-.79-.28l.06-.21c.54,0,1.08,0,1.63,0,1.21,0,1.7-.55,1.7-1.78V38.26Z" transform="translate(0.08 0.08)" />
<path style="fill:#333" d="M93.14,65.92c-.66-.19-.72-.65-.73-1.14v-10a.77.77,0,0,1,.73.84C93.15,59,93.14,62.43,93.14,65.92Z" transform="translate(0.08 0.08)" />
<path style="fill:#333" d="M107.54,81h8.23a1.22,1.22,0,0,0,1.4-1.15c.12-.81.1-1.65.15-2.5a.67.67,0,0,1,.62.73c0,.89,0,1.79,0,2.68a.71.71,0,0,1-.8.76c-3,0-6,0-8.94,0a2.49,2.49,0,0,1-.74-.28Z" transform="translate(0.08 0.08)" />
<path style="fill:#333" d="M88.37,49.16h8.1A1.32,1.32,0,0,0,98,47.87,15.91,15.91,0,0,0,98.09,46c0-.17,0-.35,0-.54.51,0,.65.32.66.7q0,1.36,0,2.73a.69.69,0,0,1-.75.74q-4.5,0-9,0a1.89,1.89,0,0,1-.69-.3Z" transform="translate(0.08 0.08)" />
<path style="fill:#333" d="M109.32,90.92c-1.41.6-1.65,1.86-1.83,3.13-.1.69-.11,1.4-.16,2.18a2.83,2.83,0,0,1-.8-2.09,6.93,6.93,0,0,1,.59-3.11A1.21,1.21,0,0,1,109.32,90.92Z" transform="translate(0.08 0.08)" />
<path style="fill:#333" d="M72,35.94,67.8,22.81l.18-.08a3.18,3.18,0,0,1,.35.62q1.92,6,3.8,11.93a3.08,3.08,0,0,1,.05.61Z" transform="translate(0.08 0.08)" />
<path style="fill:#333" d="M21.38,4.65,19.09,6.17c-.31.2-.61.41-.93.59-.78.43-1.59.82-2.35,1.28-1.36.83-2.7,1.72-4.05,2.56a1.73,1.73,0,0,1-.86.24c3.33-2.35,6.83-4.41,10.32-6.45Z" transform="translate(0.08 0.08)" />
<path style="fill:#333" d="M35.34,10,36,9.18a5.53,5.53,0,0,0,1-.36Q40,7,43.11,5.22c.08,0,.19-.09.23-.17.37-.65,1-.53,1.59-.36-.8.43-1.62.85-2.4,1.32-.62.36-1.2.79-1.81,1.18-.34.22-.67.43-1,.62-.92.48-1.85.94-2.77,1.41-.19.1-.35.25-.54.34S35.76,9.83,35.34,10Z" transform="translate(0.08 0.08)" />
<path style="fill:#333" d="M38.21,9.81a1.21,1.21,0,0,1,.16-.16c1.32-.8,2.66-1.59,4-2.4.61-.38,1.19-.81,1.8-1.18.37-.22.78-.34,1.16-.55s.89-.56,1.37-.8a4.83,4.83,0,0,1,1-.26l0,.15c-.12.08-.24.17-.37.24L43.49,7.12c-.45.27-1,.35-1.32.92-.17.31-.72.4-1.09.6-.57.32-1.11.69-1.69,1a7.12,7.12,0,0,1-1.11.34Z" transform="translate(0.08 0.08)" />
<path style="fill:#333" d="M14.53,10l5.06-2.95c1.31-.77,2.61-1.55,3.93-2.3a6.09,6.09,0,0,1,1.07-.35l.07.15c-.07,0-.12.13-.19.14A7.2,7.2,0,0,0,22,6.08c-.7.43-1.45.79-2.15,1.21s-1.19.81-1.8,1.19-1.5.93-2.29,1.32A4.89,4.89,0,0,1,14.53,10Z" transform="translate(0.08 0.08)" />
<path style="fill:#333" d="M102.1,9.81c3-1.88,5.93-3.8,9.05-5.43l.15.28c-1.52.88-3.07,1.73-4.57,2.66A17.69,17.69,0,0,1,102.1,9.81Z" transform="translate(0.08 0.08)" />
<path style="fill:#333" d="M15.84,4.53l-9.28,5.6-.1-.08c.15-.23.25-.54.46-.67.49-.31,1-.53,1.55-.8A2.44,2.44,0,0,0,8.9,8.3,4.36,4.36,0,0,1,9.3,8c.64-.37,1.3-.71,1.93-1.08s1.44-1,2.21-1.33S14.82,4.48,15.84,4.53Z" transform="translate(0.08 0.08)" />
<path style="fill:#333" d="M114.16,4.65c-2.9,1.74-5.79,3.48-8.7,5.2a.71.71,0,0,1-.56,0C108,8.05,110.86,6,114,4.4Z" transform="translate(0.08 0.08)" />
<path style="fill:#333" d="M28.28,22.69c.15.22.4.43.43.67.18,1.57.35,3.14.44,4.71a4.61,4.61,0,0,1-.35,1.8l-.74-7.09Z" transform="translate(0.08 0.08)" />
<path style="fill:#333" d="M9.73,9.77c0-.11.07-.28.17-.34.62-.39,1.27-.76,1.9-1.14L13.94,7c.61-.36,1.22-.71,1.83-1.08s1.36-.85,2.05-1.25a3.26,3.26,0,0,1,.69-.22l.08.17c-.22.13-.44.24-.66.38L16.49,6c-.19.13-.34.32-.54.43-1.37.77-2.76,1.52-4.13,2.29-.52.3-1,.64-1.54.93a2,2,0,0,1-.56.13Z" transform="translate(0.08 0.08)" />
<path style="fill:#333" d="M26.57,5c-.08.1-.13.23-.23.29-.75.49-1.51,1-2.26,1.44l0,0c-1.33.25-2.15,1.43-3.39,1.85a9.19,9.19,0,0,0-1.4.93,4,4,0,0,1-1.18.4,81.65,81.65,0,0,1,8.37-5.1Z" transform="translate(0.08 0.08)" />
<path style="fill:#333" d="M53,4.54c-.41.68-8.39,5.34-9.07,5.31C47.05,8,49.94,6.09,53,4.54Z" transform="translate(0.08 0.08)" />
<path style="fill:#333" d="M107.81,9.7l9-5.16c.08,0,.23,0,.39.09-1.53.91-3,1.86-4.6,2.71A36.76,36.76,0,0,1,107.94,10Z" transform="translate(0.08 0.08)" />
<path style="fill:#333" d="M6.43,42.59l-.26-.15,1.48-.51-.19-.58.13-.06.29.61,2.54-1.53v1.15l-.86.25-.11-.41L6.35,43.5c-.51-.54-.64.46-1.19.43C5.35,43.23,6.05,43.09,6.43,42.59Z" transform="translate(0.08 0.08)" />
<path style="fill:#333" d="M34.4,22.69c.15.22.38.42.43.66.25,1.4.51,2.8.67,4.21a13.28,13.28,0,0,1-.07,2.09h-.19l-1-6.88Z" transform="translate(0.08 0.08)" />
<path style="fill:#333" d="M40.23,5.37c-.29.65-7.08,4.53-7.77,4.49A59.6,59.6,0,0,1,40.23,5.37Z" transform="translate(0.08 0.08)" />
<path style="fill:#333" d="M76.39,4.69c-3,1.76-5.87,3.62-8.87,5.31l-.14-.24L76.2,4.41Z" transform="translate(0.08 0.08)" />
<path style="fill:#333" d="M106.57,107.39c.65.23.73.76.78,1.25.09.8.09,1.61.14,2.42,0,.37,0,.75.07,1.12C106.77,111.75,106.33,109.68,106.57,107.39Z" transform="translate(0.08 0.08)" />
<path style="fill:#333" d="M136.33,72.7c-.12.18-.2.42-.37.54-.63.47-1.28.92-2,1.34-.37.24-.81.38-1.2.6a15.31,15.31,0,0,1-1.9,1,2.84,2.84,0,0,1,.27-.52c.19-.23.42-.44.64-.66a.37.37,0,0,1,.23-.1,1.58,1.58,0,0,0,1.46-.68,1.75,1.75,0,0,1,1.18-.77,4.9,4.9,0,0,0,1.53-.8Z" transform="translate(0.08 0.08)" />
<path style="fill:#333" d="M32.91,4.65,24.36,9.83c-.11.07-.27,0-.4.06l-.08-.15L32.76,4.4Z" transform="translate(0.08 0.08)" />
<path style="fill:#333" d="M59.09,9.48a18.81,18.81,0,0,1,1.6-1.09c.94-.53,1.92-1,2.88-1.5a3.18,3.18,0,0,0,.37-.27,3.59,3.59,0,0,1,.36-.32c1.08-.59,2.16-1.18,3.25-1.76.06,0,.15,0,.27.09l-8.57,5.1Z" transform="translate(0.08 0.08)" />
<path style="fill:#333" d="M136.31,24.2c-.12.16-.21.38-.37.48-1.34.83-2.69,1.63-4.05,2.43a7.36,7.36,0,0,1-.86.35l-.14-.13a1.46,1.46,0,0,1,.35-.45c1.3-.81,2.61-1.61,3.94-2.38a7,7,0,0,1,1-.4Z" transform="translate(0.08 0.08)" />
<path style="fill:#333" d="M131,71.57a.91.91,0,0,1,.42-1.28c.67-.38,1.36-.75,2-1.14.11-.06.18-.2.28-.29a2.37,2.37,0,0,1,.69-.51,2.47,2.47,0,0,0,1.41-.95c0-.07.16-.08.45-.19-.11.39-.1.73-.27.87a10.9,10.9,0,0,1-1.57,1.08c-.61.34-1.27.6-1.9.92-.38.19-.76.39-1.13.61-.09.06-.12.22-.17.33S131.15,71.33,131,71.57Z" transform="translate(0.08 0.08)" />
<path style="fill:#333" d="M21.75,9.47c.52-.64,7.24-4.64,7.92-4.57L21.85,9.63Z" transform="translate(0.08 0.08)" />
<path style="fill:#333" d="M27.54,9.36,29.3,8.25c.43-.27.86-.56,1.31-.83s.9-.47,1.33-.75c1-.63,2-1.3,3-1.91A4.63,4.63,0,0,1,36,4.42c-.12.21-.14.29-.19.32-.64.34-1.3.65-1.93,1-.32.19-.58.47-.89.67-.7.46-1.4.92-2.13,1.34s-1.51.78-2.25,1.18a.87.87,0,0,0-.27.3C28.14,9.63,28.15,9.64,27.54,9.36Z" transform="translate(0.08 0.08)" />
<path style="fill:#333" d="M99.08,9.82l8.09-4.91C106.93,5.66,99.85,9.92,99.08,9.82Z" transform="translate(0.08 0.08)" />
<path style="fill:#333" d="M136.32,78.05a2.4,2.4,0,0,1-.6.55c-.35.17-.64.3-.46.8l-.34-.38-.14.64c-.69-.54-1.06.17-1.56.41s-.71.81-1.11.42l-1.07.85-.13-.13c.57-.22.57-.91,1.2-1.14a21.92,21.92,0,0,0,2.47-1.24c.29-.16.49-.47.77-.64a6,6,0,0,1,.82-.36Z" transform="translate(0.08 0.08)" />
<path style="fill:#333" d="M136.22,65.58c0,.62-.39,1-1.08,1.36-.86.4-1.68.89-2.52,1.35a9.37,9.37,0,0,0-1,.59,6.45,6.45,0,0,0-.61.58.49.49,0,0,1,.18-.83c.61-.35,1.23-.69,1.83-1.06C134.11,66.93,135.13,66.27,136.22,65.58Z" transform="translate(0.08 0.08)" />
<path style="fill:#333" d="M5.16,40.28c.54-1.06,1.72-1.17,2.56-1.76s1.75-1.15,2.66-1.75c.17.4.12.63-.23.82-.82.44-1.63.9-2.43,1.39a3.61,3.61,0,0,0-.58.6Z" transform="translate(0.08 0.08)" />
<path style="fill:#333" d="M130.87,72.66a2.86,2.86,0,0,1,.42-.5,9.72,9.72,0,0,1,1-.69c.44-.26.92-.47,1.34-.76a5.67,5.67,0,0,0,.72-.74c.74.35,1-1,2-.71-.63,1-1.77,1.22-2.61,1.81s-1.79,1.17-2.68,1.74Z" transform="translate(0.08 0.08)" />
<path style="fill:#333" d="M95.75,8.58c.18-.2.31-.47.52-.6,1-.6,2-1.15,3-1.75.83-.49,1.63-1,2.47-1.53a3.1,3.1,0,0,1,.75-.22l.08.16-1.38.83c-1,.63-2,1.29-3,1.88-.78.45-1.62.82-2.44,1.22Z" transform="translate(0.08 0.08)" />
<path style="fill:#333" d="M11.5,12.24l-2,1.29c-.81.53-1.6,1.08-2.43,1.58A12.69,12.69,0,0,1,5.28,16c.52-.73,4.32-3.16,6.09-3.89Z" transform="translate(0.08 0.08)" />
<path style="fill:#333" d="M136.3,22.52,131,26l-.05-.67,5.22-3.07Z" transform="translate(0.08 0.08)" />
<path style="fill:#333" d="M130.84,74.39c.17-.22.29-.51.51-.64,1.43-.85,2.89-1.66,4.33-2.5a3.5,3.5,0,0,0,.51-.44l.15.09c-.14.23-.22.54-.42.66-1.27.82-2.57,1.6-3.86,2.38-.35.21-.71.38-1.07.57Z" transform="translate(0.08 0.08)" />
<path style="fill:#333" d="M131.4,77.7l.22,0v.12l-.64,0-.1-.2a9.38,9.38,0,0,0,1.72-1.15c.49-.52,1.18-.63,1.69-1.08a18,18,0,0,1,1.88-1.23c0,.17.09.28.07.3-.44.39-.61,1.09-1.34,1.12a.68.68,0,0,0-.33.11Z" transform="translate(0.08 0.08)" />
<path style="fill:#333" d="M136.31,25.83c-.11.17-.18.41-.33.51-.65.41-1.33.76-2,1.14-1,.59-2,1.19-3.11,1.72.12-.21.19-.49.37-.61,1.12-.7,2.27-1.38,3.41-2.05.5-.29,1-.55,1.52-.83Z" transform="translate(0.08 0.08)" />
<path style="fill:#333" d="M130.88,60.29a44.69,44.69,0,0,1,5.42-3.21c-.09.16-.13.4-.27.49-1.66,1-3.32,2-5,3Z" transform="translate(0.08 0.08)" />
<path style="fill:#333" d="M119.57,9.86a95.73,95.73,0,0,1,8.49-5C125.22,6.47,122.57,8.47,119.57,9.86Z" transform="translate(0.08 0.08)" />
<path style="fill:#333" d="M53.69,9.54c1.12-1.13,7.74-5,8.29-4.94Z" transform="translate(0.08 0.08)" />
<path style="fill:#333" d="M136.32,64.08c-.12.18-.21.43-.38.54-1,.59-2,1.13-3,1.72-.33.19-.6.48-.92.68a1,1,0,0,1-.65.11A31.94,31.94,0,0,1,136.15,64Z" transform="translate(0.08 0.08)" />
<path style="fill:#333" d="M44.56,8c.17-.64.8-.75,1.25-1,.27-.17.56-.29.83-.45,1-.62,2.08-1.25,3.13-1.86a1.78,1.78,0,0,1,.6-.12c0,.1,0,.13,0,.13-.69.28-1.12,1-1.89,1.18A5.91,5.91,0,0,0,47,6.71c-.68.43-1.37.84-2.06,1.24a.89.89,0,0,1-.4,0Z" transform="translate(0.08 0.08)" />
<path style="fill:#333" d="M10.51,42.12c-.11.18-.18.41-.33.51-.8.51-1.61,1-2.41,1.48a3,3,0,0,0-.49.54l-.08-.06L7,45.07,6.87,45,7,44.54l-1.72,1-.13-.18A2.44,2.44,0,0,1,5.54,45l1.91-1.16A5,5,0,0,1,8,43.61c.27-.12.6-.17.35-.61,0,0,.23-.33.26-.31.65.32,1.06,0,1.47-.46a1.81,1.81,0,0,1,.32-.22Z" transform="translate(0.08 0.08)" />
<path style="fill:#333" d="M136.32,55.36a2.15,2.15,0,0,1-.43.61c-.92.58-1.85,1.13-2.79,1.66-.7.39-1.42.72-2.17,1a13.85,13.85,0,0,1,2.49-1.8l2.72-1.67Z" transform="translate(0.08 0.08)" />
<path style="fill:#333" d="M136.22,58.68a.62.62,0,0,1-.35.82c-1.57.89-3.12,1.82-4.68,2.73-.05,0-.11,0-.3,0,.12-.19.2-.45.38-.56.63-.39,1.3-.72,1.94-1.11C134.21,59.94,135.19,59.32,136.22,58.68Z" transform="translate(0.08 0.08)" />
<path style="fill:#333" d="M136.22,76c.1.69-.33.9-.73,1.15s-.63.53-1,.59c-.87.13-1.32,1-2.12,1.16-.09,0-.2-.05-.4-.1C133.25,77.58,134.85,77.06,136.22,76Z" transform="translate(0.08 0.08)" />
<path style="fill:#333" d="M5.27,14.29c.34-.92,1.25-1.16,1.93-1.64a8.74,8.74,0,0,1,2.45-1,3.74,3.74,0,0,1-.63.68c-.69.43-1.42.82-2.14,1.21C6.35,13.78,5.81,14,5.27,14.29Z" transform="translate(0.08 0.08)" />
<path style="fill:#333" d="M10.52,24.93a2.3,2.3,0,0,1-.39.43c-.73.42-1.49.79-2.22,1.23-.53.32-1,.72-1.55,1.06a3.3,3.3,0,0,1-1.17.49c1.53-1.43,3.46-2.24,5.18-3.38Z" transform="translate(0.08 0.08)" />
<path style="fill:#333" d="M107.76,23l3.93,10.09-.19.08-3.94-10.08Z" transform="translate(0.08 0.08)" />
<path style="fill:#333" d="M136.21,81.31v1.08a1.51,1.51,0,0,0-1.88.83c-.8-.45-.81.47-1.19.71l-.06-.14c-.25.08-.5.14-.73.24s-.49.23-.73.35l-.1-.19Z" transform="translate(0.08 0.08)" />
<path style="fill:#333" d="M136.35,29.35c-.17.19-.29.45-.5.57-.81.47-1.66.89-2.47,1.36-.38.21-.7.51-1.06.74s-.82.48-1.3.76c0-.55,2.87-2.43,5.2-3.54Z" transform="translate(0.08 0.08)" />
<path style="fill:#333" d="M58.87,4.67,52,8.93l-.17-.28,7-4.19Z" transform="translate(0.08 0.08)" />
<path style="fill:#333" d="M130.9,34.44c.07-.17.09-.29.15-.33a16.1,16.1,0,0,1,3.37-2.06c.28-.11.48-.4.74-.58s.65-.39,1-.58l.17.2a2.56,2.56,0,0,1-.46.52c-.85.51-1.74,1-2.6,1.49-.7.4-1.38.83-2.06,1.25A2.74,2.74,0,0,1,130.9,34.44Z" transform="translate(0.08 0.08)" />
<path style="fill:#333" d="M10.48,28.34A9.52,9.52,0,0,1,8,30.12c-.9.5-1.79,1-2.69,1.57,0-.11-.09-.17-.08-.18.68-.49,1.35-1,2.06-1.47s1.7-1,2.54-1.48c.2-.12.38-.26.56-.38Z" transform="translate(0.08 0.08)" />
<path style="fill:#333" d="M47.71,55,51.63,65l-.19.08L47.51,55Z" transform="translate(0.08 0.08)" />
<path style="fill:#333" d="M136.31,32.79a2.14,2.14,0,0,1-.32.5,3,3,0,0,1-.56.31c-.7.41-1.4.81-2.09,1.23s-1.54.92-2.36,1.3a7.72,7.72,0,0,1,2.48-1.79c.89-.57,1.81-1.1,2.72-1.65Z" transform="translate(0.08 0.08)" />
<path style="fill:#333" d="M119.68,6.44c-.24.18-.47.39-.73.55-.58.36-1.16.7-1.75,1l-3.14,1.82c-.07,0-.19,0-.33-.09.57-.35,1.14-.7,1.7-1.06.33-.2.64-.43,1-.63.86-.53,1.73-1.06,2.61-1.56a1.85,1.85,0,0,1,.68-.07Z" transform="translate(0.08 0.08)" />
<path style="fill:#333" d="M80.31,5.71c-2.2,1.37-4.4,2.74-6.62,4.09a.84.84,0,0,1-.66,0l7.16-4.23Z" transform="translate(0.08 0.08)" />
<path style="fill:#333" d="M47.83,9.46s0-.08.06-.1c1.23-.76,2.47-1.5,3.68-2.29a4.91,4.91,0,0,0,1.14-1c.31-.37.49-.13.93.1l-5.7,3.5Z" transform="translate(0.08 0.08)" />
<path style="fill:#333" d="M130.9,65.64a1.38,1.38,0,0,1,.26-.4c.3-.22.63-.4,1-.59l3.26-1.86c.27-.16.52-.36.78-.54l.15.2c-.28.2-.53.42-.82.59-1.08.64-2.17,1.24-3.24,1.89a12.2,12.2,0,0,0-1.16.88Z" transform="translate(0.08 0.08)" />
<path style="fill:#333" d="M136.29,50.22c-.11.16-.18.39-.33.48-1.49.88-3,1.74-4.5,2.61l-.18-.24a3.22,3.22,0,0,1,.48-.43c.54-.32,1.11-.6,1.65-.91.92-.52,1.84-1.06,2.75-1.59Z" transform="translate(0.08 0.08)" />
<path style="fill:#333" d="M77.7,8.77c.65-.4,1.29-.81,1.94-1.2Q82,6.11,84.45,4.69a3.11,3.11,0,0,1,.61-.2l.06.14-.74.45L80.07,7.63c-.63.38-1.24.76-1.88,1.11-.13.08-.33,0-.5,0Z" transform="translate(0.08 0.08)" />
<path style="fill:#333" d="M10.36,43.72c.26.55,0,.67-.32.84A16,16,0,0,1,7.46,46,1.65,1.65,0,0,1,7,46c0-.19,0-.47.14-.53.33-.18.72-.25,1.08-.41a7.72,7.72,0,0,0,1-.51C9.56,44.28,9.94,44,10.36,43.72Z" transform="translate(0.08 0.08)" />
<path style="fill:#333" d="M5.23,24.68a20.6,20.6,0,0,1,5.18-3.29C8.91,22.84,6.92,23.53,5.23,24.68Z" transform="translate(0.08 0.08)" />
<path style="fill:#333" d="M5.15,36.72c1.52-1.42,3.54-2,5.31-3.29,0,.2,0,.4-.09.47a6.87,6.87,0,0,1-.81.51l-3,1.79c-.43.25-.88.48-1.32.71Z" transform="translate(0.08 0.08)" />
<path style="fill:#333" d="M93,6.56c-.11.54-4.67,3.25-5.33,3.16Z" transform="translate(0.08 0.08)" />
<path style="fill:#333" d="M91,4.62,85,8.2,84.82,8c2-1.24,4-2.42,6-3.54Z" transform="translate(0.08 0.08)" />
<path style="fill:#333" d="M136.31,38.21,131,41.43l-.12-.07c.08-.13.12-.31.24-.38.61-.38,1.24-.73,1.86-1.1s1.31-.79,2-1.2c.39-.24.77-.51,1.15-.77Z" transform="translate(0.08 0.08)" />
<path style="fill:#333" d="M10.29,35.52a2.57,2.57,0,0,1-.33.33c-.44.31-.89.61-1.34.9-.17.11-.38.16-.55.26-.55.33-1.09.67-1.64,1-.31.18-.64.33-1,.49l-.1-.12a3.47,3.47,0,0,1,.31-.44,4.64,4.64,0,0,1,.67-.66,1.32,1.32,0,0,1,.6-.18c1-.15,1.75-1,2.62-1.42l.56-.31Z" transform="translate(0.08 0.08)" />
<path style="fill:#333" d="M132,82.65c-.09-.08-.17-.13-.24-.2a.63.63,0,0,1-.1-.17l1.61-1a16.43,16.43,0,0,0,1.5-.94c.43-.32,1.06-.31,1.31-.92l.19.15a1.64,1.64,0,0,1-.27.49c-.31.24-.66.43-1,.65-.55.37-1.09.76-1.66,1.11-.32.19-.69.28-1,.44A1.53,1.53,0,0,0,132,82.65Z" transform="translate(0.08 0.08)" />
<path style="fill:#333" d="M136,14c-1,.63-2,1.26-3,1.91-.38.24-.7.56-1.09.79a4.61,4.61,0,0,1-.9.33l-.11-.22,2.5-1.52,2.51-1.54Z" transform="translate(0.08 0.08)" />
<path style="fill:#333" d="M5.15,17.58c1.78-1,3.32-2.42,5.28-3.14l.1.16L5.29,17.82Z" transform="translate(0.08 0.08)" />
<path style="fill:#333" d="M10.42,31.8A9.6,9.6,0,0,1,8,33.65c-.93.47-1.83,1-2.81,1.53.06-.15.09-.36.21-.43,1.66-1,3.33-2,5-3C10.38,31.77,10.4,31.79,10.42,31.8Z" transform="translate(0.08 0.08)" />
<path style="fill:#333" d="M123,6.23c-2.07,1.28-4.13,2.58-6.28,3.73l-.12-.21L122.83,6Z" transform="translate(0.08 0.08)" />
<path style="fill:#333" d="M130.66,13.71c.09-.15.13-.35.26-.42,1.44-.87,2.88-1.72,4.33-2.58l.12.15a3.37,3.37,0,0,1-.39.37c-.59.38-1.18.77-1.77,1.13-.79.49-1.59,1-2.39,1.44Z" transform="translate(0.08 0.08)" />
<path style="fill:#333" d="M115.15,7.21c-.17.62-.77.78-1.21,1.1-.28.21-.61.34-.89.55A7.39,7.39,0,0,1,110.68,10c0-.15,0-.21,0-.21l4.48-2.55Z" transform="translate(0.08 0.08)" />
<path style="fill:#333" d="M136.27,20.66c-.07.12-.11.3-.21.36-1.21.76-2.43,1.51-3.65,2.25-.46.28-.94.54-1.44.83-.09-.49.3-.63.6-.8a11,11,0,0,0,1.39-.78c1-.8,2.24-1.11,3.17-2Z" transform="translate(0.08 0.08)" />
<path style="fill:#333" d="M9.72,9.76c-.66.49-1.31,1-2,1.46-.49.33-1,.61-1.52.9a4,4,0,0,1-.61.21l-.06-.13a7.9,7.9,0,0,1,1-.8c1-.57,2-1.09,3-1.62a.58.58,0,0,1,.23,0Z" transform="translate(0.08 0.08)" />
<path style="fill:#333" d="M89,7.34a10.16,10.16,0,0,1,1-.75C91,6,92.08,5.33,93.16,4.72a1.16,1.16,0,0,1,.75-.13c-.68.44-1.35.89-2,1.31s-1.55.92-2.34,1.37a2.88,2.88,0,0,1-.5.15Z" transform="translate(0.08 0.08)" />
<path style="fill:#333" d="M5.14,33.24l5.19-3.3.14.12c-.07.13-.1.31-.2.37-.41.26-.85.48-1.27.72l-1.74,1-2,1.23Z" transform="translate(0.08 0.08)" />
<path style="fill:#333" d="M34.07,7.36c-1.51.86-2.73,2.27-4.62,2.44L34,7.15Z" transform="translate(0.08 0.08)" />
<path style="fill:#333" d="M131,22.36v-.58l.12.15,5.08-3.1.1.08a1.24,1.24,0,0,1-.29.38c-1.08.65-2.19,1.28-3.27,1.93C132.15,21.56,131.61,21.94,131,22.36Z" transform="translate(0.08 0.08)" />
<path style="fill:#333" d="M8.07,48.32l-.14.15-.39.1.11-.8L7,48.2l.32.31c-.85-.27-1.41.37-2.07.68l-.13-.12c.09-.16.14-.37.27-.47a9.68,9.68,0,0,1,1.23-.76,9.91,9.91,0,0,1,1.17-.48l0,0,.34.54.14-.07Z" transform="translate(0.08 0.08)" />
<path style="fill:#333" d="M124.18,8.68l5.6-3.37.12.21-5.57,3.42Z" transform="translate(0.08 0.08)" />
<path style="fill:#333" d="M136.28,36.38c-1.24,1.21-2.93,1.71-4.29,2.75l-.14-.15c.05-.1.08-.23.16-.28,1.38-.85,2.76-1.68,4.15-2.51Z" transform="translate(0.08 0.08)" />
<path style="fill:#333" d="M5.14,23.14c.06-.17.07-.43.2-.51,1.27-.79,2.56-1.55,3.85-2.31,0,0,.1,0,.2.05C8.16,21.54,6.48,22,5.14,23.14Z" transform="translate(0.08 0.08)" />
<path style="fill:#333" d="M6.15,20.44c1.31-1.2,2.92-1.65,4.33-2.52-.06.13-.09.33-.19.39C9,19.05,7.75,19.77,6.48,20.5,6.44,20.52,6.37,20.48,6.15,20.44Z" transform="translate(0.08 0.08)" />
<path style="fill:#333" d="M105.43,4.65l-4.14,2.44-.15-.25,2-1.26c.34-.21.67-.46,1-.65s.78-.33,1.16-.5Z" transform="translate(0.08 0.08)" />
<path style="fill:#333" d="M130.89,15.16c1.54-1.13,3.24-2,4.8-3.11l.15.12c-.07.12-.1.3-.2.36-1.54.94-3.1,1.86-4.65,2.79Z" transform="translate(0.08 0.08)" />
<path style="fill:#333" d="M60.09,7.22C61.2,6.12,62.7,5.72,64,4.9l.14.23L60.22,7.44Z" transform="translate(0.08 0.08)" />
<path style="fill:#333" d="M38.88,4.68,34.6,7.12l-.12-.22a32.54,32.54,0,0,1,4.28-2.47Z" transform="translate(0.08 0.08)" />
<path style="fill:#333" d="M133.08,55.61a4.7,4.7,0,0,1,.82-.79c.75-.45,1.54-.84,2.46-1.33A3.19,3.19,0,0,1,136,54c-.65.48-1.29,1-2,1.4a2.4,2.4,0,0,1-1,.16Z" transform="translate(0.08 0.08)" />
<path style="fill:#333" d="M94.84,7.27a31.73,31.73,0,0,1,4.67-2.83l.11.18L94.94,7.45Z" transform="translate(0.08 0.08)" />
<path style="fill:#333" d="M10.51,16.27c-1,.72-2.09,1.45-3.16,2.15-.13.09-.36,0-.54,0l-.08-.18L10.34,16Z" transform="translate(0.08 0.08)" />
<path style="fill:#333" d="M135.94,34.91l-4.83,2.93-.13-.2,4.8-3Z" transform="translate(0.08 0.08)" />
<path style="fill:#333" d="M72.53,8.58a14.48,14.48,0,0,1,1.21-1C74.6,7,75.5,6.51,76.39,6c.09-.06.22,0,.37-.07,0,.1,0,.17,0,.19l-4,2.44a.82.82,0,0,1-.23,0Z" transform="translate(0.08 0.08)" />
<path style="fill:#333" d="M135,16.39,131,18.87c.16-.57,3.13-2.46,3.95-2.63Z" transform="translate(0.08 0.08)" />
<path style="fill:#333" d="M5.12,29.8a9.87,9.87,0,0,1,3-1.85l.15.19c-.4.32-.78.66-1.2.94s-.65.28-1,.45-.56.36-.83.54Z" transform="translate(0.08 0.08)" />
<path style="fill:#333" d="M132.34,50.69q1.91-1.19,3.83-2.35l.12.12c-.12.13-.2.31-.35.4a9.13,9.13,0,0,0-1.43.91,2.65,2.65,0,0,1-1,.57c-.36.15-.7.35-1,.52Z" transform="translate(0.08 0.08)" />
<path style="fill:#333" d="M132.77,62.67a11.66,11.66,0,0,1,3.42-2.05l.09.15c-.36.21-.73.42-1.08.65l-1.22.83C133.62,62.5,133.36,63,132.77,62.67Z" transform="translate(0.08 0.08)" />
<path style="fill:#333" d="M135.22,47.47A25.76,25.76,0,0,1,131,50l-.12-.2,4.22-2.54Z" transform="translate(0.08 0.08)" />
<path style="fill:#333" d="M136.29,27.71c-1.1.65-2,1.69-3.3,2l-.11-.18,3.24-2Z" transform="translate(0.08 0.08)" />
<path style="fill:#333" d="M66.8,6.75a2.72,2.72,0,0,1,.41-.42c1-.6,2.07-1.18,3.11-1.76.07,0,.18,0,.34.08-.76.48-1.51,1-2.28,1.43-.49.28-1,.49-1.52.74Z" transform="translate(0.08 0.08)" />
<path style="fill:#333" d="M131,46.6c0-.38,3.45-2.59,4.13-2.46-.68.42-1.35.85-2,1.25S131.68,46.21,131,46.6Z" transform="translate(0.08 0.08)" />
<path style="fill:#333" d="M97.69,8.94l3.13-2,.16.26a16.83,16.83,0,0,1-3.14,2Z" transform="translate(0.08 0.08)" />
<path style="fill:#333" d="M5.09,42.29c.13-.29.16-.49.27-.57.66-.46,1.32-.92,2-1.33A1.49,1.49,0,0,1,8,40.3l.07.25Z" transform="translate(0.08 0.08)" />
<path style="fill:#333" d="M83.39,7.3a19.68,19.68,0,0,1,4.66-2.83l.09.16Z" transform="translate(0.08 0.08)" />
<path style="fill:#333" d="M133.17,85.11a1.86,1.86,0,0,1,0-.2l3-1.83c0,.47-.76,1.1-1.37,1.25s-.82,1-1.58.84Z" transform="translate(0.08 0.08)" />
<path style="fill:#333" d="M7.79,47.36c.15-.51.54-.67,1-.85a9.92,9.92,0,0,0,1.62-.92c0,.68-1.74,1.75-2.64,1.76Z" transform="translate(0.08 0.08)" />
<path style="fill:#333" d="M7.17,25l3.24-2c0,.52-1.86,1.74-3.11,2.13Z" transform="translate(0.08 0.08)" />
<path style="fill:#333" d="M44.56,8c-.48.36-.94.73-1.43,1.07a8.7,8.7,0,0,1-1.06.63,6.58,6.58,0,0,1-.89.28l-.1-.24L44.56,8Z" transform="translate(0.08 0.08)" />
<path style="fill:#333" d="M25.29,91.37c.84,0,1.77-.4,2.44.47C26.89,91.79,26,92.25,25.29,91.37Z" transform="translate(0.08 0.08)" />
<path style="fill:#333" d="M136.29,45.12l-4.66,2.82-.09-.16,4.61-2.88Z" transform="translate(0.08 0.08)" />
<path style="fill:#333" d="M65.07,7.87c-.8.53-1.59,1.07-2.39,1.58a10.24,10.24,0,0,1-1,.52l-.14-.26,3.56-1.86Z" transform="translate(0.08 0.08)" />
<path style="fill:#333" d="M89,7.42c-.48.33-1,.7-1.45,1-.75.45-1.54.85-2.31,1.28-.14.08-.3.13-.45.2l-.1-.19L89,7.34Z" transform="translate(0.08 0.08)" />
<path style="fill:#333" d="M78.84,9.85l4.25-2.58A12.29,12.29,0,0,1,78.84,9.85Z" transform="translate(0.08 0.08)" />
<path style="fill:#333" d="M119.69,6.45a6,6,0,0,1,.75-.76,13.66,13.66,0,0,1,1.4-.88,6,6,0,0,1,.88-.36l.1.2-3.14,1.78Z" transform="translate(0.08 0.08)" />
<path style="fill:#333" d="M130,12.09l2.84-1.67.11.18a8.87,8.87,0,0,1-2.83,1.7Z" transform="translate(0.08 0.08)" />
<path style="fill:#333" d="M10.47,38.76c0,.13,0,.3-.07.34-.7.42-1.42.82-2.21,1.27.1-.69,1-.69.92-1.38Z" transform="translate(0.08 0.08)" />
<path style="fill:#333" d="M66.4,8.84a3.9,3.9,0,0,1,.48-.51Q67.9,7.61,69,7a2.76,2.76,0,0,1,.67-.21l.09.17a3.65,3.65,0,0,1-.32.26c-.68.42-1.36.85-2,1.25a8.15,8.15,0,0,1-1,.41Z" transform="translate(0.08 0.08)" />
<path style="fill:#333" d="M133.22,85.17l-2.08,1.47h.37l0,.13L131,87c0-.44-.2-.85.43-.93.2,0,.35-.33.55-.43.39-.19.81-.34,1.22-.5Z" transform="translate(0.08 0.08)" />
<path style="fill:#333" d="M133.82,53.5a5.47,5.47,0,0,1-.9.78,17.88,17.88,0,0,1-1.94.87,6.52,6.52,0,0,1,2.77-1.72Z" transform="translate(0.08 0.08)" />
<path style="fill:#333" d="M127.77,8.47a11,11,0,0,1,1.29-1.1,11.71,11.71,0,0,1,2.16-1c-.47.33-.92.69-1.42,1-.66.39-1.36.73-2,1.09Z" transform="translate(0.08 0.08)" />
<path style="fill:#333" d="M58.36,8.51,55.91,10l-.17-.29A16.31,16.31,0,0,1,58.21,8.3Z" transform="translate(0.08 0.08)" />
<path style="fill:#333" d="M131,8.36c-1.16.56-2.1,1.48-3.3,2l-.13-.22,3.3-1.94Z" transform="translate(0.08 0.08)" />
<path style="fill:#333" d="M134.94,86.27l-.7-.1a4.58,4.58,0,0,1,.36-.38,9.33,9.33,0,0,1,.93-.73,2,2,0,0,1,.67-.12l.06.92C135.53,85.5,135,85.68,134.94,86.27Z" transform="translate(0.08 0.08)" />
<path style="fill:#333" d="M125.83,4.6,123.62,6l-.09-.15A2.9,2.9,0,0,1,125.83,4.6Z" transform="translate(0.08 0.08)" />
<path style="fill:#333" d="M134.18,41.28l-2.51,1.46c.3-.68,1-1.11,2.41-1.62Z" transform="translate(0.08 0.08)" />
<path style="fill:#333" d="M72.69,5.14l-.41.29c-.63.42-1.26.84-1.91,1.24-.1.06-.27,0-.41,0,0-.12,0-.29.12-.34.76-.44,1.53-.85,2.31-1.27A.5.5,0,0,1,72.6,5Z" transform="translate(0.08 0.08)" />
<path style="fill:#333" d="M71.77,58.45c.76.1,1.5-.22,2.11.38A1.82,1.82,0,0,1,71.77,58.45Z" transform="translate(0.08 0.08)" />
<path style="fill:#333" d="M131.05,9.87c.3-.23.58-.48.9-.68s.9-.55,1.36-.81a1.17,1.17,0,0,1,.31,0A4.88,4.88,0,0,1,131,9.86Z" transform="translate(0.08 0.08)" />
<path style="fill:#333" d="M8.65,27.8c.35-.78,1.07-1,1.78-1.19A2.51,2.51,0,0,1,8.65,27.8Z" transform="translate(0.08 0.08)" />
<path style="fill:#333" d="M117.09,6l2.65-1.6.15.26-2.71,1.5Z" transform="translate(0.08 0.08)" />
<path style="fill:#333" d="M77,5.7l2.07-1.19.11.18L77.15,6Z" transform="translate(0.08 0.08)" />
<path style="fill:#333" d="M7.09,25.27,5.23,26.61C5.25,26.11,6.45,25.21,7.09,25.27Z" transform="translate(0.08 0.08)" />
<path style="fill:#333" d="M133.07,55.6a3.86,3.86,0,0,1-2.19,1.29,6.18,6.18,0,0,1,2.2-1.28Z" transform="translate(0.08 0.08)" />
<path style="fill:#333" d="M132.68,63.05,131,64l-.11-.16c.29-.68,1.09-.65,1.58-1.06Z" transform="translate(0.08 0.08)" />
<path style="fill:#333" d="M127.76,8.46a3,3,0,0,1-1.76,1c.37-.74,1.09-.83,1.77-1Z" transform="translate(0.08 0.08)" />
<path style="fill:#333" d="M131,9.86c-.6.44-1.2.89-1.82,1.31,0,0-.2-.1-.43-.22l2.26-1.07Z" transform="translate(0.08 0.08)" />
<path style="fill:#333" d="M66.38,8.83a3,3,0,0,1-1.88,1,3.14,3.14,0,0,1,1.9-1Z" transform="translate(0.08 0.08)" />
<path style="fill:#333" d="M95.74,8.57c-.5.35-1,.71-1.5,1a5.46,5.46,0,0,1-.7.3l-.1-.2,2.31-1.13Z" transform="translate(0.08 0.08)" />
<path style="fill:#333" d="M53.89,5.7A9.68,9.68,0,0,1,56,4.49l.09.16L54,5.91Z" transform="translate(0.08 0.08)" />
<path style="fill:#333" d="M124.1,9.15l-1.69.85-.12-.23c.6-.21,1-.88,1.7-.85Z" transform="translate(0.08 0.08)" />
<path style="fill:#333" d="M93.26,6.44l1.85-1.16.12.19c-.61.4-1.1,1-1.88,1.12Z" transform="translate(0.08 0.08)" />
<path style="fill:#333" d="M115.16,7.22l1.69-1.09.15.22c-.5.33-1,.68-1.49,1-.07,0-.24-.08-.36-.13Z" transform="translate(0.08 0.08)" />
<path style="fill:#333" d="M6.88,46.38l-1.64,1C5.18,47,6.1,46.24,6.88,46.38Z" transform="translate(0.08 0.08)" />
<path style="fill:#333" d="M131.86,19.7l2-1.18.13.21-2,1.18Z" transform="translate(0.08 0.08)" />
<path style="fill:#333" d="M134.48,42.46l1.69-1.05c.07.41-.74,1-1.6,1.18Z" transform="translate(0.08 0.08)" />
<path style="fill:#333" d="M65.05,7.85a2.55,2.55,0,0,1,1.75-1.1l.06.07-1.79,1Z" transform="translate(0.08 0.08)" />
<path style="fill:#333" d="M90.5,9.83l1.47-1A1.28,1.28,0,0,1,90.5,9.83Z" transform="translate(0.08 0.08)" />
<path style="fill:#333" d="M72.52,8.57a3.9,3.9,0,0,1-1.94,1.19l-.1-.18,2-1Z" transform="translate(0.08 0.08)" />
<path style="fill:#333" d="M132.52,30,131,31.1C131,30.64,131.87,30,132.52,30Z" transform="translate(0.08 0.08)" />
<path style="fill:#333" d="M77.69,8.76c0,.06,0,.15,0,.17a4.26,4.26,0,0,1-1.77,1l-.09-.16,1.84-1Z" transform="translate(0.08 0.08)" />
<path style="fill:#333" d="M131,52c0-.7.22-.87,1.11-.86Z" transform="translate(0.08 0.08)" />
<path style="fill:#333" d="M131.1,44.57c.54-.3.93-.88,1.57-1l.12.2-1.61,1Z" transform="translate(0.08 0.08)" />
<path style="fill:#333" d="M133.75,53.43l1.31-.91.14.22c-.3.51-.95.47-1.38.76Z" transform="translate(0.08 0.08)" />
<path style="fill:#333" d="M136.3,39.92,135,40.6c0-.5.06-.55,1.15-.82Z" transform="translate(0.08 0.08)" />
<path style="fill:#333" d="M94.55,7.66l-1.42.87L93,8.29l1.43-.85Z" transform="translate(0.08 0.08)" />
<path style="fill:#333" d="M41.87,4.56l-1.35.82C40.76,4.5,41.25,4.44,41.87,4.56Z" transform="translate(0.08 0.08)" />
<path style="fill:#333" d="M83.89,8.76,82.17,9.81l-.09-.16L83.8,8.6Z" transform="translate(0.08 0.08)" />
<path style="fill:#333" d="M134.14,42.7c-.35.72-.58.87-1.11.68Z" transform="translate(0.08 0.08)" />
<path style="fill:#333" d="M136.2,17c0,.45-.44.78-1.34,1Z" transform="translate(0.08 0.08)" />
<path style="fill:#333" d="M131.38,7.87l.86-.58.1.15c-.24.26-.31.77-.85.62Z" transform="translate(0.08 0.08)" />
<path style="fill:#333" d="M52.73,91.25c-2.37.58-3.09,1.51-3.09,3.81q0,8.1,0,16.19c0,.07,0,.14,0,.3a2.33,2.33,0,0,1-.81-1.88V96.16c0-1,0-2.1,0-3.15a2.25,2.25,0,0,1,1.24-2,2.3,2.3,0,0,1,2.37.13C52.48,91.15,52.56,91.17,52.73,91.25Z" transform="translate(0.08 0.08)" />
<path style="fill:#333" d="M71,111.91a1.57,1.57,0,0,1-.83-1.52V105q0-6.26,0-12.5c0-1.22.7-2,1.74-1.79a2.59,2.59,0,0,1,1.12.57l-.16.05c-1.51.4-1.89,1.45-1.89,2.77q0,8.44,0,16.9Z" transform="translate(0.08 0.08)" />
<path style="fill:#333" d="M49.44,43.65A2,2,0,0,1,48.72,42q0-6.93,0-13.86a2.06,2.06,0,0,1,1.12-2,2,2,0,0,1,2.11.2c-.11.07-.16.13-.22.14a2.67,2.67,0,0,0-2.29,2.93c0,4.6,0,9.2,0,13.8Z" transform="translate(0.08 0.08)" />
<path style="fill:#333" d="M31.59,58.45a2.69,2.69,0,0,1-.31.12,2.52,2.52,0,0,0-2.14,2.64c0,2.28,0,4.56,0,6.84v7.56A2,2,0,0,1,28.42,74V66.38c0-2.12,0-4.24,0-6.36a1.93,1.93,0,0,1,2.9-1.78A1.69,1.69,0,0,1,31.59,58.45Z" transform="translate(0.08 0.08)" /></svg>