<?xml version="1.0" encoding="utf-8"?>
<!-- Generator: Adobe Illustrator 26.0.1, SVG Export Plug-In . SVG Version: 6.00 Build 0)  -->
<svg version="1.1" id="Layer_1" xmlns="http://www.w3.org/2000/svg" xmlns:xlink="http://www.w3.org/1999/xlink" x="0px" y="0px"
	 viewBox="0 0 566.93 566.93" style="enable-background:new 0 0 566.93 566.93;" xml:space="preserve">
<style type="text/css">
	.st0{fill:#FF2400;}
	.st1{fill:#FFFFFF;}
</style>
<path class="st0" d="M283.46,0L37.98,141.73V425.2l245.49,141.73L528.95,425.2V141.73L283.46,0z M441.79,397.05
	c-5.17,8.01-13.95,12.8-23.48,12.8h-44.54c-10.94,0-20.94-6.44-25.45-16.41l-35.38-78.08c-0.69-1.53-2.22-2.51-3.89-2.51H177.97
	c-1.68,0-3.21,0.99-3.9,2.51l-29.35,64.78c-0.84,1.85-0.17,3.35,0.3,4.08c0.47,0.73,1.57,1.96,3.59,1.96h44.54
	c1.68,0,3.21-0.99,3.9-2.51l12.68-27.98c2.7-5.95,9.71-8.6,15.66-5.89c5.95,2.7,8.59,9.71,5.89,15.66l-12.68,27.98
	c-4.52,9.97-14.51,16.41-25.45,16.41h-44.54c-9.54,0-18.31-4.78-23.48-12.8c-5.17-8.01-5.9-17.99-1.97-26.67l29.35-64.78
	c4.52-9.97,14.51-16.41,25.45-16.41h131.07c10.94,0,20.93,6.44,25.45,16.41l35.38,78.08c0.69,1.53,2.22,2.51,3.89,2.51h44.54
	c2.03,0,3.12-1.23,3.59-1.96c0.47-0.73,1.14-2.24,0.3-4.08L316.93,147.81c-0.69-1.53-2.22-2.51-3.89-2.51h-59.14
	c-1.67,0-3.2,0.99-3.89,2.51l-35.41,78.15c-0.84,1.85-0.17,3.35,0.3,4.08c0.47,0.73,1.57,1.96,3.59,1.96h44.54
	c1.67,0,3.2-0.99,3.89-2.51l12.68-27.98c2.7-5.95,9.7-8.6,15.66-5.89c5.95,2.7,8.59,9.71,5.89,15.66l-12.68,27.98
	c-4.52,9.97-14.51,16.41-25.45,16.41h-44.54c-9.54,0-18.32-4.78-23.48-12.8c-5.17-8.02-5.9-17.99-1.97-26.67l35.41-78.15
	c4.52-9.97,14.51-16.41,25.45-16.41h59.14c10.94,0,20.93,6.44,25.45,16.41l105.27,232.33C447.7,379.06,446.96,389.04,441.79,397.05z
	"/>
<path class="st1" d="M441.79,397.05c-5.17,8.01-13.95,12.8-23.48,12.8h-44.54c-10.94,0-20.94-6.44-25.45-16.41l-35.38-78.08
	c-0.69-1.53-2.22-2.51-3.89-2.51H177.97c-1.68,0-3.21,0.99-3.9,2.51l-29.35,64.78c-0.84,1.85-0.17,3.35,0.3,4.08
	c0.47,0.73,1.57,1.96,3.59,1.96h44.54c1.68,0,3.21-0.99,3.9-2.51l12.68-27.98c2.7-5.95,9.71-8.6,15.66-5.89
	c5.95,2.7,8.59,9.71,5.89,15.66l-12.68,27.98c-4.52,9.97-14.51,16.41-25.45,16.41h-44.54c-9.54,0-18.31-4.78-23.48-12.8
	c-5.17-8.01-5.9-17.99-1.97-26.67l29.35-64.78c4.52-9.97,14.51-16.41,25.45-16.41h131.07c10.94,0,20.93,6.44,25.45,16.41
	l35.38,78.08c0.69,1.53,2.22,2.51,3.89,2.51h44.54c2.03,0,3.12-1.23,3.59-1.96c0.47-0.73,1.14-2.24,0.3-4.08L316.93,147.81
	c-0.69-1.53-2.22-2.51-3.89-2.51h-59.14c-1.67,0-3.2,0.99-3.89,2.51l-35.41,78.15c-0.84,1.85-0.17,3.35,0.3,4.08
	c0.47,0.73,1.57,1.96,3.59,1.96h44.54c1.67,0,3.2-0.99,3.89-2.51l12.68-27.98c2.7-5.95,9.7-8.6,15.66-5.89
	c5.95,2.7,8.59,9.71,5.89,15.66l-12.68,27.98c-4.52,9.97-14.51,16.41-25.45,16.41h-44.54c-9.54,0-18.32-4.78-23.48-12.8
	c-5.17-8.02-5.9-17.99-1.97-26.67l35.41-78.15c4.52-9.97,14.51-16.41,25.45-16.41h59.14c10.94,0,20.93,6.44,25.45,16.41
	l105.27,232.33C447.7,379.06,446.96,389.04,441.79,397.05z"/>
</svg>
