<?xml version="1.0" encoding="utf-8"?>
<!-- Generator: Adobe Illustrator 26.0.1, SVG Export Plug-In . SVG Version: 6.00 Build 0)  -->
<svg version="1.1" id="Layer_1" xmlns="http://www.w3.org/2000/svg" xmlns:xlink="http://www.w3.org/1999/xlink" x="0px" y="0px"
	 viewBox="0 0 566.93 566.93" style="enable-background:new 0 0 566.93 566.93;" xml:space="preserve">
<style type="text/css">
	.st0{fill:#FF2400;}
	.st1{fill:#FCFCFC;}
</style>
<path class="st0" d="M265.95,4.69L94.94,103.43c-10.84,6.26-17.51,17.82-17.51,30.34v299.4c0,12.51,6.68,24.08,17.51,30.34
	l171.01,98.73c10.84,6.26,24.19,6.26,35.03,0l171.01-98.73c10.84-6.26,17.51-17.82,17.51-30.34v-299.4
	c0-12.51-6.68-24.08-17.51-30.34L300.98,4.69C290.14-1.56,276.79-1.56,265.95,4.69z"/>
<path class="st1" d="M283.46,35.49L112.85,134v197l170.61,98.5L454.07,331V134L283.46,35.49z M393.5,311.44
	c-3.59,5.57-9.69,8.9-16.32,8.9h-30.96c-7.61,0-14.55-4.48-17.69-11.4l-24.59-54.26c-0.48-1.06-1.54-1.75-2.71-1.75h-91.09
	c-1.16,0-2.23,0.68-2.71,1.75l-20.4,45.02c-0.58,1.28-0.12,2.33,0.21,2.84c0.33,0.51,1.09,1.36,2.5,1.36h30.96
	c1.16,0,2.23-0.68,2.71-1.75l8.81-19.45c1.88-4.14,6.75-5.97,10.89-4.1c4.14,1.88,5.97,6.75,4.1,10.89l-8.81,19.45
	c-3.14,6.93-10.08,11.4-17.69,11.4h-30.96c-6.63,0-12.73-3.33-16.32-8.9c-3.59-5.57-4.1-12.5-1.37-18.54l20.4-45.02
	c3.14-6.93,10.08-11.4,17.69-11.4h91.09c7.61,0,14.55,4.48,17.69,11.4l24.59,54.26c0.48,1.06,1.54,1.75,2.71,1.75h30.96
	c1.41,0,2.17-0.85,2.5-1.36c0.33-0.51,0.79-1.55,0.21-2.84l-73.16-161.47c-0.48-1.06-1.54-1.75-2.71-1.75h-41.1
	c-1.16,0-2.23,0.68-2.71,1.75l-24.61,54.31c-0.58,1.28-0.12,2.33,0.21,2.84c0.33,0.51,1.09,1.36,2.5,1.36h30.96
	c1.16,0,2.23-0.68,2.71-1.75l8.81-19.45c1.87-4.14,6.74-5.97,10.89-4.1c4.14,1.88,5.97,6.75,4.1,10.89l-8.81,19.45
	c-3.14,6.93-10.08,11.4-17.69,11.4H238.3c-6.63,0-12.73-3.33-16.32-8.9c-3.59-5.57-4.1-12.5-1.37-18.54l24.61-54.31
	c3.14-6.93,10.08-11.4,17.69-11.4h41.1c7.61,0,14.55,4.48,17.69,11.4l73.16,161.47C397.6,298.94,397.09,305.87,393.5,311.44z"/>
<path class="st0" d="M393.5,311.44c-3.59,5.57-9.69,8.9-16.32,8.9h-30.96c-7.61,0-14.55-4.48-17.69-11.4l-24.59-54.26
	c-0.48-1.06-1.54-1.75-2.71-1.75h-91.09c-1.16,0-2.23,0.68-2.71,1.75l-20.4,45.02c-0.58,1.28-0.12,2.33,0.21,2.84
	c0.33,0.51,1.09,1.36,2.5,1.36h30.96c1.16,0,2.23-0.68,2.71-1.75l8.81-19.45c1.88-4.14,6.75-5.97,10.89-4.1
	c4.14,1.88,5.97,6.75,4.1,10.89l-8.81,19.45c-3.14,6.93-10.08,11.4-17.69,11.4h-30.96c-6.63,0-12.73-3.33-16.32-8.9
	c-3.59-5.57-4.1-12.5-1.37-18.54l20.4-45.02c3.14-6.93,10.08-11.4,17.69-11.4h91.09c7.61,0,14.55,4.48,17.69,11.4l24.59,54.26
	c0.48,1.06,1.54,1.75,2.71,1.75h30.96c1.41,0,2.17-0.85,2.5-1.36c0.33-0.51,0.79-1.55,0.21-2.84l-73.16-161.47
	c-0.48-1.06-1.54-1.75-2.71-1.75h-41.1c-1.16,0-2.23,0.68-2.71,1.75l-24.61,54.31c-0.58,1.28-0.12,2.33,0.21,2.84
	c0.33,0.51,1.09,1.36,2.5,1.36h30.96c1.16,0,2.23-0.68,2.71-1.75l8.81-19.45c1.87-4.14,6.74-5.97,10.89-4.1
	c4.14,1.88,5.97,6.75,4.1,10.89l-8.81,19.45c-3.14,6.93-10.08,11.4-17.69,11.4H238.3c-6.63,0-12.73-3.33-16.32-8.9
	c-3.59-5.57-4.1-12.5-1.37-18.54l24.61-54.31c3.14-6.93,10.08-11.4,17.69-11.4h41.1c7.61,0,14.55,4.48,17.69,11.4l73.16,161.47
	C397.6,298.94,397.09,305.87,393.5,311.44z"/>
</svg>
