<?xml version="1.0" encoding="utf-8"?>
<!-- Generator: Adobe Illustrator 26.0.1, SVG Export Plug-In . SVG Version: 6.00 Build 0)  -->
<svg version="1.1" id="Layer_1" xmlns="http://www.w3.org/2000/svg" xmlns:xlink="http://www.w3.org/1999/xlink" x="0px" y="0px"
	 viewBox="0 0 566.93 566.93" style="enable-background:new 0 0 566.93 566.93;" xml:space="preserve">
<style type="text/css">
	.st0{fill:#FF2400;}
	.st1{fill:#F4F4F4;}
</style>
<path class="st0" d="M259.98,559.71L98.01,449.64c-11.45-7.78-18.3-20.72-18.3-34.56V44.27c0-23.07,18.7-41.78,41.78-41.78h323.95
	c23.07,0,41.78,18.7,41.78,41.78v370.81c0,13.84-6.85,26.78-18.3,34.56L306.95,559.71C292.77,569.34,274.16,569.34,259.98,559.71z"
	/>
<path class="st1" d="M283.46,40.15L116.06,136.8v193.31l167.41,96.65l167.41-96.65V136.8L283.46,40.15z M391.44,310.91
	c-3.52,5.47-9.51,8.73-16.02,8.73h-30.38c-7.46,0-14.28-4.39-17.36-11.19l-24.13-53.24c-0.47-1.04-1.51-1.71-2.66-1.71h-89.38
	c-1.14,0-2.19,0.67-2.66,1.71l-20.02,44.18c-0.57,1.26-0.12,2.28,0.21,2.78c0.32,0.5,1.07,1.34,2.45,1.34h30.38
	c1.14,0,2.19-0.67,2.66-1.71l8.65-19.08c1.84-4.06,6.62-5.86,10.68-4.02c4.06,1.84,5.86,6.62,4.02,10.68l-8.65,19.08
	c-3.08,6.8-9.89,11.19-17.36,11.19h-30.38c-6.5,0-12.49-3.26-16.01-8.73c-3.52-5.47-4.03-12.27-1.34-18.19l20.02-44.18
	c3.08-6.8,9.89-11.19,17.36-11.19h89.38c7.46,0,14.28,4.39,17.36,11.19l24.13,53.24c0.47,1.04,1.51,1.71,2.66,1.71h30.38
	c1.38,0,2.13-0.84,2.45-1.34c0.32-0.5,0.78-1.52,0.21-2.78l-71.79-158.44c-0.47-1.04-1.51-1.71-2.66-1.71H263.3
	c-1.14,0-2.18,0.67-2.66,1.71l-24.15,53.29c-0.57,1.26-0.12,2.28,0.2,2.78c0.32,0.5,1.07,1.34,2.45,1.34h30.38
	c1.14,0,2.18-0.67,2.66-1.71l8.65-19.08c1.84-4.06,6.62-5.86,10.68-4.02c4.06,1.84,5.86,6.62,4.02,10.68l-8.65,19.08
	c-3.08,6.8-9.89,11.19-17.36,11.19h-30.38c-6.5,0-12.49-3.26-16.02-8.73c-3.52-5.47-4.02-12.27-1.34-18.19l24.15-53.29
	c3.08-6.8,9.89-11.19,17.36-11.19h40.33c7.46,0,14.28,4.39,17.36,11.19l71.79,158.44C395.46,298.65,394.96,305.45,391.44,310.91z"/>
<path class="st0" d="M391.44,310.91c-3.52,5.47-9.51,8.73-16.02,8.73h-30.38c-7.46,0-14.28-4.39-17.36-11.19l-24.13-53.24
	c-0.47-1.04-1.51-1.71-2.66-1.71h-89.38c-1.14,0-2.19,0.67-2.66,1.71l-20.02,44.18c-0.57,1.26-0.12,2.28,0.21,2.78
	c0.32,0.5,1.07,1.34,2.45,1.34h30.38c1.14,0,2.19-0.67,2.66-1.71l8.65-19.08c1.84-4.06,6.62-5.86,10.68-4.02
	c4.06,1.84,5.86,6.62,4.02,10.68l-8.65,19.08c-3.08,6.8-9.89,11.19-17.36,11.19h-30.38c-6.5,0-12.49-3.26-16.01-8.73
	c-3.52-5.47-4.03-12.27-1.34-18.19l20.02-44.18c3.08-6.8,9.89-11.19,17.36-11.19h89.38c7.46,0,14.28,4.39,17.36,11.19l24.13,53.24
	c0.47,1.04,1.51,1.71,2.66,1.71h30.38c1.38,0,2.13-0.84,2.45-1.34c0.32-0.5,0.78-1.52,0.21-2.78l-71.79-158.44
	c-0.47-1.04-1.51-1.71-2.66-1.71H263.3c-1.14,0-2.18,0.67-2.66,1.71l-24.15,53.29c-0.57,1.26-0.12,2.28,0.2,2.78
	c0.32,0.5,1.07,1.34,2.45,1.34h30.38c1.14,0,2.18-0.67,2.66-1.71l8.65-19.08c1.84-4.06,6.62-5.86,10.68-4.02
	c4.06,1.84,5.86,6.62,4.02,10.68l-8.65,19.08c-3.08,6.8-9.89,11.19-17.36,11.19h-30.38c-6.5,0-12.49-3.26-16.02-8.73
	c-3.52-5.47-4.02-12.27-1.34-18.19l24.15-53.29c3.08-6.8,9.89-11.19,17.36-11.19h40.33c7.46,0,14.28,4.39,17.36,11.19l71.79,158.44
	C395.46,298.65,394.96,305.45,391.44,310.91z"/>
</svg>
