<?xml version="1.0" encoding="utf-8"?>
<!-- Generator: Adobe Illustrator 26.0.1, SVG Export Plug-In . SVG Version: 6.00 Build 0)  -->
<svg version="1.1" id="Layer_1" xmlns="http://www.w3.org/2000/svg" xmlns:xlink="http://www.w3.org/1999/xlink" x="0px" y="0px"
	 viewBox="0 0 566.93 566.93" style="enable-background:new 0 0 566.93 566.93;" xml:space="preserve">
<style type="text/css">
	.st0{fill:#FF2400;}
</style>
<g>
	<path class="st0" d="M518.25,529.04h-77.56c-19.06,0-36.45-11.22-44.31-28.57l-61.6-135.94c-1.2-2.66-3.86-4.37-6.78-4.37H99.79
		c-2.92,0-5.58,1.72-6.78,4.37L41.9,477.32c-1.46,3.22-0.3,5.83,0.53,7.11c0.82,1.27,2.73,3.41,6.25,3.41h77.56
		c2.92,0,5.58-1.72,6.78-4.37l22.07-48.72c4.7-10.36,16.9-14.97,27.27-10.26c10.36,4.7,14.96,16.91,10.26,27.27l-22.07,48.72
		c-7.87,17.35-25.26,28.57-44.32,28.57H48.68c-16.6,0-31.89-8.33-40.89-22.29c-9-13.95-10.28-31.32-3.43-46.44l51.11-112.79
		c7.86-17.35,25.26-28.57,44.32-28.57H328c19.06,0,36.45,11.22,44.31,28.57l61.6,135.94c1.2,2.66,3.86,4.37,6.78,4.37h77.56
		c3.53,0,5.44-2.14,6.26-3.41c0.82-1.28,1.98-3.89,0.53-7.11L341.73,72.79c-1.2-2.66-3.86-4.37-6.78-4.37H231.98
		c-2.91,0-5.58,1.72-6.78,4.37l-61.66,136.07c-1.46,3.22-0.3,5.83,0.52,7.11c0.82,1.27,2.73,3.41,6.26,3.41h77.56
		c2.91,0,5.58-1.72,6.78-4.37l22.07-48.72c4.7-10.36,16.9-14.97,27.27-10.26c10.36,4.7,14.96,16.91,10.26,27.27l-22.07,48.72
		c-7.87,17.35-25.26,28.57-44.31,28.57h-77.56c-16.61,0-31.89-8.33-40.89-22.29c-9-13.96-10.28-31.32-3.42-46.44l61.66-136.07
		c7.87-17.35,25.26-28.57,44.31-28.57h102.98c19.06,0,36.45,11.22,44.31,28.57l183.3,404.53c6.85,15.12,5.57,32.49-3.43,46.44
		C550.14,520.71,534.86,529.04,518.25,529.04z"/>
</g>
</svg>
