<svg id="Layer_1" data-name="Layer 1" xmlns="http://www.w3.org/2000/svg" viewBox="0 0 432.49 127.13"><path d="M220.49,92.9c-16.54,0-29.54-12.48-29.4-28.19.13-15.43,13.83-28.12,30-27.8,16.6.33,29.7,13.43,29.18,29.19C249.81,81.19,236.75,92.92,220.49,92.9Zm12.77-28.1a16.24,16.24,0,0,0-4.76-12.19c-4.56-4.57-10.95-4.56-15.58-.06-6.44,6.24-6.47,18.66-.07,24.89,4.63,4.49,11,4.55,15.6,0A16.28,16.28,0,0,0,233.26,64.8Z"/><path d="M145.72,37.4c2.77-.89,5.44-.49,8.05-.5,7.32,0,14.65-.23,22,.05,11.18.43,18.08,10.34,14.58,20.44-1.36,3.92-4.48,6-8.11,8.21,10.49,7.2,4.44,17.61,6.38,26.79-5.64.92-10.58.37-16,.48-.88-4.42-.32-8.72-.44-13-.18-6.64-2.66-8.64-10.09-7.42V92.35c-5.64,1-10.72.42-16.31.5V59.21c3.92-1.08,8.07-.33,12.14-.48,3.66-.13,7.33.11,11-.08,4.53-.24,5.66-2.16,4.35-7.53-8.94-1.47-18.27.25-27.52-1A42.23,42.23,0,0,1,145.72,37.4Z"/><path d="M282,51.26A40.73,40.73,0,0,0,268.63,51V92.51h-15.7c-.61-18.37-.19-36.62-.11-54.42a3.11,3.11,0,0,1,3.05-1.3c8.83,0,17.66-.15,26.49,0,8.66.17,15.44,6.4,15.67,15,.34,13,.06,26,0,39a8,8,0,0,1-.56,1.77c-4.84.65-9.76.15-15.49.31Z"/><path d="M36.29,92.77c-5.07.07-9.51.48-14.58-.37,5.72-18.56,11.32-36.77,17-55.22A124.14,124.14,0,0,1,55.2,37L74.44,92.61H41.25c.3-4.48,2.11-8.34,3.42-12.31,2.93-1.53,6.07-.06,9.47-1.27-1-6-3.47-11.68-6.29-17.58C44,71.81,40.21,82.17,36.29,92.77Z"/><path d="M363.87,78.94c5.27,0,10.07,0,14.87,0,2.54,0,5-.16,6.41-2.87s.6-5.27-1.14-7.43c-4.06-5-8.18-10.07-12.5-14.9s-4.93-10.23-3.68-16.53c5.27-.86,10.52-.33,16.25-.33.8,7.3,5.68,12.15,10.18,17.22,5.51,6.19,8.78,13.05,8.25,21.69-.6,10.07-7.43,17.08-17.52,17.11-7,0-13.91,0-21,0A40.1,40.1,0,0,1,363.87,78.94Z"/><path d="M140.68,37.27A46.49,46.49,0,0,1,140.5,51h-11V92.51H113.35v-41c-5.86-1.13-11.36.07-17.06-.87a71.71,71.71,0,0,1,.15-13.33Z"/><path d="M358.9,37.36c.56,4.23.25,8.19.22,12.14-2.54,1.8-5.31,1.08-7.86,1.44-7.47,1.07-11.89,4.23-13.14,9.6-2.09,9,3.65,17.07,12.89,18.24,2.46.31,5-.24,7.35.62,1.08,3.68,1.18,7.32.38,12.68-14.14,2.61-23.43.32-32.74-11-6.62-8.06-7-21.37-1.4-30.54C331.27,39.53,343.37,34.79,358.9,37.36Z"/><path d="M76.64,37.23a84.1,84.1,0,0,1,15.63-.06V78.91h16.64c1.23,4.74.55,9,.49,13.6H76.78C76.25,74.18,76.53,55.83,76.64,37.23Z"/><path d="M318,92.64H303V37h15Z"/></svg>