<svg version="1.1" id="Layer_1" xmlns="http://www.w3.org/2000/svg" xmlns:xlink="http://www.w3.org/1999/xlink" x="0px" y="0px"
	 width="330" height="97" viewBox="0 0 330 97" style="enable-background:new 0 0 330 97;" xml:space="preserve">
<style type="text/css">
	.st0{fill:#033A33;}
	.st1{fill:none;stroke:#033A33;stroke-width:0.219;}
	.st2{clip-path:url(#SVGID_2_);fill:url(#SVGID_3_);}
	.st3{clip-path:url(#SVGID_5_);fill:url(#SVGID_6_);}
	.st4{clip-path:url(#SVGID_8_);fill:url(#SVGID_9_);}
	.st5{clip-path:url(#SVGID_11_);fill:url(#SVGID_12_);}
	.st6{clip-path:url(#SVGID_14_);fill:url(#SVGID_15_);}
	.st7{clip-path:url(#SVGID_17_);fill:url(#SVGID_18_);}
	.st8{clip-path:url(#SVGID_20_);fill:url(#SVGID_21_);}
	.st9{fill:#B81F3A;}
	.st10{fill:#F79121;}
</style>
<g>
	<path class="st0" d="M100,38c-1.2-0.9-2.9-1.8-4.4-1.8c-2.5,0-3.9,1.5-3.9,3.4c0,1.8,1.6,3.1,4.8,5.5c3.5,2.5,5.5,4.8,5.5,8.1
		c0,4-3.8,6.6-7.8,6.6c-2.4,0-5.3-0.9-7.1-2.6l1.6-2.1c1.5,1,3.1,2.2,5.5,2.2c2.5,0,4.4-1.3,4.4-4.2c0-3.2-3.8-5.2-5.9-6.8
		s-4.4-3.2-4.4-6.8c0-3.4,3.3-6,7.2-6c2.6,0,4.8,0.9,6.2,2.5L100,38z"/>
	<polygon class="st0" points="110.9,59.3 110.9,40 104,40 104,37.9 120.8,37.9 120.8,40 113.9,40 113.9,59.3 	"/>
	<polygon class="st1" points="110.9,59.3 110.9,40 104,40 104,37.9 120.8,37.9 120.8,40 113.9,40 113.9,59.3 	"/>
	<path class="st0" d="M134.5,34.1v25.1c0,5.2-2.9,7.1-6.1,7.1v-2.1c1-0.2,1.6-0.8,1.9-1.3c0.4-0.8,0.8-2.6,0.8-4.1V34.1H134.5z"/>
	<path class="st0" d="M138.2,48.2c0-6,4.5-10.7,10.7-10.7s10.7,4.7,10.7,10.7c0,6.4-4.1,11.5-10.7,11.5S138.2,54.6,138.2,48.2
		 M156.4,48.2c0-4-2.1-8.6-7.4-8.6c-5.3,0-7.4,4.6-7.4,8.6c0,4.2,1.9,9.3,7.4,9.3C154.5,57.5,156.4,52.4,156.4,48.2"/>
	<path class="st1" d="M138.2,48.2c0-6,4.5-10.7,10.7-10.7s10.7,4.7,10.7,10.7c0,6.4-4.1,11.5-10.7,11.5S138.2,54.6,138.2,48.2z
		 M156.4,48.2c0-4-2.1-8.6-7.4-8.6c-5.3,0-7.4,4.6-7.4,8.6c0,4.2,1.9,9.3,7.4,9.3C154.5,57.5,156.4,52.4,156.4,48.2z"/>
	<polygon class="st0" points="179.5,59.3 176.5,59.3 176.5,48.7 166.1,48.7 166.1,59.3 163.1,59.3 163.1,37.9 166.1,37.9 
		166.1,46.5 176.5,46.5 176.5,37.9 179.5,37.9 	"/>
	<polygon class="st1" points="179.5,59.3 176.5,59.3 176.5,48.7 166.1,48.7 166.1,59.3 163.1,59.3 163.1,37.9 166.1,37.9 
		166.1,46.5 176.5,46.5 176.5,37.9 179.5,37.9 	"/>
	<path class="st0" d="M203.4,59.3h-2.3c-4.7-5.6-12.6-15.2-13.9-17.1h-0.1v17.1h-2.4V37.9h2.2c4.7,5.6,12.6,14.9,14.1,17.1h0.1V37.9
		h2.4v21.4H203.4z"/>
	<path class="st1" d="M203.4,59.3h-2.3c-4.7-5.6-12.6-15.2-13.9-17.1h-0.1v17.1h-2.4V37.9h2.2c4.7,5.6,12.6,14.9,14.1,17.1h0.1V37.9
		h2.4v21.4H203.4z"/>
	<path class="st0" d="M213.8,48.2c0-6,4.5-10.7,10.7-10.7s10.7,4.7,10.7,10.7c0,6.4-4.1,11.5-10.7,11.5
		C217.9,59.7,213.8,54.6,213.8,48.2 M232,48.2c0-4-2.1-8.6-7.4-8.6c-5.3,0-7.4,4.6-7.4,8.6c0,4.2,1.9,9.3,7.4,9.3
		C230.1,57.5,232,52.4,232,48.2"/>
	<path class="st1" d="M213.8,48.2c0-6,4.5-10.7,10.7-10.7s10.7,4.7,10.7,10.7c0,6.4-4.1,11.5-10.7,11.5
		C217.9,59.7,213.8,54.6,213.8,48.2z M232,48.2c0-4-2.1-8.6-7.4-8.6c-5.3,0-7.4,4.6-7.4,8.6c0,4.2,1.9,9.3,7.4,9.3
		C230.1,57.5,232,52.4,232,48.2z"/>
	<polygon class="st0" points="249.3,40 241.7,40 241.7,48.2 249.1,48.2 249.1,50.3 241.7,50.3 241.7,62.7 238.7,62.7 238.7,37.9 
		249.3,37.9 	"/>
	<polygon class="st1" points="249.3,40 241.7,40 241.7,48.2 249.1,48.2 249.1,50.3 241.7,50.3 241.7,62.7 238.7,62.7 238.7,37.9 
		249.3,37.9 	"/>
	<path class="st0" d="M284.6,48.2c0-6,4.5-10.7,10.7-10.7S306,42.2,306,48.2c0,6.4-4.1,11.5-10.7,11.5S284.6,54.6,284.6,48.2
		 M302.8,48.2c0-4-2.1-8.6-7.4-8.6s-7.4,4.6-7.4,8.6c0,4.2,1.9,9.3,7.4,9.3C300.9,57.5,302.8,52.4,302.8,48.2"/>
	<path class="st1" d="M284.6,48.2c0-6,4.5-10.7,10.7-10.7S306,42.2,306,48.2c0,6.4-4.1,11.5-10.7,11.5S284.6,54.6,284.6,48.2z
		 M302.8,48.2c0-4-2.1-8.6-7.4-8.6s-7.4,4.6-7.4,8.6c0,4.2,1.9,9.3,7.4,9.3C300.9,57.5,302.8,52.4,302.8,48.2z"/>
	<path class="st0" d="M317.6,37.9c8.6,0,11.6,4.9,11.6,10.1c0,7.1-4.5,11.4-12.1,11.4h-6.4V37.9H317.6z M313.7,57.2h3.3
		c6,0,8.9-3,8.9-9.3c0-4.8-2.7-7.9-8.3-7.9h-3.9V57.2z"/>
	<path class="st1" d="M317.6,37.9c8.6,0,11.6,4.9,11.6,10.1c0,7.1-4.5,11.4-12.1,11.4h-6.4V37.9H317.6z M313.7,57.2h3.3
		c6,0,8.9-3,8.9-9.3c0-4.8-2.7-7.9-8.3-7.9h-3.9V57.2z"/>
	<path class="st0" d="M280.6,47.7h-6.3V50h2.8v6.3c-1.4,0.7-3,0.9-5.1,0.9c-5.5,0-9.9-4.3-9.9-10.7c0-5.9,3.7-10.4,10.3-10.4
		c2.8,0,5.1,1,6.6,2l1.4-2.1c-1.5-1.3-4.4-2.5-8.1-2.5c-9.1,0-14.1,6.6-14.1,13c0,6.9,4.6,13.1,13.6,13.1c3.2,0,6.3-0.8,8.7-1.7
		V47.7H280.6z"/>
	<polygon class="st0" points="221.9,87.9 219.6,87.9 219.6,79.3 211.5,79.3 211.5,87.9 209.2,87.9 209.2,70.6 211.5,70.6 
		211.5,77.6 219.6,77.6 219.6,70.6 221.9,70.6 	"/>
	<path class="st0" d="M226.5,82.1c0,2.4,1.7,4.5,4,4.5c1.1,0,2.4-0.4,3.2-1l0.6,1.2c-1.2,0.9-2.7,1.4-3.9,1.4
		c-3.7,0-6.1-2.3-6.1-6.4s2.9-5.9,5.6-5.9c3.6,0,4.8,3.2,4.6,6.3L226.5,82.1L226.5,82.1z M232.6,80.7c0-1.8-0.8-3.4-2.6-3.4
		c-2.3,0-3.2,1.9-3.2,3.4H232.6z"/>
	<path class="st0" d="M243.1,86.6c-0.8,0.8-1.9,1.6-3,1.6c-2,0-3.4-1.4-3.4-3.6c0-2.1,1.7-3.4,4.2-4.1l2.9-0.9
		c-0.1-1.4-1.2-2.4-2.4-2.4c-1.4,0-2.2,0.6-3.1,1.3l-0.8-1.1c1.2-1.1,2.4-1.6,4-1.6c1.8,0,4.4,0.6,4.4,4V85c0,0.9,0.1,2,0.5,2.9
		h-2.3c-0.3-0.5-0.3-1.3-0.3-2L243.1,86.6z M241.8,81.5c-1.9,0.6-2.8,1.5-2.8,3c0,1.2,0.8,2,1.7,2c1.5,0,3.4-1.9,3.2-5.5L241.8,81.5
		z"/>
	<rect x="249.8" y="70.5" class="st0" width="2.1" height="17.3"/>
	<path class="st0" d="M258.6,76.1h3.1v1.2h-3.1V84c0,1.7,0.3,2.6,1.6,2.6c0.8,0,1.2-0.2,1.6-0.4l0.5,1.2c-0.7,0.5-1.6,0.8-2.4,0.8
		c-2.4,0-3.5-1.4-3.5-3.8v-7.1h-1.7v-1.2h1.7v-2.8l2.1-0.7L258.6,76.1L258.6,76.1z"/>
	<path class="st0" d="M266.2,77.5c1.1-1.2,2.8-1.7,4-1.7c2.7,0,4.2,1.5,4.2,4.5v7.6h-2.1v-7.1c0-2.2-0.9-3.4-2.9-3.4
		c-1.7,0-3.2,1.2-3.2,3.4v7.1h-2.1V70.5h2.1V77.5z"/>
	<path class="st0" d="M295,74.2c-0.8-0.6-2.5-1.4-4.3-1.4c-4.1,0-6.5,2.9-6.5,6.8c0,4.2,2.9,7,6.5,7c1.8,0,3.2-0.6,4.2-1.2l0.9,1.4
		c-1.1,0.8-3.1,1.5-5.2,1.5c-5.9,0-8.9-4-8.9-8.6c0-4.2,3.3-8.5,9.2-8.5c2.4,0,4,0.8,5.1,1.7L295,74.2z"/>
	<path class="st0" d="M304.4,86.6c-0.8,0.8-1.9,1.6-2.9,1.6c-2,0-3.4-1.4-3.4-3.6c0-2.1,1.7-3.4,4.2-4.1l2.9-0.9
		c-0.1-1.4-1.2-2.4-2.4-2.4c-1.4,0-2.2,0.6-3.1,1.3l-0.8-1.1c1.2-1.1,2.4-1.6,4-1.6c1.8,0,4.4,0.6,4.4,4V85c0,0.9,0.1,2,0.5,2.9
		h-2.3c-0.3-0.5-0.3-1.3-0.3-2L304.4,86.6z M303.1,81.5c-1.9,0.6-2.8,1.5-2.8,3c0,1.2,0.8,2,1.7,2c1.5,0,3.4-1.9,3.2-5.5L303.1,81.5
		z"/>
	<path class="st0" d="M312.8,77.5l0.8-0.9c0.5-0.5,1.3-0.8,1.8-0.8s1.3,0.4,2,1.2l-1,1.4c-0.5-0.3-1-0.5-1.6-0.5c-1.1,0-2,1.1-2,3.7
		v6.3h-2.1V76.1h2.1L312.8,77.5L312.8,77.5z"/>
	<path class="st0" d="M320.3,82.1c0,2.4,1.7,4.5,4,4.5c1.1,0,2.4-0.4,3.2-1l0.6,1.2c-1.2,0.9-2.7,1.4-3.9,1.4
		c-3.7,0-6.1-2.3-6.1-6.4s2.9-5.9,5.6-5.9c3.6,0,4.8,3.2,4.6,6.3L320.3,82.1L320.3,82.1z M326.3,80.7c0-1.8-0.8-3.4-2.6-3.4
		c-2.3,0-3.2,1.9-3.2,3.4H326.3z"/>
	<g>
		<g>
			<defs>
				<path id="SVGID_1_" d="M54.5,60.5c-5.4,0.5-6.1,4.5-3.1,6.2c4.8,2.7,8.6-1.7,8.9-4.8c0.3,5.4-3.4,8.1-7.8,6.4
					c-2-0.7-6.4-4.4-10.2-1.3c4.3-0.8,5.4,0.7,9.6,2.9c5.6,2.6,9.4,2,11.8-2c2.2-3.6-0.8-9.2-4.4-11C58.6,58.3,57.6,60.2,54.5,60.5"
					/>
			</defs>
			<clipPath id="SVGID_2_">
				<use xlink:href="#SVGID_1_"  style="overflow:visible;"/>
			</clipPath>
			
				<linearGradient id="SVGID_3_" gradientUnits="userSpaceOnUse" x1="-147.1098" y1="-227.1699" x2="-146.1098" y2="-227.1699" gradientTransform="matrix(-9.1833 9.6068 -9.6068 -9.1833 -3473.0007 -614.6802)">
				<stop  offset="0" style="stop-color:#8DC641"/>
				<stop  offset="1.098630e-02" style="stop-color:#8DC641"/>
				<stop  offset="5.396670e-02" style="stop-color:#83BD41"/>
				<stop  offset="0.2789" style="stop-color:#569F43"/>
				<stop  offset="0.4553" style="stop-color:#359043"/>
				<stop  offset="0.5604" style="stop-color:#258B43"/>
				<stop  offset="0.7162" style="stop-color:#197B3F"/>
				<stop  offset="0.9451" style="stop-color:#046838"/>
				<stop  offset="1" style="stop-color:#046838"/>
			</linearGradient>
			<polygon class="st2" points="73.7,64.4 54.6,84.3 34.5,65.1 53.6,45.2 			"/>
		</g>
	</g>
	<g>
		<g>
			<defs>
				<path id="SVGID_4_" d="M61.6,54.8c-0.8,0.4-1.3,0.7-1.8,1.2c1,0.5,2.6,1.7,3.5,2.9c1.3-1.2,3.6-2.6,6.8-2.2
					c-0.8,0.3-3.9,0.9-6,3.3c1.4,2,1.7,3.4,1.7,5.6c2.7,0.6,5.6-1.5,6-4.9c0.4-3.5,3.4-3.8,3.3-3.8c-1.9-1.8-5.4-3.1-8.7-3.1
					C64.8,53.7,63.1,54.1,61.6,54.8"/>
			</defs>
			<clipPath id="SVGID_5_">
				<use xlink:href="#SVGID_4_"  style="overflow:visible;"/>
			</clipPath>
			
				<linearGradient id="SVGID_6_" gradientUnits="userSpaceOnUse" x1="-176.1799" y1="-210.8946" x2="-175.1799" y2="-210.8946" gradientTransform="matrix(12.9971 0.1414 -0.1414 12.9971 2320.748 2825.7712)">
				<stop  offset="0" style="stop-color:#8DC641"/>
				<stop  offset="1.098630e-02" style="stop-color:#8DC641"/>
				<stop  offset="5.396670e-02" style="stop-color:#83BD41"/>
				<stop  offset="0.2789" style="stop-color:#569F43"/>
				<stop  offset="0.4553" style="stop-color:#359043"/>
				<stop  offset="0.5604" style="stop-color:#258B43"/>
				<stop  offset="0.7162" style="stop-color:#197B3F"/>
				<stop  offset="0.9451" style="stop-color:#046838"/>
				<stop  offset="1" style="stop-color:#046838"/>
			</linearGradient>
			<polygon class="st3" points="59.8,53.6 75.4,53.7 75.2,66.3 59.7,66.1 			"/>
		</g>
	</g>
	<g>
		<g>
			<defs>
				<path id="SVGID_7_" d="M4.6,52.5c-2.7,2.2-4.2,7,0.5,10.5c0.7,0.5,1,0.5,1.8,0.7c0.4-0.9,1.7-2.7,2.8-3.6
					C8,59.5,6,58.6,5.5,55.9c0.6,1.3,2.9,2.4,5.3,3.4c2.1-1.4,3.1-1.8,5.9-2.1c0-2.1-3.6-3.9-7.5-3.1c-2.3,0.5-3.4-0.1-4-0.7
					C4.8,52.9,4.7,52.5,4.6,52.5L4.6,52.5"/>
			</defs>
			<clipPath id="SVGID_8_">
				<use xlink:href="#SVGID_7_"  style="overflow:visible;"/>
			</clipPath>
			
				<linearGradient id="SVGID_9_" gradientUnits="userSpaceOnUse" x1="-175.0864" y1="-212.628" x2="-174.0864" y2="-212.628" gradientTransform="matrix(14.6108 0 0 14.6108 2560.2632 3164.8149)">
				<stop  offset="0" style="stop-color:#8DC641"/>
				<stop  offset="1.098630e-02" style="stop-color:#8DC641"/>
				<stop  offset="5.396670e-02" style="stop-color:#83BD41"/>
				<stop  offset="0.2789" style="stop-color:#569F43"/>
				<stop  offset="0.4553" style="stop-color:#359043"/>
				<stop  offset="0.5604" style="stop-color:#258B43"/>
				<stop  offset="0.7162" style="stop-color:#197B3F"/>
				<stop  offset="0.9451" style="stop-color:#046838"/>
				<stop  offset="1" style="stop-color:#046838"/>
			</linearGradient>
			<rect x="0.5" y="52.5" class="st4" width="16.3" height="11.3"/>
		</g>
	</g>
	<g>
		<g>
			<defs>
				<path id="SVGID_10_" d="M11.4,60.9c-1.3,1-3.2,3.4-3.3,4.9c0,0,0.3-0.2,0.7-0.4c0.8-0.3,2.2-0.7,3.4,0.3c0.9,0.9-0.1,3.2,3,4.4
					c6.8,2.8,12.4-2.9,14.5-3.3c1.1-0.2,1.9-0.4,3.9,0.1c-1.2-1.7-5.5-1.8-7.5-0.6c-2.8,1.7-4.5,1.7-7,1.1c-3.5-1-3.6-4.9-6.3-4.4
					c2.8-1.5,3.8,1.6,6.2,2.8c2.9,1.5,6.4,0,6.5-2.3c0.1-2.7-3.1-5.2-7.3-5.2C16.1,58.6,13.7,59.2,11.4,60.9"/>
			</defs>
			<clipPath id="SVGID_11_">
				<use xlink:href="#SVGID_10_"  style="overflow:visible;"/>
			</clipPath>
			
				<linearGradient id="SVGID_12_" gradientUnits="userSpaceOnUse" x1="-171.3737" y1="-212.0387" x2="-170.3737" y2="-212.0387" gradientTransform="matrix(15.681 3.5319 -3.5319 15.681 1948.4384 3993.6509)">
				<stop  offset="0" style="stop-color:#8DC641"/>
				<stop  offset="1.098630e-02" style="stop-color:#8DC641"/>
				<stop  offset="5.396670e-02" style="stop-color:#83BD41"/>
				<stop  offset="0.2789" style="stop-color:#569F43"/>
				<stop  offset="0.4553" style="stop-color:#359043"/>
				<stop  offset="0.5604" style="stop-color:#258B43"/>
				<stop  offset="0.6961" style="stop-color:#197B3F"/>
				<stop  offset="0.8956" style="stop-color:#046838"/>
				<stop  offset="1" style="stop-color:#046838"/>
			</linearGradient>
			<polygon class="st5" points="9.3,53.1 36.7,59.3 32.4,78.5 5,72.4 			"/>
		</g>
	</g>
	<g>
		<g>
			<defs>
				<path id="SVGID_13_" d="M8.2,24.9c-0.1,0.1,2.9,0.7,2.7,4.4c-0.1,2.5,1.2,4.3,2.8,5.2c1.1-2.6,2.6-4.5,4.4-6
					c-1.8-2.2-4.2-2.9-4.9-3.3c2.9,0,4.8,1,6,2.3c1.5-1.1,2.8-1.7,4.1-2.4c-0.3-0.5-0.5-0.8-1.1-1.4c-1.3-1.3-3.3-1.8-5.4-1.8
					C13.7,22.2,10.2,23.4,8.2,24.9"/>
			</defs>
			<clipPath id="SVGID_14_">
				<use xlink:href="#SVGID_13_"  style="overflow:visible;"/>
			</clipPath>
			
				<linearGradient id="SVGID_15_" gradientUnits="userSpaceOnUse" x1="-174.7117" y1="-213.1023" x2="-173.7117" y2="-213.1023" gradientTransform="matrix(15.1745 0 0 15.1745 2659.3208 3262.1208)">
				<stop  offset="0" style="stop-color:#8DC641"/>
				<stop  offset="1.098630e-02" style="stop-color:#8DC641"/>
				<stop  offset="5.740550e-02" style="stop-color:#83BD41"/>
				<stop  offset="0.3003" style="stop-color:#569F43"/>
				<stop  offset="0.4909" style="stop-color:#359043"/>
				<stop  offset="0.6044" style="stop-color:#258B43"/>
				<stop  offset="0.7555" style="stop-color:#197D3F"/>
				<stop  offset="1" style="stop-color:#046938"/>
			</linearGradient>
			<rect x="8.1" y="22.2" class="st6" width="15.3" height="12.4"/>
		</g>
	</g>
	<g>
		<g>
			<defs>
				<path id="SVGID_16_" d="M63.6,23c-0.7,0.5-2,1-4.4,0.6c-2.8-0.5-5.2,0.3-6.3,1.9c1.9,0.9,3.8,2,5.7,3.8c2.2-1.1,4.2-2.2,4.7-3.5
					c-0.3,2.7-2.1,3.8-3.7,4.6c0.8,0.8,1.4,1.9,2,3c0.2,0.3,0.4,0.7,0.5,1l0.3-0.1c0.8-0.3,1-0.4,1.7-0.9c4.5-3.9,2.9-8.9,0.2-11.1
					l0,0C64.3,22.2,64.2,22.6,63.6,23"/>
			</defs>
			<clipPath id="SVGID_17_">
				<use xlink:href="#SVGID_16_"  style="overflow:visible;"/>
			</clipPath>
			
				<linearGradient id="SVGID_18_" gradientUnits="userSpaceOnUse" x1="-175.4829" y1="-212.1244" x2="-174.4829" y2="-212.1244" gradientTransform="matrix(14.0582 0 0 14.0582 2519.9155 3010.3372)">
				<stop  offset="0" style="stop-color:#8DC641"/>
				<stop  offset="1.098630e-02" style="stop-color:#8DC641"/>
				<stop  offset="5.740550e-02" style="stop-color:#83BD41"/>
				<stop  offset="0.3003" style="stop-color:#569F43"/>
				<stop  offset="0.4909" style="stop-color:#359043"/>
				<stop  offset="0.6044" style="stop-color:#258B43"/>
				<stop  offset="0.7555" style="stop-color:#197D3F"/>
				<stop  offset="1" style="stop-color:#046938"/>
			</linearGradient>
			<rect x="53" y="22.2" class="st7" width="15.7" height="12.1"/>
		</g>
	</g>
	<g>
		<g>
			<defs>
				<path id="SVGID_19_" d="M26.1,26c-3.6,2-11.6,4.5-11.8,16.5c-0.2,16.7,19.6,19.8,23.6,26c4-6,23.2-8.4,23.7-25.7
					c0.4-12-9.2-15.7-11.7-16.6c-4.3-1.6,0.5-7.8,0.5-7.8s-2.6,0.7-5.1,3.3c-2.6,2.7-1.6,4.3-0.3,5.4c1.8,1.9,7.9,6.5,7.6,15
					c-0.4,11.1-7.5,16.1-14.7,19.8v-0.1C30.7,58,23.7,53,23.4,41.9C23.2,33.3,29.1,28.8,31,27c1.3-1.1,2.2-2.7-0.3-5.4
					c-2.5-2.6-5.1-3.4-5.1-3.4S30.2,23.9,26.1,26"/>
			</defs>
			<clipPath id="SVGID_20_">
				<use xlink:href="#SVGID_19_"  style="overflow:visible;"/>
			</clipPath>
			
				<radialGradient id="SVGID_21_" cx="-168.2484" cy="-221.3746" r="1" gradientTransform="matrix(44.9712 0.307 -0.3116 45.8235 7536.2104 10210.9561)" gradientUnits="userSpaceOnUse">
				<stop  offset="0" style="stop-color:#F79421"/>
				<stop  offset="1.098630e-02" style="stop-color:#F79421"/>
				<stop  offset="7.367658e-02" style="stop-color:#F78E22"/>
				<stop  offset="0.1728" style="stop-color:#F47E24"/>
				<stop  offset="0.2959" style="stop-color:#F16125"/>
				<stop  offset="0.437" style="stop-color:#ED2B27"/>
				<stop  offset="0.4505" style="stop-color:#EC2227"/>
				<stop  offset="0.4833" style="stop-color:#E42229"/>
				<stop  offset="0.6733" style="stop-color:#CB2033"/>
				<stop  offset="0.8502" style="stop-color:#BD1F38"/>
				<stop  offset="1" style="stop-color:#B81F3A"/>
			</radialGradient>
			<polygon class="st8" points="14.1,17.9 62.3,18.2 62,68.8 13.8,68.4 			"/>
		</g>
	</g>
	<g>
		<path class="st9" d="M39.2,52.3c-0.2,1,1.7,0.5,2.3-0.4c0.4-0.7,2.6-4.5,2.6-4.5c0.7-1.3,0.5-2.6-1.4-1.9c-1.4,0.5-2.6,0.6-3,1.8
			L39.2,52.3z M42.6,43.1c1-0.8,2.7-3.2,2.7-3.2c1.3-1.6,1.3-3.3-0.6-4.9c-0.5-0.4-1.7-1.2-2.1,0.4l-1.9,7.7
			C40.5,43.5,41.5,43.9,42.6,43.1 M36.7,52.3l-0.5-4.9c-0.4-1.3-1.5-1.3-3-1.8c-2-0.7-2.2,0.5-1.4,1.9c0,0,2.5,4.3,2.7,4.6
			C35,52.9,36.8,53.3,36.7,52.3 M33,42.8c0.9,1,2.5,0.7,2.3,0.1l-1.9-7.5c-0.4-1.5-1.6-0.8-2.1-0.4c-1.9,1.6-1.9,3.3-0.6,4.9
			C30.6,39.9,32.5,42.2,33,42.8 M39,39.2l1.6-7.9c0.3-1.1,0.2-1.7-1.5-2.2c-0.4-0.1-0.8-0.2-1.2-0.2c-0.3,0-0.6,0-0.9,0.1
			c-1.8,0.5-2.1,1.1-1.7,2.3l1.5,7.9c0,0.3,0.7,0.6,1.2,0.6C38.3,39.8,38.9,39.5,39,39.2 M38,18.4c0.8,0.8,2.6,1.3,3.9,2.3
			c3.2,2.4-2.3,3.5,2.1,7.4c0,0.1,5.9,3.4,5.9,13.6C49.9,52.4,38,60.1,38,60.1s-11.9-7.7-11.9-18.4c0-10.2,6-13.6,5.9-13.6
			c4.5-4-1.5-5,2.4-7.6C35.8,19.6,37.4,19,38,18.4"/>
		<path class="st10" d="M49.8,6.5c-0.6,0-22.2,0-23.4,0c1.9,0.7,5.3,2.9,5.5,7.2v1.4L31.6,20c1.1-1.2,5.3-2.6,6.3-3.4
			c1,0.8,3.8,1.5,6.4,3.2L44,15.1l0,0c0,0-0.1-0.2,0-1.4C44.2,10.4,47.1,7,49.8,6.5"/>
		<path class="st10" d="M44.1,85.5C43.7,82.2,44.3,69,44.2,68c0,0-0.9-0.3-2.7,0.4c-1.7,0.7-3.1,2.8-3.4,3.2
			c-0.3-0.4-1.7-2.6-3.4-3.2C32.9,67.7,32,68,32,68c0,1.1,0.5,14.3,0.1,17.5c-0.9,5.6-4.3,6.9-5.7,7.4h23.4
			C48.4,92.3,45,91.1,44.1,85.5"/>
		<path class="st10" d="M12.6,37.8c0,0-3,0.3-5.7,0.3s-6.3-1.4-6.8-2.8v16.5c0.8-1.9,3.4-2.9,7-2.9c1.6,0,6.2,0.4,6.2,0.4
			C11.5,45.9,11.7,40.1,12.6,37.8"/>
		<path class="st10" d="M63.5,37.7c0,0,3,0.3,5.7,0.3s6.3-1.3,6.8-2.7v16.4c-0.8-1.9-3.4-2.9-7-2.9c-1.6,0-6.3,0.4-6.3,0.4
			C64.3,45.9,64.3,39.8,63.5,37.7"/>
	</g>
</g>
</svg>
