<svg xmlns="http://www.w3.org/2000/svg" xmlns:xlink="http://www.w3.org/1999/xlink" id="Layer_1" x="0px" y="0px" width="822.047px" height="216.237px" viewBox="0 0 822.047 216.237" xml:space="preserve"><path fill="#C8202F" d="M0,108.118C0,48.404,48.403,0,108.116,0c59.712,0,108.119,48.404,108.119,108.118 c0,59.715-48.407,108.119-108.119,108.119C48.403,216.237,0,167.833,0,108.118"></path><path fill="#FFFFFF" d="M114.11,121.042c0.247-0.123,0.5-0.205,0.636-0.381c0.094-0.078,0.39-0.43,0.295,0.088 c0,0-0.324,0.721-0.477,0.816c-0.153,0.1-0.485,0.313-0.555,0.338c-0.067,0.025-0.15,0.018-0.221-0.09 c-0.015-0.023-0.084-0.439-0.122-0.334C113.687,121.381,113.863,121.168,114.11,121.042 M115.65,123.165 c0,0-0.182,0.539-0.349,0.678l-0.337,0.271c-0.052,0.037-0.09,0.166-0.222-0.018c-0.044-0.053-0.098-0.232-0.117-0.311 c-0.017-0.076-0.207-0.186,0.123-0.422c0.147-0.15,0.605-0.469,0.708-0.564C115.556,122.704,115.868,122.385,115.65,123.165  M116.563,123.542c-0.006-0.367,0.178-0.414,0.245-0.453c0.456-0.248,1.067-0.018,1.145,0.006c0.772,0.066,1.655,1.291,1.781,1.457 c0.249,0.26,1.015,1.895,1.363,2.641h0.004c0.09,0.195,0.151,0.326,0.167,0.352c0.507,0.875,1.675,1.299,1.8,1.369 c0.718,0.33,2.763,0.549,2.899,0.566c1.622,0.166,2.165,0.398,2.246,0.432c1.629,0.559,2.177,1.773,2.269,1.924 c0.094,0.146-0.073,0.164-0.123,0.094c-0.143-0.205-0.34-0.385-0.457-0.508c-0.538-0.6-1.423-0.838-1.817-0.955 c-0.843-0.273-2.436-0.225-3.068-0.201c-0.628,0.023-0.929,0.396-1.053,0.525c-0.395,0.395-0.234,1.197-0.218,1.414 c0.078,0.605,0.591,0.459,0.744,0.445c0.433-0.064,0.799-0.633,0.868-0.727c0.111-0.15,0.126,0.008,0.105,0.09 c-0.021,0.24-0.122,0.357-0.176,0.461c-0.134,0.301-0.588,0.537-0.701,0.6c-0.113,0.059-0.421,0.225-0.693,0.32 c-0.431,0.158-0.607,0.057-0.712,0.012c-0.207-0.09-0.374-0.51-0.433-0.619c-0.063-0.113-0.153-0.15-0.222-0.16 c-0.197-0.033-0.194,0.07-0.238,0.197c-0.042,0.197-0.065,0.221-0.122,0.338c-0.374,0.703-0.188,0.943-0.107,1.066 c0.53,0.682,1.417,0.377,1.522,0.354c0.343-0.064,0.691-0.484,0.816-0.6c0.124-0.117,0.082,0.148,0.051,0.25 c-0.03,0.242-0.484,0.607-0.622,0.701c-0.105,0.09-0.276,0.176-0.463,0.26h-0.008c-0.266,0.109-0.563,0.201-0.745,0.266 c-0.481,0.168-0.67,0.543-0.77,0.645c-0.337,0.383-0.126,0.654-0.08,0.711c0.201,0.227,0.655,0,0.781-0.045 c0.82-0.244,1.645-1.043,1.905-1.322c0.058-0.064,0.115-0.154,0.167-0.252c0,0,0.301-0.777,0.354-0.834 c0.021,0.035-0.004,0.551,0,0.619c-0.004,0.061-0.007,0.117-0.015,0.215h-0.002c-0.044,0.445-0.22,0.713-0.289,0.824 c-0.322,0.637-1.833,1.398-2.12,1.527c-0.283,0.133-0.237,0.248-0.243,0.396c-0.01,0.148-0.14,0.586-0.159,0.791 c-0.038,0.379,0.134,0.309,0.224,0.309c0.09-0.004,0.373-0.215,0.477-0.273c0.477-0.189,1.246-0.869,1.323-0.941 c0.523-0.375,0.507-0.719,0.626-0.998c0.046-0.014,0.025,0.172,0.029,0.299c-0.006,0.23-0.107,0.467-0.171,0.709 c-0.082,0.352-0.361,0.408-0.48,0.496c-0.672,0.381-0.54,0.986-0.569,1.246c-0.025,0.205,0.04,0.945,0.073,1.613h-0.002 c0.011,0.201,0.017,0.393,0.013,0.561c-0.002,0.723-0.693,0.58-0.969,0.568c-0.247-0.014-0.392,0.086-0.48,0.166l-6.85-16.68 c0.002,0,0.004,0.002,0.004,0.002c0.423-0.154,0.669-0.459,0.747-0.527C116.676,124.825,116.569,123.907,116.563,123.542  M130.844,134.024c0.109,0.314,0.184,0.725,0.237,1.17c0.199,1.764,0.006,4.197,0,4.484c-0.059,0.406-0.141,0.934-0.128,1.592h0.002 c-0.071,1.6-0.056,3.457-0.075,3.643c-0.071,0.967,0.443,0.818,0.565,0.832c0.257,0.016,1.293-0.727,1.429-0.814 c0.798-0.598,1.265-0.537,1.438-0.539c0.172-0.004,0.208,0.1,0.191,0.148c-0.017,0.07-0.325,0.213-0.477,0.32 c-0.574,0.322-1.093,0.895-1.44,1.332l0.002,0.002c-0.168,0.205-0.295,0.385-0.373,0.484c-0.739,0.977,0.113,1.514,0.358,1.68 c-0.082,0.158-0.322,0.352-0.506,0.459c-0.821,0.443-1.625-0.316-1.698-0.418c-0.136-0.137-0.239-0.029-0.289,0.037 c-0.402,0.783,0.088,1.203,0.176,1.326c0.653,0.74,1.553,0.244,1.674,0.209c0.685-0.219,1.595-1.234,1.679-1.336 c0.153-0.195,0.172-0.092,0.157-0.023c0.019,0.154-0.23,0.658-0.347,0.869c-0.283,0.623-1.972,1.41-2.125,1.463 c-0.178,0.076-0.337,0.156-0.477,0.246h0.031h-0.033c-1.061,0.686-1.118,1.814-1.101,1.936c0.002,0.186,0.107,0.168,0.174,0.168 c0.071,0,0.083-0.123,0.117-0.209c0.035-0.086,0.119-0.141,0.188-0.158c0.308-0.055,0.873-0.293,0.923-0.324 c0.54-0.211,1.298-0.922,1.804-1.404h-0.002c0.231-0.219,0.411-0.391,0.488-0.443c0.015,0.154,0,0.303-0.04,0.447h-0.002 c-0.178,0.646-0.827,1.158-1.059,1.359c-0.358,0.316-1.12,0.984-1.392,1.279c-0.812,0.771-0.743,1.631-0.755,1.924 c-0.013,0.295,0.106,0.275,0.173,0.256c0.069-0.016,0.153-0.207,0.218-0.295c0.188-0.262,1.086-0.898,1.239-0.969 c0.343-0.178,0.762-0.77,0.984-1.068c0.084,0.053-0.05,0.313-0.063,0.449c-0.031,0.225-0.149,0.4-0.213,0.504 c-0.509,0.611-0.704,1.113-0.804,1.34c-0.565,1.246-0.322,3.24-0.302,3.377c0.093,0.461-0.06,0.568-0.18,0.656 c-0.253,0.26-0.929-0.137-1.138-0.188c-0.205-0.049-0.595,0.061-0.666,0.133l-4.335-10.557c0.086,0.125,0.145,0.197,0.162,0.201 c0.343-0.037,0.527-0.301,0.828-0.701c0.304-0.4,0.306-1.125,0.287-1.33c-0.004-0.277-0.107-0.842-0.222-1.375h0.002 c-0.111-0.518-0.226-1.01-0.272-1.195c-0.188-0.893,0.042-1.566,0.174-1.896c0.08-0.195,0.942-2.99,0.994-3.168 c0.111-0.371,0.909-3.615,1.174-4.668h0.009c0.042-0.209,0.065-0.297,0.071-0.326c0.065-0.24,0.153-0.191,0.237-0.227 c0.083-0.035,2.036-0.707,2.155-0.777C130.788,133.87,130.823,133.956,130.844,134.024 M135.648,143.956 c0.232-0.127,1.097-0.773,1.406-0.957c0.312-0.184,1.12-0.795,1.892-0.963c0.201-0.063,0.917-0.199,1.242-0.191 c0.324,0.006,0.638-0.068,0.506,0.045l-0.343,0.297c0,0-0.611,0.371-1.538,0.648c-0.21,0.047-0.947,0.297-1.292,0.629 c-0.077,0.055-0.617,0.357-0.136,0.48c0.205,0.102,0.655,0.293,0.925,0.313c0.124,0.02,0.442,0.127,0.107,0.234 c-0.136,0.035-0.333,0.139-0.975,0.07c-0.216-0.016-0.867-0.219-1.221-0.293c-0.347-0.07-0.506-0.125-0.584-0.123 C135.56,144.145,135.254,144.153,135.648,143.956 M135.865,140.403c0.45,0.061,1.256,0.035,2.016-0.17 c0.76-0.203,1.98-0.482,2.305-0.453c0.326,0.027,0.875,0.086,0.99,0.117c0.113,0.033,0.617,0.1,0.148,0.178 c-0.471,0.074-1.965,0.494-2.447,0.578c-0.473,0.086-1.352,0.258-1.199,0.541c0.002,0,0.002,0.004,0.006,0.01 c0,0,0.162,0.301,0.402,0.467c0.113,0.072,0.318,0.191,0.105,0.209c-0.124,0.021-0.873,0.012-1.547-0.537 c-0.019-0.014-0.048-0.041-0.084-0.074c-0.276-0.303-0.711-0.654-0.772-0.705C135.708,140.499,135.415,140.344,135.865,140.403  M142.584,141.338c0.074-0.041,0.147-0.09,0.224-0.141h0.004c0.367-0.244,0.746-0.582,0.856-0.887 c0.059-0.139,0.147-0.492,0.118-0.674c-0.03-0.178-0.092-0.324-0.3-0.227c-0.115,0.055-0.408,0.197-0.466,0.26 c-0.059,0.061-0.203,0.227-0.155,0.498c0.048,0.275,0.102,0.455,0.096,0.553c-0.23,0.166-0.333,0.184-0.337,0.055 c0-0.127-0.059-0.428-0.161-0.596c-0.046-0.096-0.27-0.498,0.107-0.77c0.372-0.271,0.644-0.467,0.787-0.506 c0.146-0.035,0.387-0.117,0.483-0.025c0.099,0.094,0.247,0.246,0.235,0.133c-0.011-0.109-0.164-0.416-0.134-0.666 c0.016-0.15,0.123-0.512,0.401-0.67c0.137-0.078,0.404-0.242,0.685-0.254c0.282-0.012,0.584-0.035,0.749-0.029 c0.163,0.006,0.335-0.016,0.36,0.008c0.027,0.027,0.166,0.164,0.03,0.234c-0.137,0.072-0.34,0.102-0.513,0.123 c0,0-0.75,0.064-0.892,0.227c-0.065,0.074-0.295,0.211-0.059,0.975c0.107,0.316,0.325,0.861,0.404,1.02 c0.08,0.152,0.197,0.34,0.155,0.436s-0.1,0.137-0.293,0.125c-0.098-0.008-0.351-0.107-0.605,0.176 c-0.048,0.037-0.33,0.266-0.747,0.533c0,0-0.427,0.354-0.544,0.406c-0.272,0.123-0.53,0.305-0.597,0.328 c-0.052,0.02-0.393,0.225,0.09,0.23c0.214-0.004,0.543,0.01,0.974-0.301c0.425-0.303,0.707-0.598,0.887-0.664 c0,0,0.699-0.145,0.881-0.055h0.007h-0.009c0.021,0.012,0.04,0.021,0.057,0.033c0.234,0.178,0.628,0.506,0.751,0.752 c0.128,0.248,0.279,0.654,0.724,0.529c0.162-0.045,0.325-0.158,0.478-0.293c0.15-0.129,0.345-0.344,0.397-0.402 c0.048-0.049,0.185-0.217,0.264-0.146c0.036,0.041,0.088,0.115,0.054,0.219c-0.031,0.104-0.313,0.594-0.757,0.877 c-0.111,0.088-0.413,0.434-0.873,0.307c-0.094-0.041-0.28-0.125-0.383-0.199c-0.105-0.076-0.337-0.184-0.523,0.035 c-0.095,0.076-0.314,0.324-0.8,0.342c-0.132,0.018-0.689,0.053-0.728-0.076c-0.019-0.078-0.032-0.266-0.065-0.371 c-0.019-0.072-0.021-0.271,0.029-0.197c0.057,0.078,0.216,0.42,0.54,0.355c0.155-0.029,0.557-0.166,0.544-0.33 c0-0.094-0.111-0.359-0.24-0.453c-0.13-0.09-0.434-0.275-0.781-0.008c-0.105,0.043-0.766,0.525-1.068,0.549 c-0.299,0.023-0.927,0.059-1.391-0.42c-0.145-0.146-0.499-0.525-0.509-0.578c-0.006-0.051-0.124-0.152,0.308-0.141 C141.762,141.584,142.168,141.579,142.584,141.338 M146.314,139.567c-0.259,0.145-0.207,0.002-0.218-0.027 c-0.027-0.207,0.076-0.674,0.109-0.785c0.013-0.225,0.097-0.271,0.138-0.279c0.076,0.256,0.229,0.641,0.229,0.641 c0.119,0.371,0.031,0.318-0.011,0.346C146.515,139.487,146.39,139.526,146.314,139.567 M146.477,140.063 c0.084-0.016,0.222-0.088,0.222-0.088s0.151-0.055,0.26,0.098c0.107,0.152,0.343,0.348,0.421,0.467 c0.081,0.121,0.152,0.383,0.094,0.377c-0.061-0.006-0.237-0.127-0.486-0.225c-0.253-0.096-0.513-0.25-0.584-0.359 C146.369,140.28,146.228,140.12,146.477,140.063 M146.358,135.907c0.18-0.232,0.415-0.527,0.569-0.713l0.003-0.008 c0.075-0.094,0.136-0.16,0.165-0.184c0.086-0.07,0.113-0.334,0.201-0.348c0.088-0.01,0.341-0.074,0.718-0.07l0.952-0.041 c0.036-0.004,0.394-0.055,0.258,0.125c-0.053,0.07-0.153,0.271-0.4,0.27c-0.243-0.006-0.762,0.002-0.804,0.002 c-0.042,0.004-0.134-0.006-0.347,0.172c-0.021,0.02-0.046,0.043-0.076,0.074h-0.004c-0.26,0.26-0.766,0.885-0.95,1.074 c-0.205,0.215-0.396,0.408-0.421,0.43c-0.023,0.018-0.199,0.203-0.176-0.053C146.069,136.385,146.086,136.254,146.358,135.907  M149.282,137.219c-0.084,0.039-0.778,0.309-0.339,0.652c0,0,0.174,0.193,0.366,0.275c0.067,0.041,0.285,0.195,0.036,0.207 c-0.247,0.012-0.881,0.119-1.291-0.166c-0.061-0.041-0.62-0.377-0.306-1.008c0.052-0.072,0.389-0.465,0.429-0.863 c0.023-0.1,0.036-0.359-0.054-0.576c0.077,0.096,0.267,0.197,0.36,0.4c0.088,0.205,0.28,0.494,0.148,0.686 c-0.069,0.104-0.289,0.281,0.117,0.256c0.208,0.006,0.448,0.004,0.515,0.01C149.332,137.098,149.452,137.131,149.282,137.219  M149.575,139.176c0,0-0.142,0.619,0.124,0.668c0.144,0.033,0.343,0.039,0.395,0.037c0.023,0.18-0.098,0.338-0.171,0.408 c-0.08,0.072-0.128,0.154,0.071,0.189c0.197,0.027,0.425,0.223,0.567,0.484c0.031,0.063,0.073,0.141,0.111,0.23h0.002 c0.065,0.16,0.094,0.258,0.094,0.336c-0.088-0.021-0.259-0.189-0.5-0.332h-0.008h0.008c-0.157-0.094-0.343-0.18-0.557-0.201 c-0.182-0.021-0.483,0.045-0.607-0.203c-0.044-0.096-0.467-0.611-0.201-1.133c0.065-0.184,0.124-0.467,0.454-0.637 C149.41,138.981,149.653,138.737,149.575,139.176 M149.983,135.907c0.337,0.016,0.842,0.016,1.003,0.217 c0.067,0.078,0.132,0.203-0.021,0.363c0,0-0.356,0.34-0.463,0.529c-0.136,0.123-0.288,0.275-0.098-0.109 c0.034-0.076,0.14-0.311-0.084-0.488c-0.081-0.066-0.335-0.293-0.448-0.377C149.837,136.006,149.646,135.899,149.983,135.907  M151.541,141.913c0.113-0.027,0.274-0.084,0.395-0.084c0.119-0.004,0.31,0.002,0.191,0.125c-0.12,0.119-0.379,0.498-0.632,0.674 c-0.256,0.176-0.81,0.418-1.258,0.41c-0.448-0.01-1.078,0-1.415-0.156c-0.067-0.035-0.421-0.09-0.442-0.191 c-0.019-0.094-0.09-0.256,0.222-0.221c0.308,0.039,1.44,0.182,1.612,0.164c0.169-0.021,0.648-0.143,0.81-0.316 C151.024,142.317,151.43,141.938,151.541,141.913 M151.804,139.104c0,0,0.35,0.008,0.576,0.125c0.105,0.068,0.322,0.158,0.153,0.318 c-0.061,0.053-0.168,0.141-0.233,0.41c-0.065,0.264-0.157,0.457-0.301,0.539l-0.036-0.105c0.038-0.146,0.097-0.373-0.115-0.602 c-0.077-0.066-0.349-0.389-0.508-0.516C151.304,139.233,150.967,139.04,151.804,139.104 M143.591,143.85 c-0.195,0.146-1.716,1.313-2.434,2.344h-0.002c-0.063,0.096-0.118,0.184-0.166,0.271c-0.079,0.104-0.46,0.646-0.282,0.678 c0.159,0.031,0.709,0.055,1.394-0.574c0.077-0.059,0.561-0.559,0.301,0.061c0,0-0.425,1.299-2.085,1.35 c-0.087,0.004-0.941,0.096-1.54-0.242c-0.059-0.041-0.442-0.215,0.073-0.258c0.258-0.027,0.706-0.104,1.189-0.75 c0.078-0.092,0.207-0.307,0.207-0.307s0.12-0.205-0.217-0.197c-0.335,0.004-0.789-0.102-1.415,0.516 c-0.101,0.117-0.421,0.434-0.519,0.615c-0.042,0.102-0.252,0.354-0.166,0.004c0.063-0.262,0.168-0.754,0.266-1.164h0.002 c0.029-0.145,0.061-0.271,0.088-0.381c0.052-0.18,0.073-0.627,0.787-1.113c0.708-0.484,1.775-1.143,2.007-1.367 c0.099-0.115,0.172-0.297,0.283-0.377c0.059-0.047,0.234-0.295,0.14,0.088c-0.033,0.09-0.157,0.756-0.647,1.076 c-0.485,0.322-1.442,0.979-1.647,1.309c-0.044,0.078-0.366,0.309,0.107,0.379c0.247,0.053,0.607,0.104,0.789,0.223 c0.105,0.088,0.241,0.207,0.45-0.053c0.207-0.264,1.396-1.586,2.076-1.947c0.122-0.059,0.377-0.215,0.563-0.242 C143.386,143.764,143.8,143.69,143.591,143.85 M132.378,164.803c-0.219,0.158-0.282,0.33-0.376,0.354 c-0.095,0.031-0.325,0.084-0.354-0.045c-0.057-0.268-0.272-0.455-0.078-0.639c0.195-0.182,0.206-0.15,0.273-0.186 c0,0,0.487-0.238,0.565-0.379c0.054-0.115,0.165-0.314,0.19-0.314c0.027,0,0.086,0.031,0.082,0.172 C132.674,163.905,132.598,164.643,132.378,164.803 M130.919,163.079c-0.041,0.018-0.104-0.043-0.192-0.137 c-0.046-0.043-0.145-0.295,0.092-0.523l0.461-0.453c0.136-0.131,0.267-0.273,0.347-0.305c0.077-0.039,0.283-0.111,0.249,0.047 c-0.029,0.154-0.14,0.424-0.157,0.455c0,0-0.264,0.559-0.517,0.732C130.945,163.073,130.961,163.057,130.919,163.079  M124.567,147.483c-0.088,0.037-0.195-0.035-0.276-0.182c-0.034-0.076-0.178-0.213,0.094-0.48c0.27-0.273,0.498-0.434,0.571-0.563 c0.011-0.018,0.023-0.041,0.038-0.063h0.002c0.094-0.141,0.289-0.363,0.308-0.002v0.152c0,0-0.122,0.586-0.279,0.725 C124.914,147.184,124.651,147.448,124.567,147.483 M123.633,145.299c-0.043,0.023-0.054,0.031-0.186-0.148 c-0.063-0.066-0.299-0.285-0.046-0.557c0.13-0.15,0.643-0.498,0.71-0.586c0.065-0.084,0.477-0.689,0.236,0.375 c0,0-0.224,0.52-0.408,0.686C123.751,145.235,123.675,145.272,123.633,145.299 M93.987,142.526 c-0.142-0.012-0.425,0.174-0.486,0.215c-0.106,0.076-0.481,0.152-0.764,0.213c-0.284,0.057-0.634,0.346-0.703,0.436 c-0.207,0.326-0.142-0.047-0.073-0.176c0.067-0.125,0.379-0.703,0.515-1.023c0.324-0.717-0.182-1.154-0.415-1.309 c-0.234-0.158-0.36-0.354-0.399-0.582c-0.017-0.09-0.237-0.857-0.509-1.787c0,0-0.952-3.219-1.065-3.576 c-0.394-1.184-0.959-1.066-1.208-1.063c-0.247,0.002-0.973,0.336-1.626,0.596c-0.656,0.262-1.248-0.084-1.447-0.184 c-2.147-0.641-3.259-0.176-3.489-0.121c-0.23,0.059-0.136,0.271-0.117,0.395c0.019,0.123,0.04,1.119-0.011,1.533 c-0.044,0.408-0.291,1.604-0.339,1.906c-0.046,0.303-0.104,0.074-0.123,0.002s0.025-0.621,0.019-0.922 c0.1-1.371-0.12-1.834-0.289-2.256c-0.166-0.426-0.36-0.246-0.448-0.207c-0.086,0.035-0.421,0.291-0.703,0.473 c-0.283,0.184-0.162-0.047-0.109-0.141c0.05-0.088,0.753-0.635,1.053-0.836c0.86-0.652,3.434-1.053,3.842-1.08 c2.556-0.346,3.234-1.213,3.534-1.467c0.477-0.496-0.08-1.143-0.09-1.156c-0.348-0.422,0.1-0.285,0.24-0.27 c0.287,0.086,0.467,0.23,0.597,0.381h0.004c0.067,0.074,0.126,0.15,0.176,0.209c0.418,0.459,0.249,0.973,0.182,1.156 c-0.105,0.303,0.391,0.063,0.603-0.031c0.722-0.277,0.764-0.973,0.76-1.293v-0.041c-0.07-0.961-1.817-1.762-2.171-1.896 c-0.356-0.135-0.071-0.156-0.071-0.156s0.32,0.008,0.552,0.059c0.375,0.066,1.181,0.355,1.43,0.49 c0.594,0.277,1.566-0.061,1.94-0.139c0.369-0.078,1.059-0.305,1.382-0.344c0.638-0.102,0.188-0.309,0.1-0.396 c-0.653-0.537-2.378-0.543-2.662-0.574c-0.802-0.076-1.074-0.371-1.166-0.459c-0.308-0.189-0.073-0.16-0.002-0.162 c0.249-0.004,0.605,0.168,0.839,0.252c0.484,0.205,1.191-0.127,1.472-0.256c0.282-0.129,1.182-0.662,1.484-0.791 c0.598-0.244,0.221-0.324,0.1-0.377c-0.128-0.047-0.576-0.184-0.753-0.232c-1.66-0.26-3.437,0.717-3.582,0.771 c-0.475,0.24-0.196-0.033-0.073-0.16c0.626-0.861,2.33-1.248,2.631-1.291c0.301-0.039,0.44-0.133,0.492-0.184 c0.054-0.055,0.473-0.434,0.737-0.656c0.596-0.539,3.407-1.447,4.012-1.648c0.601-0.209,0.999,0.244,1.235,0.49 c0.324,0.314,0.519,0.135,0.643,0.078c0.332-0.184,0.433-0.561,0.538-0.758c0.154-0.25,0.194,0.031,0.177,0.139 c-0.031,0.145,0.051,0.766,0.124,0.943c0.161,0.66,0.628,1.211,0.823,1.387L93.987,142.526z M87.712,157.809 c-0.237-0.17-0.446-0.195-0.588-0.205c-0.484-0.047-1.059,0.516-1.128,0.621c-0.212,0.201-0.162-0.063-0.162-0.063l0.22-0.576 c0.084-0.338,0.339-0.877,0.408-1.057c0.312-0.576-0.025-0.479-0.169-0.531c-0.178-0.053-0.394-0.225-0.54-0.361 c-0.773-0.523-0.942-1.961-1.074-2.529c-0.136-0.566-0.157-0.797-0.306-1.168c-0.59-1.182-0.82-3.047-0.898-3.561 c-0.133-0.732-0.477-1.857-0.477-1.857c-0.732-2.295-1.63-2.639-1.773-2.75c-1.136-0.709-2.53-0.076-2.813,0.055 c-0.282,0.125-0.161-0.125-0.111-0.182c0.053-0.051,0.316-0.344,0.44-0.449c0.596-0.545,2.039-0.32,2.539-0.188 c0.502,0.135,0.479-0.186,0.565-0.385c0.222-0.41,0.071-2.137,0.042-2.74c-0.029-0.602,0.153-0.412,0.203-0.412 c0.056-0.002,0.305,0.086,0.504,0.152c0.697,0.271,0.733,1.193,0.752,1.445c0.023,0.248,0.182,0.156,0.253,0.139 c0.071-0.023,0.247-0.201,0.402-0.414c0.494-0.852-0.379-2.002-0.549-2.281h-0.004c0-0.004-0.002-0.004-0.006-0.01 c-0.314-0.666,0.069-0.285,0.176-0.16c0.029,0.033,0.077,0.092,0.146,0.17h0.009c0.201,0.229,0.556,0.613,0.931,0.895 c0.507,0.383,1.304,0.229,1.8,0.166c0.978-0.127,0.122-0.375-0.274-0.549c-0.193-0.08-0.465-0.279-0.705-0.512 c-0.258-0.236-0.478-0.502-0.545-0.691c-0.129-0.371,0.105-0.199,0.105-0.199s0.249,0.141,0.463,0.188 c0.573,0.201,1.603,0.043,1.94-0.051s0.408-0.043,0.429,0.01c0.015,0.053,0.291,0.813,0.291,0.813 c0.002,0.006,0.004,0.012,0.006,0.02c0.132,0.424,1.447,3.266,1.612,3.602s0.236,0.475,0.276,0.654 c-0.027,0.463,0.032,1.867,0.109,2.186c0.08,0.318,0.306,0.137,0.429,0.025c0.124-0.107,0.49-0.451,0.63-0.648 c0.207-0.273,0.23-0.059,0.178-0.006c-0.052,0.055-0.119,0.322-0.153,0.465c-0.1,0.414,0.36,1.367,0.49,1.629 c0.004,0.006,0.006,0.016,0.011,0.016v0.004c0.096,0.203,0.203,0.479,0.282,0.652L87.712,157.809z M75.808,149.936 c-0.188,0.018-1.144-0.082-1.404-0.104c-1.81-0.119-2.79-2.242-2.79-2.242c-0.421-1.17,0.063-0.604,0.119-0.484 c0.063,0.119,0.915,0.881,1.045,1.031c1.584,1.449,2.683,1.547,2.955,1.578C76.359,149.823,75.938,149.936,75.808,149.936  M63.275,150.137c-0.048,0.266-0.195,0.127-0.301,0.096c-0.143-0.035-0.205-0.531-0.205-0.531c0.169-0.43,0.351-0.289,0.462-0.201 C63.409,149.672,63.309,149.94,63.275,150.137 M61.927,146.198c-0.109,0.021-0.406,0.168-0.452-0.432 c-0.042-0.287,0.036-0.891,0.14-1.123c0,0,0.444-0.895,0.515-0.949c0.071-0.053,0.224-0.27,0.389-0.043 c0.164,0.23,0.457,0.791,0.484,1.287c0.04,0.16,0.22,0.475-0.341,0.875C62.402,146.012,62.136,146.176,61.927,146.198  M96.038,101.667c-0.176,0.136-0.364,0.596-0.49,0.845c-0.123,0.247-0.102,0.27-0.194,0.295c-0.122,0.04-0.387-0.144-0.498-0.215 c-0.111-0.071-0.061-0.191-0.034-0.258c0.029-0.069,0.209-0.33,0.308-0.483c0.096-0.155,0.816-0.477,0.816-0.477 C96.465,101.279,96.116,101.575,96.038,101.667 M93.897,100.958c-0.094,0.101-0.412,0.561-0.561,0.703 c-0.241,0.331-0.257,0.256-0.331,0.237c-0.079-0.017-0.27-0.163-0.32-0.209c-0.188-0.13-0.061-0.281-0.025-0.331l0.195-0.245 c0.14-0.172,0.676-0.349,0.676-0.349C94.309,100.542,93.993,100.859,93.897,100.958 M90.893,101.042l-16.692-6.855 c0.084-0.088,0.186-0.234,0.174-0.488c-0.013-0.272-0.155-0.967,0.569-0.969c0.722-0.004,1.909,0.115,2.173,0.088 c0.259-0.033,0.868,0.099,1.245-0.571c0.088-0.122,0.147-0.4,0.496-0.48c0.243-0.064,0.479-0.167,0.71-0.173 c0.127,0,0.312-0.019,0.299,0.027c-0.278,0.123-0.624,0.103-0.998,0.626c-0.069,0.079-0.75,0.85-0.942,1.327 c-0.059,0.102-0.268,0.385-0.272,0.475c0,0.094-0.072,0.264,0.307,0.224c0.205-0.019,0.643-0.149,0.791-0.159 c0.153-0.009,0.268,0.044,0.398-0.243c0.132-0.285,0.892-1.8,1.526-2.12c0.13-0.08,0.465-0.3,1.038-0.304 c0.069,0,0.588-0.021,0.62,0c-0.067,0.065-0.808,0.262-1.087,0.521c-0.278,0.26-1.073,1.083-1.316,1.903 c-0.048,0.128-0.276,0.58-0.048,0.779c0.054,0.048,0.326,0.259,0.709-0.078c0.107-0.1,0.478-0.289,0.645-0.77 c0.109-0.306,0.306-0.957,0.527-1.218c0.093-0.134,0.457-0.586,0.7-0.616c0.104-0.037,0.366-0.075,0.251,0.049 c-0.118,0.125-0.536,0.473-0.599,0.816c-0.025,0.1-0.326,0.99,0.352,1.519c0.125,0.084,0.362,0.268,1.065-0.108 c0.117-0.055,0.14-0.078,0.339-0.12c0.126-0.042,0.23-0.042,0.197-0.236c-0.008-0.071-0.042-0.163-0.155-0.22 c-0.113-0.059-0.536-0.228-0.624-0.435c-0.044-0.107-0.146-0.279,0.011-0.714c0.096-0.272,0.263-0.58,0.324-0.693 c0.059-0.115,0.295-0.569,0.597-0.701c0.104-0.057,0.219-0.157,0.46-0.176c0.082-0.019,0.243-0.006,0.092,0.107 c-0.096,0.065-0.663,0.435-0.728,0.868c-0.013,0.151-0.159,0.664,0.446,0.743c0.22,0.013,1.017,0.178,1.417-0.217 c0.125-0.124,0.5-0.427,0.521-1.057c0.023-0.628,0.075-2.225-0.197-3.064c-0.033-0.101-0.071-0.237-0.121-0.39 c-0.147-0.437-0.39-1.032-0.833-1.429c-0.128-0.118-0.306-0.316-0.511-0.459c-0.067-0.046-0.054-0.217,0.094-0.123 c0.14,0.092,1.237,0.584,1.823,2.011h0.002c0.036,0.086,0.067,0.172,0.097,0.26c0.033,0.081,0.265,0.621,0.431,2.244 c0.021,0.14,0.236,2.183,0.567,2.898c0.069,0.132,0.494,1.296,1.369,1.805c0.073,0.039,0.906,0.418,1.681,0.801h0.012 c0.599,0.3,1.156,0.595,1.298,0.729c0.172,0.13,1.394,1.013,1.459,1.781c0.023,0.082,0.253,0.695,0.002,1.147 c-0.036,0.069-0.084,0.251-0.45,0.245c-0.366-0.006-1.281-0.113-1.737,0.427c-0.074,0.079-0.375,0.328-0.53,0.749 C90.887,101.03,90.889,101.037,90.893,101.042 M71.693,90.557c-0.376-0.093-2.019-0.482-2.568-0.492 c-0.207-0.019-0.931-0.017-1.333,0.284c-0.4,0.306-0.661,0.49-0.701,0.835c0.004,0.017,0.09,0.082,0.238,0.181l-10.605-4.354 c0.004,0,0.008,0,0.014-0.002c0.067-0.067,0.178-0.461,0.132-0.668c-0.048-0.207-0.45-0.885-0.188-1.139 c0.088-0.119,0.195-0.272,0.659-0.177c0.136,0.018,2.127,0.263,3.376-0.302c0.224-0.1,0.727-0.299,1.34-0.804 c0.102-0.065,0.278-0.186,0.502-0.215c0.136-0.013,0.396-0.147,0.448-0.059c-0.295,0.218-0.889,0.637-1.067,0.98 c-0.071,0.153-0.708,1.05-0.967,1.237c-0.088,0.067-0.279,0.153-0.298,0.22c-0.016,0.069-0.035,0.188,0.256,0.175 c0.291-0.012,1.151,0.055,1.923-0.755c0.295-0.272,0.963-1.034,1.281-1.392c0.243-0.289,0.949-1.187,1.807-1.103 c-0.174,0.257-1.541,1.505-1.846,2.29c-0.034,0.052-0.268,0.617-0.327,0.925c-0.017,0.067-0.071,0.153-0.155,0.184 c-0.088,0.036-0.207,0.048-0.211,0.119c0,0.069-0.019,0.17,0.167,0.172c0.14,0.023,1.572-0.057,2.181-1.578 c0.055-0.153,0.84-1.842,1.465-2.125c0.03-0.016,0.065-0.035,0.105-0.054c0.241-0.128,0.628-0.308,0.76-0.293 c0.071-0.015,0.171,0.004-0.019,0.157c-0.019,0.014-0.075,0.065-0.153,0.136c-0.318,0.295-1.007,0.992-1.182,1.542 c-0.038,0.12-0.534,1.026,0.211,1.675c0.117,0.088,0.542,0.578,1.323,0.178c0.069-0.053,0.171-0.153,0.035-0.293 c-0.1-0.069-0.86-0.875-0.414-1.691c0.107-0.189,0.297-0.425,0.454-0.511c0.168,0.245,0.703,1.097,1.679,0.358 c0.247-0.184,0.917-0.66,1.427-1.258h0.009c0.146-0.178,0.278-0.364,0.387-0.553c0.107-0.155,0.249-0.46,0.316-0.475 c0.056-0.017,0.157,0.019,0.153,0.191c-0.002,0.123,0.029,0.397-0.174,0.837h-0.002c-0.082,0.178-0.195,0.377-0.364,0.598 c-0.09,0.137-0.829,1.175-0.817,1.432c0.017,0.119-0.134,0.634,0.833,0.567c0.26-0.033,3.682,0.009,5.235-0.205 c0.36-0.008,4.101-0.303,5.656,0.237c0.069,0.019,0.153,0.056,0.081,0.176c-0.071,0.121-0.743,2.07-0.778,2.153 c-0.004,0.015-0.009,0.028-0.011,0.042h-0.002c-0.012,0.076-0.014,0.143-0.213,0.195c-0.243,0.065-4.563,1.126-4.994,1.256 c-0.432,0.129-2.834,0.862-3.165,0.992C73.261,90.515,72.585,90.747,71.693,90.557 M72.69,92.302 c-0.088,0.069-0.293,0.436-0.44,0.563c-0.272,0.254-0.718,0.245-0.787,0.184c-0.178-0.134-0.09-0.228-0.065-0.27 c0.028-0.041,0.061-0.119,0.226-0.305c0.17-0.184,0.689-0.408,0.689-0.408C73.376,91.827,72.778,92.237,72.69,92.302 M70.442,91.457 c-0.134,0.075-0.396,0.406-0.668,0.674c-0.27,0.272-0.318,0.006-0.395-0.03c-0.147-0.081-0.201-0.169-0.166-0.253 c0.036-0.088,0.297-0.35,0.41-0.456c0.141-0.164,0.729-0.283,0.729-0.283C70.999,91.08,70.572,91.381,70.442,91.457 M54.945,84.941 c-0.028,0.061-0.139,0.165-0.243,0.272l-0.563,0.571c-0.178,0.189-0.346-0.004-0.377-0.039c-0.075-0.07-0.027-0.137-0.015-0.168 c0.017-0.033,0.086-0.1,0.222-0.301c0.143-0.203,0.578-0.413,0.578-0.413c0.027-0.012,0.236-0.096,0.36-0.121 C55.028,84.719,54.972,84.88,54.945,84.941 M53.174,84.325c-0.107,0.061-0.297,0.442-0.297,0.442 c-0.028,0.055-0.153,0.235-0.298,0.387c-0.067,0.074-0.165,0.074-0.255,0.051l-0.165-0.07c-0.03-0.014-0.055-0.031-0.067-0.041 c-0.078-0.063-0.055-0.191-0.036-0.266c0.023-0.073,0.291-0.306,0.417-0.48c0.125-0.173,0.707-0.232,0.814-0.236 c0.109-0.006,0.134,0.044,0.134,0.063C53.421,84.196,53.264,84.279,53.174,84.325 M68.717,76.095 c0.052-1.659,1.348-2.084,1.348-2.084c0.62-0.26,0.121,0.224,0.063,0.301c-0.63,0.685-0.607,1.237-0.574,1.394 c0.03,0.18,0.574-0.203,0.676-0.28c1.089-0.612,2.456-2.393,2.615-2.602c0.163-0.211,0.088,0.205,0.062,0.393 c-0.025,0.191-0.188,0.446-0.246,0.568c-0.356,0.678-1.681,1.867-1.943,2.074c-0.264,0.211-0.14,0.347-0.052,0.452 c0.119,0.18,0.169,0.542,0.222,0.787c0.071,0.473,0.301,0.153,0.379,0.107c0.33-0.207,0.985-1.16,1.31-1.647 c0.32-0.49,0.986-0.614,1.076-0.645c0.383-0.094,0.134,0.079,0.088,0.136c-0.082,0.111-0.262,0.188-0.377,0.285 c-0.23,0.234-0.886,1.297-1.371,2.007c-0.207,0.305-0.408,0.483-0.584,0.594v0.002c-0.237,0.141-0.425,0.164-0.53,0.193 c-0.427,0.107-1.193,0.272-1.542,0.356c-0.35,0.086-0.101-0.126,0.002-0.168c0.125-0.069,0.322-0.247,0.467-0.381h0.004 c0.063-0.06,0.111-0.106,0.142-0.136c0.62-0.628,0.515-1.078,0.519-1.417c0.006-0.337-0.197-0.215-0.197-0.215 s-0.215,0.127-0.305,0.207c-0.649,0.481-0.724,0.929-0.754,1.187c-0.042,0.515-0.213,0.132-0.255,0.075 C68.623,77.037,68.713,76.183,68.717,76.095 M72.229,77.937c0.061-0.14,0.159-0.002,0.159-0.002 c0.026,0.055,0.046,0.124,0.053,0.168c0.019,0.27,0.211,0.722,0.307,0.925c0.126,0.483,0.427-0.059,0.486-0.136 c0.224-0.235,0.412-0.649,0.525-0.955c0.053-0.148,0.088-0.268,0.105-0.337c0.272-0.927,0.643-1.54,0.643-1.54l0.297-0.339 c0.115-0.134,0.042,0.178,0.05,0.504c0.002,0.325-0.134,1.043-0.193,1.244c-0.031,0.154-0.087,0.313-0.148,0.468 c-0.249,0.612-0.668,1.172-0.814,1.422c-0.185,0.311-0.831,1.176-0.957,1.408c-0.199,0.392-0.192,0.086-0.192,0.009 c0.004-0.078-0.051-0.237-0.124-0.586c-0.073-0.352-0.274-1.003-0.295-1.217c-0.067-0.642,0.04-0.843,0.075-0.977 C72.213,77.973,72.219,77.954,72.229,77.937 M76.294,80.55c0.059,0.45-0.094,0.154-0.159,0.073l-0.783-0.856 c-0.55-0.668-0.561-1.419-0.534-1.547c0.017-0.209,0.137-0.006,0.21,0.107c0.165,0.236,0.464,0.399,0.464,0.399 c0.22,0.143,0.373-0.337,0.471-0.789c0.032-0.144,0.057-0.284,0.078-0.399c0.086-0.482,0.504-1.98,0.582-2.449 c0.075-0.469,0.144,0.037,0.176,0.15c0.033,0.115,0.092,0.664,0.117,0.99c0.023,0.245-0.136,1.022-0.304,1.708 c-0.05,0.214-0.1,0.417-0.15,0.595C76.259,79.292,76.231,80.097,76.294,80.55 M73.454,71.723c0.017-0.49,0.259-0.71,0.341-0.804 c0.216-0.186,0.109-0.418,0.036-0.523c-0.078-0.103-0.16-0.289-0.204-0.383c-0.127-0.456,0.222-0.762,0.31-0.871 c0.283-0.441,0.768-0.728,0.871-0.76c0.105-0.031,0.182,0.019,0.226,0.055c0.067,0.079-0.1,0.215-0.153,0.266 c-0.052,0.05-0.27,0.245-0.404,0.395c-0.132,0.153-0.245,0.316-0.291,0.477c-0.119,0.444,0.283,0.601,0.53,0.725 c0.247,0.125,0.576,0.519,0.751,0.751c0.159,0.209,0.002,0.862,0.002,0.862c-0.006,0.021-0.012,0.042-0.016,0.061 c-0.055,0.178-0.362,0.463-0.672,0.898c-0.308,0.435-0.293,0.762-0.302,0.978c0.011,0.479,0.216,0.138,0.235,0.09 c0.025-0.067,0.201-0.325,0.328-0.597c0.122-0.276,0.863-1.197,0.942-1.291c0.048-0.044,0.12-0.128,0.12-0.128 c0.125-0.214,0.06-0.396,0.054-0.479c-0.013-0.193,0.029-0.252,0.128-0.293c0.094-0.042,0.282,0.075,0.433,0.152 c0.153,0.082,0.701,0.3,1.015,0.406c0.762,0.237,0.906,0.009,0.978-0.058c0.165-0.143,0.23-0.892,0.23-0.892 c0.019-0.171,0.048-0.377,0.119-0.513c0.071-0.136,0.207,0.002,0.23,0.03c0.026,0.025,0.007,0.196,0.013,0.36 c0.006,0.165-0.015,0.466-0.031,0.749c-0.007,0.195-0.088,0.383-0.164,0.521c0,0-0.065,0.119-0.088,0.163 c-0.159,0.281-0.523,0.388-0.667,0.4c-0.254,0.03-0.559-0.119-0.672-0.132c-0.111-0.01,0.042,0.138,0.136,0.237 c0.09,0.092,0.01,0.333-0.027,0.479c-0.038,0.145-0.233,0.419-0.505,0.791c-0.272,0.373-0.674,0.153-0.768,0.107 c-0.169-0.107-0.471-0.161-0.599-0.165c-0.129-0.002-0.108-0.103,0.057-0.333c0.096-0.008,0.274,0.048,0.55,0.096 c0.273,0.044,0.442-0.096,0.501-0.155c0.06-0.058,0.203-0.351,0.259-0.471c0.097-0.205-0.048-0.265-0.228-0.295 c-0.182-0.029-0.534,0.059-0.674,0.117c-0.372,0.13-0.785,0.664-1.026,1.083c-0.238,0.418-0.244,0.82-0.236,1.251 c0.01,0.431-0.09,0.316-0.142,0.31c-0.053-0.01-0.436-0.36-0.578-0.511c-0.479-0.466-0.444-1.092-0.421-1.392 c0.023-0.301,0.507-0.964,0.551-1.065c0.146-0.195,0.113-0.534,0.113-0.534c-0.03-0.106-0.084-0.194-0.126-0.249 c-0.092-0.13-0.356-0.24-0.45-0.24c-0.146-0.013-0.27,0.307-0.316,0.491c0,0-0.008,0.042-0.012,0.051 c-0.065,0.328,0.276,0.487,0.353,0.542c0.076,0.052-0.123,0.048-0.201,0.029c-0.1-0.036-0.291-0.048-0.366-0.065 c-0.092-0.025-0.1-0.31-0.092-0.519C73.439,71.851,73.448,71.756,73.454,71.723 M74.067,64.92c0.18-0.257,0.553-0.517,0.676-0.634 c0.124-0.119,0.13,0.074,0.126,0.193c-0.002,0.119-0.059,0.282-0.084,0.391c-0.029,0.115-0.406,0.519-0.406,0.519 c-0.174,0.159-0.295,0.641-0.314,0.812c-0.019,0.172,0.123,1.3,0.163,1.612c0.036,0.312-0.127,0.241-0.222,0.22 c-0.102-0.019-0.155-0.373-0.19-0.442c-0.157-0.339-0.147-0.965-0.157-1.413C73.651,65.729,73.893,65.176,74.067,64.92  M76.721,69.716c0,0-0.071,0.136-0.09,0.219c-0.056,0.252-0.218,0.111-0.266,0.076c-0.111-0.071-0.263-0.335-0.36-0.584 c-0.1-0.249-0.217-0.425-0.224-0.488c-0.006-0.056,0.256,0.015,0.377,0.096c0.119,0.078,0.312,0.314,0.467,0.421 C76.778,69.559,76.721,69.716,76.721,69.716 M78.222,70.067c-0.011,0.044-0.055,0.13-0.281,0.143 c-0.113,0.031-0.575,0.136-0.785,0.106c-0.031-0.01-0.171,0.04-0.029-0.213c0.046-0.078,0.082-0.207,0.109-0.251 c0.025-0.042-0.023-0.13,0.343-0.009C77.579,69.843,77.964,69.996,78.222,70.067 M75.731,65.852c0.264,0.142,0.456,0.368,0.49,0.569 c0.029,0.199,0.117,0.147,0.188,0.071c0.069-0.077,0.226-0.194,0.406-0.173c0,0.052,0.002,0.249,0.036,0.395 c0.048,0.268,0.67,0.126,0.67,0.126c0.439-0.082,0.194,0.165,0.15,0.217c-0.169,0.331-0.454,0.386-0.636,0.45 c-0.521,0.266-1.038-0.15-1.132-0.196c-0.247-0.128-0.182-0.425-0.203-0.607c-0.059-0.542-0.501-0.911-0.534-1.057 C75.329,65.646,75.585,65.771,75.731,65.852 M76.742,64.115c0.197-0.049,0.297-0.122,0.356-0.18h0.006 c0.019-0.023,0.032-0.038,0.044-0.055c0.105-0.109,0.178-0.056,0.237,0.017c0,0,0.064,0.111,0.081,0.136 c0.115,0.224,0.128,0.578,0.128,0.578c0.063,0.837-0.128,0.496-0.17,0.462c-0.127-0.159-0.452-0.431-0.517-0.508 c-0.23-0.212-0.454-0.153-0.6-0.113l-0.103-0.036C76.282,64.269,76.476,64.179,76.742,64.115 M78.343,67.07 c0.013-0.251,0.161-0.033,0.203,0.036c0.086,0.19,0.281,0.366,0.281,0.366c0.343,0.437,0.615-0.258,0.651-0.341 c0.088-0.172,0.119-0.048,0.127,0.019c0.009,0.069,0.002,0.309,0.009,0.517c-0.025,0.406,0.153,0.184,0.255,0.117 c0.193-0.134,0.482,0.06,0.685,0.148c0.205,0.09,0.305,0.283,0.399,0.36c-0.213-0.09-0.473-0.077-0.573-0.052 c-0.4,0.036-0.791,0.373-0.86,0.421c-0.637,0.316-0.97-0.239-1.011-0.302C78.222,67.951,78.329,67.314,78.343,67.07 M79.679,65.913 c0.19-0.107,0.531-0.465,0.531-0.465c0.159-0.153,0.285-0.09,0.364-0.019c0.203,0.159,0.203,0.664,0.214,1.003 c0.013,0.332-0.098,0.144-0.13,0.109c-0.084-0.114-0.312-0.367-0.381-0.448c-0.178-0.222-0.41-0.116-0.487-0.084 C79.407,66.201,79.555,66.049,79.679,65.913 M81.581,68.742c0.178-0.217,0.172-0.305,0.172-0.347 c0.004-0.046,0.01-0.561,0.006-0.804c-0.002-0.247,0.199-0.347,0.27-0.4c0.178-0.136,0.126,0.22,0.126,0.256l-0.042,0.954 c0.004,0.375-0.065,0.626-0.073,0.718c-0.011,0.086-0.275,0.115-0.346,0.199c-0.071,0.088-0.561,0.465-0.904,0.741 c-0.347,0.272-0.477,0.287-0.733,0.308c-0.253,0.023-0.069-0.149-0.05-0.176c0.021-0.025,0.216-0.214,0.429-0.421 C80.65,69.563,81.403,68.956,81.581,68.742 M122.476,100.141c0.197-0.101,0.573-0.201,0.758-0.538 c0.056-0.124,0.234-0.314-0.082-0.638c-0.243-0.237-0.699-0.637-0.492-1.24c0.207-0.6,1.11-3.411,1.654-4.01 c0.217-0.262,0.596-0.68,0.653-0.735c0.054-0.052,0.146-0.192,0.188-0.494c0.042-0.301,0.425-2.003,1.289-2.629 c0.128-0.123,0.4-0.403,0.16,0.074c-0.055,0.14-1.032,1.921-0.775,3.581c0.052,0.178,0.184,0.626,0.237,0.751 c0.052,0.124,0.134,0.501,0.376-0.1c0.13-0.301,0.662-1.199,0.787-1.482c0.13-0.283,0.465-0.99,0.26-1.471 c-0.084-0.235-0.255-0.591-0.253-0.84c0-0.073-0.03-0.305,0.159,0.002c0.088,0.092,0.387,0.365,0.46,1.164 c0.034,0.285,0.04,2.012,0.578,2.663c0.088,0.087,0.293,0.54,0.393-0.101c0.042-0.32,0.266-1.011,0.344-1.381 c0.081-0.373,0.414-1.346,0.142-1.939c-0.138-0.251-0.427-1.057-0.492-1.431c-0.05-0.233-0.063-0.551-0.063-0.551 s0.023-0.286,0.159,0.071c0.136,0.36,0.961,2.154,1.941,2.171c0.32,0.006,1.015-0.036,1.293-0.764 c0.09-0.209,0.331-0.703,0.027-0.603c-0.18,0.069-0.699,0.237-1.153-0.178c-0.174-0.146-0.456-0.33-0.59-0.774 c-0.017-0.142-0.153-0.59,0.27-0.247c0.088,0.09,0.523,0.703,1.155,0.094c0.172-0.201,0.622-0.578,1.005-1.589h-0.002 c0.186-0.487,0.349-1.119,0.465-1.948c0.025-0.408,0.424-2.981,1.08-3.841c0.201-0.297,0.747-1.001,0.835-1.053 c0.092-0.052,0.326-0.172,0.144,0.111c-0.186,0.28-0.439,0.615-0.477,0.703c-0.036,0.088-0.218,0.283,0.207,0.448 c0.421,0.168,0.881,0.39,2.254,0.287c0.302,0.008,0.854-0.038,0.926-0.019c0.071,0.019,0.301,0.08-0.005,0.124 c-0.301,0.048-1.494,0.295-1.906,0.343c-0.413,0.046-1.409,0.027-1.531,0.006c-0.123-0.019-0.334-0.113-0.393,0.117 c-0.059,0.235-0.521,1.344,0.117,3.492c0.09,0.178,0.375,0.667,0.249,1.239c-0.014,0.071-0.033,0.138-0.063,0.205 c-0.259,0.655-0.592,1.379-0.596,1.628c-0.006,0.249-0.119,0.815,1.063,1.21c0.603,0.189,5.135,1.53,5.363,1.57 c0.232,0.038,0.425,0.167,0.584,0.402c0.155,0.232,0.588,0.739,1.306,0.414c0.324-0.138,0.898-0.448,1.025-0.519 c0.126-0.067,0.499-0.132,0.174,0.076c-0.086,0.071-0.379,0.42-0.437,0.703c-0.059,0.284-0.136,0.659-0.212,0.762 c-0.035,0.054-0.18,0.276-0.211,0.427l-17.923,7.359c-0.21-0.214-0.729-0.626-1.344-0.777c-0.178-0.075-0.797-0.154-0.94-0.123 C122.507,100.34,122.223,100.3,122.476,100.141 M138.798,83.381c0.247,0.149,1.423,1.057,2.286,0.559 c0.217-0.157,0.395-0.33,0.416-0.404c0.019-0.071,0.113-0.23-0.136-0.251c-0.251-0.021-1.174-0.056-1.448-0.755 c-0.067-0.195-0.151-0.446-0.149-0.501c0-0.052-0.19-0.234,0.412-0.205c0.603,0.027,2.326,0.182,2.74-0.042 c0.199-0.088,0.519-0.06,0.383-0.563c-0.113-0.425-0.295-1.538-0.006-2.227c0.05-0.123,0.113-0.226,0.192-0.314 c0.111-0.123,0.398-0.385,0.455-0.437c0.052-0.052,0.303-0.172,0.173,0.111c-0.039,0.088-0.125,0.287-0.209,0.546 c0,0-0.303,1.526,0.161,2.265c0.141,0.178,0.632,1.54,4.605,2.248c0.513,0.081,6.734,1.509,7.257,2.283 c0.138,0.143,0.314,0.36,0.362,0.538c0.052,0.143-0.046,0.48,0.532,0.17c0.177-0.069,0.717-0.325,1.059-0.408l0.573-0.222 c0,0,0.266-0.048,0.065,0.161c-0.1,0.065-0.611,0.588-0.626,1.053c-0.002,0.027,0,0.05,0,0.075c0.013,0.134,0.034,0.327,0.172,0.542 L147.4,91.984c-0.177-0.075-0.418-0.172-0.596-0.259c-0.266-0.13-1.22-0.591-1.631-0.49c-0.144,0.033-0.41,0.098-0.464,0.153 c-0.055,0.052-0.266,0.029,0.004-0.178c0.197-0.141,0.54-0.509,0.651-0.635c0.107-0.119,0.289-0.349-0.029-0.422 c-0.319-0.078-1.723-0.141-2.186-0.111c-0.18-0.04-0.318-0.111-0.653-0.279c-0.337-0.167-3.179-1.48-3.602-1.609 c-0.425-0.132-0.778-0.283-0.831-0.3c-0.052-0.018-0.104-0.092-0.01-0.427c0.029-0.1,0.058-0.259,0.088-0.448h0.002 c0.067-0.456,0.102-1.088-0.04-1.49c-0.048-0.217-0.188-0.467-0.188-0.467s-0.172-0.236,0.198-0.102 c0.373,0.13,1.034,0.856,1.206,1.247c0.174,0.396,0.423,1.252,0.548,0.277c0.063-0.496,0.218-1.296-0.165-1.8 c-0.383-0.507-0.944-0.978-1.067-1.087C138.511,83.448,138.13,83.068,138.798,83.381 M147.886,71.553c0,0,2.12,0.98,2.242,2.788 c0.019,0.26,0.119,1.217,0.106,1.405c-0.004,0.13-0.117,0.552-0.223-0.073c-0.034-0.275-0.13-1.369-1.581-2.956 c-0.148-0.132-0.914-0.984-1.03-1.044C147.283,71.614,146.716,71.131,147.886,71.553 M144.001,62.07 c0.055-0.074,0.951-0.517,0.951-0.517c0.232-0.101,0.835-0.182,1.117-0.141c0.603,0.046,0.459,0.346,0.438,0.453 c-0.023,0.211-0.187,0.477-0.385,0.736c-0.132,0.182-0.256,0.285-0.532,0.392c-0.027,0.004-0.463,0.006-0.8-0.143 c-0.335-0.148-0.722-0.316-0.831-0.393C143.731,62.296,143.949,62.141,144.001,62.07 M149.996,62.708c0,0,0.496,0.061,0.532,0.203 c0.006,0.027,0.018,0.05,0.029,0.075v0.005c0.044,0.088,0.084,0.184-0.128,0.224c-0.195,0.031-0.462,0.136-0.638-0.046 c-0.036-0.049-0.084-0.107-0.09-0.176h-0.007C149.816,62.867,149.839,62.771,149.996,62.708 M193.934,143.36l-35.321-35.242 l35.321-35.242l-32.269,13.252c-0.052-0.04-0.113-0.082-0.191-0.126c-0.178-0.107-0.822-0.797-1.197-0.749 c-0.142,0.016-0.41,0.098-0.626,0.094c-0.209-0.004-0.372-0.042-0.372-0.042s-0.283-0.147,0.115-0.318 c0.121-0.048,0.534-0.113,0.661-0.182c0.126-0.071,0.519-0.224,0.22-0.477c-0.123-0.109-0.226-0.164-0.425-0.168 c-0.195-0.004-0.944,0.159-2.625-0.473c-1.676-0.632-7.221-3.299-6.859-4.586c0.009-0.025,1.139-2.08,1.007-4.502 c-0.046-0.482-0.098-1.603-0.282-2.194c-0.053-0.213-0.134-0.571-0.099-0.713c0.021-0.086,0.082-0.532,0.358,0.041 c0.136,0.27,0.831,1.279,1.011,3.241c0.048,0.251,0.094,0.659,0.094,0.659s0.027,0.481,0.431-0.295 c0.208-0.394,0.731-1.472,1.055-2.462c0.314-0.956,0.432-1.831,0.434-1.934c0.018-0.678,0.037-2.166,0.148-2.568 c0.04-0.285,0.224-0.726,0.461-0.969c0.111-0.14,0.347-0.601,0.358-0.029c0.006,0.567,0.054,2.011,0.102,2.26 s0.096,0.484,0.551,0.934c0.098,0.094,0.23,0.242,0.387,0.423h-0.002c0.578,0.663,1.44,1.77,1.67,2.266 c0.136,0.249,0.364,0.538,0.452,0.628c0.032,0.057,0.032,0.163-0.023,0.216c-0.056,0.052-0.37,0.722,0.143,1.051 c0.175,0.129,0.791,0.441,1.234,0.502c0.124,0.035,0.411,0.113,0.534,0.184c0.086,0.075,0.243,0.222,0.032,0.218 c-0.214-0.007-1.068-0.04-1.11,0.192c-0.04,0.233-0.119,0.764-0.123,0.942c-0.002,0.176,0.048,0.375,0.347,0.484 c0.302,0.115,1.595,0.454,1.897,0.552c0.299,0.094,0.902,0.266,1.08,0.197c0.108-0.036,0.305-0.084,0.169-0.515 c-0.1-0.285-0.444-1.074-0.496-1.145c-0.052-0.075-0.276-0.379-0.473-0.437c-0.193-0.057-0.477-0.115-0.582-0.241 c-0.035-0.019-0.262-0.218,0.111-0.213c0.285,0.006,0.89-0.021,1.015-0.072c0.088-0.033,0.163-0.1,0.113-0.334 c-0.05-0.235-0.094-0.75-0.339-0.896c-0.247-0.145-1.499-0.951-2.223-2.299c-0.1-0.159-0.362-0.655-0.69-1.287h-0.005 c-0.776-1.496-1.932-3.725-2.287-4.033c-0.247-0.216-0.838-1.08-1.445-1.072c-0.479-0.01-1.243-0.004-1.682,0.611 c-0.438,0.614-2.238,2.931-3.282,3.588c-0.036,0.071-0.072,0.092-0.262-0.126c-0.195-0.217-1.928-1.798-2.175-1.978 c-0.243-0.182-1.228-0.929-1.461-1.823c-0.05-0.159-0.05-0.286-0.245-0.305c-0.194-0.023-1.867-0.107-2.687-0.902 c-0.176-0.111-0.371-0.312-0.371-0.312c0.373,0.079,0.812,0.567,2.579,0.259c0.479-0.044,1.601-0.113,1.972,0.038 c0.142,0.054,0.441,0.22,0.69,0.222c0.143,0.004,0.394,0.027,0.601,0.224c0.212,0.201,0.595,0.653,1.112,0.607 c0.215-0.013,0.374-0.153,0.431-0.26c0.017-0.052,0.056-0.159-0.155-0.356c-0.212-0.201-0.975-1.103-1.063-1.195 c-0.036-0.035-0.316-0.307,0.165-0.333c0.483-0.029,1.543,0.189,1.746-0.129c0.129-0.166,0.203-0.484,0.173-0.725 c-0.008-0.069-0.027-0.134-0.052-0.182c-0.119-0.232-0.132-0.41-0.632-0.42c-0.302-0.007-1.034,0.01-1.882-0.473 c0,0-1.614-0.957-1.808-1.129c-0.195-0.171-0.5-0.318-0.643-0.376c-0.048-0.109-0.012-0.185,0.013-0.417 c0.027-0.232,0.155-1.957,0.134-2.434c-0.028-0.477-0.092-0.873-0.141-0.961c-0.052-0.088-0.288-0.442-0.349,0.025 c-0.023,0.247-0.268,1.214-0.322,1.457c-0.055,0.245-0.39,1.469-0.409,1.628c-0.023,0.155-0.062,0.417-0.148,0.432 c-0.052,0-0.176,0.065-0.205-0.195c-0.03-0.262-0.166-1.463-0.337-1.605c-0.17-0.143-0.325-0.302-0.325-0.302 c-0.178,0.241-0.295,0.986-0.335,1.193c-0.037,0.21-0.131,0.676-0.131,0.762c-0.005,0.088-0.023,0.193-0.111,0.188 c-0.084,0-0.26,0.034-0.256-0.209c0.002-0.245-0.008-0.559-0.178-0.787c-0.169-0.23-0.489-0.774-0.575-0.81 c-0.088-0.035-0.45-0.146-0.521,0.027c-0.072,0.172-0.095,0.275-0.095,0.346c0,0.069-0.142,1.178,0.107,1.775 c0.069,0.175,0.235,0.577,0.32,0.684c0.069,0.052,0.189,0.14,0.099,0.243c-0.048,0.058-0.465,0.733-0.951,1.777h0.024 c-0.231,0.544-0.419,1.128-0.455,1.622c-0.042,0.471-0.266,3.263,1.185,4.054c0.172,0.124,1.059,0.886,1.877-0.194 c0.162-0.203,0.321-0.392,0.321-0.392s0.142-0.188,0.278,0.074c0.101,0.157,0.613,0.636,0.458,1.538 c-0.031,0.167-0.066,0.624-0.255,0.938c0,0-0.709,0.573-0.59,0.751c0.117,0.176,0.419,0.737,1.078,0.973 c0.19,0.072,0.431,0.27,0.781,0.049c0.104-0.051,0.211-0.118,0.28-0.065c0.067,0.056,0.203,0.23,0.061,0.383 c-0.141,0.157-0.467,0.914-1.233,0.954c-0.433,0.042-1.199,0.029-1.459,0.009c-0.26-0.021-0.467-0.078-0.471,0.027 c0,0.102,0.107,0.868-0.404,1.312c-0.109,0.136-0.802,0.961-0.923,1.045c-0.121,0.085-0.301,0.253-0.354,0.305 c-0.05,0.052-0.14,0.119-0.083-0.245c0.058-0.293,0.1-0.693-0.118-1.235c-0.217-0.54-0.751-1.683-0.749-1.785 c0.004-0.105-0.109-0.678,0.178-1.214c0.128-0.327,0.5-0.827,0.571-0.896c0.069-0.067,0.3-0.22,0.3-0.22s0.088,0.002,0.069,0.176 c-0.023,0.174-0.115,0.415-0.222,0.569c-0.107,0.153-0.325,0.689-0.247,1.246c0.079,0.559,0.446,1.469,0.561,1.664 c0.121,0.192,0.274,0.423,0.274,0.423s0.096,0.242,0.243-0.136c0.109-0.293,0.301-0.377,0.23-1.143 c-0.061-0.469-0.243-1.064-0.329-1.223c-0.083-0.127-0.115-0.349-0.115-0.349s0.002-0.124,0.191,0.071 c0.188,0.195,1.166,1.047,1.911,1.095c0.331,0.004,0.521-0.025,0.626-0.078c0.106-0.048,0.226-0.083,0.023-0.243 c-0.205-0.159-0.498-0.512-0.821-0.778c-0.324-0.266-0.582-0.672-1.203-0.804c-0.086-0.021-0.189-0.123,0.106-0.224 c0.128-0.042,0.367-0.144,0.614-0.284h0.004c0.331-0.199,0.672-0.459,0.774-0.735c0.09-0.222,0.151-0.519,0.099-0.674 c-0.051-0.107-0.118-0.314-0.413-0.147c-0.14,0.086-0.445,0.513-1.243,0.341c-0.239-0.054-1.75-0.117-2.371-2.543 c-0.061-0.301-0.356-1.873,0.445-4.244c0.032-0.099,0.067-0.199,0.103-0.3c0.115-0.347,0.475-1.224,0.511-1.329 c0.037-0.104,0.094-0.328-0.063-0.471c-0.153-0.142-0.304-0.353-0.373-0.389c-0.071-0.036-0.849-0.239-1.322-0.038 c-0.471,0.197-0.909,0.398-1.152,0.379c-0.242-0.023-0.783-0.153-0.885-0.155c-0.105,0-0.348-0.006-0.316,0.168 c0.033,0.159,0.247,0.839,1.166,1.048c0.207,0.036,0.986,0.136,1.526,0.059c0.14,0.002,0.332-0.046,0.188,0.09 c-0.138,0.136-0.354,0.462-1.296,0.743c-0.075,0.023-0.299,0.094-0.546,0.195c-0.266,0.106-0.555,0.249-0.716,0.408 c-0.071,0.083-0.178,0.205-0.318,0.236c-0.14,0.036-0.875,0.264-1.067,0.348c-0.103,0.052-0.21,0.119-0.003,0.314 c0.084,0.071,0.444,0.318,0.633,0.512c0.102,0.107,0.632,0.536,1.203-0.1c0.159-0.205,0.356-0.687,0.519-0.86 c0.157-0.168,0.354-0.325,0.492-0.32c0.084,0.004,0.205,0.039,0.082,0.159c-0.124,0.119-0.568,0.77-0.695,1.011 c-0.126,0.24-0.999,1.408-1.313,1.561c-0.159,0.1-0.667,0.442-1,0.383c-0.191-0.004-0.414-0.059-0.366,0.132 c0.065,0.176,0.265,0.63,0.561,0.703c0.295,0.076,0.569,0.341,1.345-0.498c0.283-0.253,0.549-0.53,0.622-0.613 c0.069-0.084,0.352-0.237,0.243,0.023c-0.092,0.224-0.54,1.032-0.806,1.287c-0.262,0.255-1.589,1.467-1.725,2.3 c-0.048,0.295-0.083,0.693-0.046,1.011l0.517,0.005c0.312-0.31,1.034-0.949,1.2-1.091c0.194-0.172,0.454-0.201,0.678-0.963 c0.054-0.188,0.207-1.074,0.421-1.258c0.14-0.121,0.353-0.412,0.347,0.002c0.013,0.159,0.004,0.802-0.211,1.181 c-0.216,0.377-1.177,1.733-1.443,2.007c-0.033,0.034-0.069,0.071-0.111,0.122c-0.309,0.366-0.843,1.193-0.801,2.331 c-0.279,0.048-4.592,1.189-5.557,1.641c-0.963,0.454-2.964,1.599-3.701,2.891c-0.086,0.1-0.421,0.356-0.475,0.51 c-0.027,0.065-0.124,0.304-0.257,0.62l-0.005,0.023c-0.184,0.444-0.433,1.047-0.632,1.587c-0.071,0.154-0.324,0.638-0.638,0.736 c-0.314,0.097-0.821,0.226-1.091-0.144c-0.138-0.174-0.508-0.754-0.025-1.666c0.073-0.138,0.157-0.295,0.283-0.53h0.006 c0.523-0.933,1.287-2.181,1.804-2.721c0.354-0.374,1.059-1.145,1.426-1.21c0.368-0.06,2.225-0.062,3.183-1.124 c0.249-0.274,0.62-0.512,0.681-1.031c0.018-0.12,0.006-0.417-0.189-0.229c-0.088,0.086-0.527,0.39-1.103,0.381 c-0.571-0.01-1.197-0.039-1.442,0.166c-0.251,0.203-0.373,0.391-0.46,0.425c-0.088,0.035-0.369,0.079-0.153-0.212 c0.159-0.224,0.414-0.827,1.565-1.17c0.316-0.081,2.372-0.412,2.937-0.837c0.228-0.17,0.387-0.26,0.559-0.437h0.023 c0.148-0.164,0.251-0.4,0.379-0.951c0.002-0.107,0.077-0.295-0.099-0.264c-0.173,0.03-0.904,0.036-1.099,0.208 c-0.129,0.113-0.625,0.577-0.996,0.896c0,0-0.349,0.278-0.395,0.295c-0.195,0.065-0.474,0.148-0.474,0.148s-0.295-0.006,0.021-0.314 c0.007-0.006,0.015-0.012,0.023-0.018h0.003c0.431-0.419,3.369-3.31,3.376-5.57c-0.007-0.335,0.096-1.675-0.565-2.495 c0,0-0.432-0.23-0.62-0.308c-0.312-0.161-1.227-0.525-2.313,0.029c-0.102,0.034-0.58,0.306-0.944,0.212 c-0.274-0.071-0.714-0.274-1.214,0.063h-0.025c-0.199,0.173-0.335,0.316-0.473,0.515c-0.107,0.171-0.844,1.636-1.005,1.841 c-0.159,0.208-0.376,0.603-0.759,0.716c-0.107,0.034-0.367,0.149-0.147,0.26c0.226,0.107,0.5,0.305,1.484-0.218l0.666-0.337 c0.121-0.067,0.226-0.048,0.121,0.057c-0.107,0.102-0.957,0.939-1.105,1.561c-0.075,0.312-0.371,1.227,0.153,2.261 c0.136,0.211,0.23,0.649,0.772,0.659c0.084,0.017,0.067-0.052,0.002-0.211c-0.067-0.155-0.46-1.572-0.136-2.209 c0.111-0.24,0.538-0.979,0.749-1.063c0.088-0.069,0.402-0.186,0.293,0.126c-0.111,0.312-0.404,1.122-0.358,1.609 c0.011,0.295,0.141,0.94,0.674,1.105c0.105,0.04,0.365,0.182,0.199-0.291c-0.1-0.207-0.249-0.665,0.094-1.456 c0.147-0.327,0.951-1.754,0.959-2.332c-0.008-0.467-0.077-1.423,0.429-1.469c0.172-0.03,0.781-0.09,1.032,0.573 c0.082,0.264,0.444,1.434-0.111,2.397c-0.125,0.207-1.823,2.855-3.15,3.96c0,0-0.004,0.008-0.01,0.015h-0.002 c-0.31,0.288-4.178,4.451-4.697,5.205c-0.369,0.527-1.12,1.584-1.66,2.683l-0.002,0.005c-0.017,0.035-0.034,0.069-0.051,0.104h0.003 c-0.25,0.536-0.417,0.99-0.503,1.411c-0.054,0.19-0.201,0.638,0.172,1.203c0.1,0.159,0.372,0.545,0.347,0.873 c-0.021,0.071,0.08,0.421-0.194,0.379c-0.279-0.04-1.474-0.301-1.947,0.854c-0.071,0.138-0.695,1.796-0.904,2.001 c-0.212,0.203-0.482,0.528-0.76,0.576c-0.172,0.014-0.4,0.01-0.331,0.186c0.042,0.123,0.201,0.448,0.559,0.509h0.027 c0.044,0.006,0.088,0.01,0.136,0.008c0.059-0.004,0.126-0.006,0.199-0.011h-0.132h0.132c0.524-0.043,1.394-0.23,2.213-1.737 c0.284-0.414,1.069-1.53,1.364-1.54c0.296-0.013,0.436-0.027,0.505-0.009c0.071,0.017,0.31,0.038,0.048,0.208 c-0.264,0.171-1.375,1.193-1.356,2.082c0.006,0.109,0.027,0.59,0.259,1.003h0.002c0.166,0.289,0.434,0.542,0.873,0.613 c0.174,0.038,0.869,0.069,0.963-0.347c0.019-0.072,0.059-0.162,0.046-0.279h-0.004c-0.011-0.113-0.065-0.241-0.222-0.4 c-0.121-0.127-0.507-0.879,0.197-1.387c0.705-0.511,1.253-0.99,1.41-1.108c0.065-0.048,0.164-0.131,0.262-0.226l0.069-0.073 c0.142-0.136,0.22-0.224,0.274-0.368c0.036-0.084,0.074-0.224,0.155,0.037c0.065,0.157,0.436,0.894,1.451,1.468 c0.243,0.142,0.791,0.571,0.998,0.678c0.119,0.071,0.427,0.218,0.117,0.195c-0.312-0.023-1.044,0.016-1.816-0.501 c-0.189-0.109-0.396-0.217-0.448-0.253c-0.053-0.036-0.136-0.142-0.243,0.015c-0.065,0.094-0.636,1.088-1.126,1.929h-0.002 c-0.325,0.559-0.616,1.051-0.699,1.168c-0.216,0.291-1.062,1.076-1.97,1.353c-0.333,0.1-1.26,0.535-1.419,0.64 c-0.159,0.098-0.212,0.151-0.199,0.427c0.013,0.278,0.069,1.97-0.029,2.644c-0.097,0.678-0.538,3.61-0.672,4.085 c-0.132,0.482-0.302,1.064-0.555,1.398c-0.255,0.335-0.642,0.932-0.596,1.394c0.029,0.358,0.111,0.823,0.575,0.829 c0.23-0.014,0.641-0.203,0.892-0.23c0.249-0.033,0.429-0.086,0.519-0.046c0.086,0.036,0.209,0.09,0.031,0.159 c-0.125,0.052-0.703,0.557-0.749,1.145c-0.002,0.153-0.025,0.511,0.077,0.971l-12.661,5.199l35.244-85.814l-35.244,35.323 L72.876,22.301l35.241,85.814l-10.291-4.225c0.048,0,0.096,0.002,0.144,0.002c0.027-0.115,0.105-0.63-0.155-1.022 c-0.111-0.176-0.714-1-0.814-1.166c-0.1-0.161-0.301-0.531-0.318-0.952c-0.006-0.186-0.023-0.588-0.113-0.726 c-0.088-0.141-0.281-0.406-0.276-0.547c0-0.136-0.088-0.378,0.198-0.224c0.113,0.059,1.591,0.704,1.905,1.03 c0.138,0.12,0.433,0.331,0.58,0.515c0.067,0.094,0.132,0.255,0.19,0.291c0.046,0.038,0.178,0.186,0.176-0.136 c-0.008-0.32,0.08-0.791-0.416-1.212c-0.149-0.14-1.304-0.984-2.07-1.193c-0.122-0.059-0.852-0.416-0.599-0.469 c0.149-0.021,0.622-0.025,0.963,0.122c0.127,0.035,1.025,0.408,1.557,0.083c0.301-0.155,0.615-0.335,0.781-0.642 c0.058-0.113,0.169-0.444-0.03-0.379c-0.194,0.069-1.063,0.521-1.316,0.542c-0.253,0.015-0.894,0.088-1.158,0.021 c-0.125-0.036-0.276-0.071-0.018-0.216c0.117-0.056,0.933-0.395,1.138-0.877c0.048-0.113,0.12-0.236,0.122-0.42 c0-0.128-0.072-0.471-0.258-0.235c-0.035,0.059-0.439,0.741-0.877,0.802c-0.433,0.058-1.287,0.228-2.036-0.266 c-0.069-0.048-0.58-0.272-0.107-0.356c0.092-0.023,0.515,0.019,0.678-0.15c0.042-0.042,0.096-0.101,0.159-0.162 c0,0,0.423-0.425,0.448-0.494c0.036-0.09,0.193-0.339-0.103-0.481c-0.299-0.144-1.749-1.12-2.017-1.484 c-0.113-0.149-0.39-0.626-0.572-0.733c-0.184-0.104-0.412-0.165-1.032-0.152c-0.619,0.01-1.193,0.033-1.442-0.12 c-0.069-0.035-0.49-0.259-0.042-0.253c0.208,0.006,1.388,0.071,1.888-0.241c0.185-0.09,0.658-0.265,0.982-0.579 c0.094-0.07,0.314-0.283,0.347-0.03c0.019,0.117,0.067,0.727,0.758,1.197c0.216,0.153,1.34,0.756,1.658,0.921 c0.318,0.17,1.057,0.536,1.233,0.963c0.046,0.082,0.155,0.36,0.224,0.419c0.046,0.033,0.132,0.207,0.196-0.182 c0.028-0.172,0.174-0.651,0.13-0.881c-0.042-0.231-0.157-0.737-0.586-1.158c-0.1-0.115-0.293-0.324-0.337-0.36 c-0.046-0.035-0.182-0.153,0.126-0.146c0.312,0.006,0.996,0.131,1.567-0.377c0.139-0.111,0.419-0.256,0.463-0.85 c0.004-0.23-0.019-0.827-0.174-1.16c-0.056-0.117-0.165-0.429-0.295-0.133c-0.037,0.081-0.339,0.866-0.653,1.113 c-0.102,0.113-0.651,0.641-1.09,0.762c-0.138,0.031-0.748,0.203-0.411-0.18c0.13-0.136,0.888-0.959,0.921-1.442 c0.019-0.312,0.059-1.11-0.111-1.941l-0.002-0.006c-0.09-0.448-0.242-0.91-0.496-1.31c-0.065-0.132-0.628-1.568-2.922-3.684 c0,0-0.165-0.159-0.257-0.236c-0.421-0.394-4.498-3.86-5.526-4.773h-0.002c-0.008-0.008-0.021-0.019-0.031-0.027 c-0.178-0.186-2.602-2.087-2.531-3.485c0-0.213,0.065-1.017,0.582-1.13c0.082-0.021,0.779-0.251,0.862,0.289 c0.011,0.06-0.09,0.559,0.365,1.172c0.048,0.063,0.648,0.871,1.272,1.463c0.088,0.117,0.348,0.301,0.419,0.856 c0.016,0.092,0.169,0.699,0.353-0.002c0.053-0.182,0.277-0.833-0.012-1.534c-0.082-0.161-0.247-0.509-0.262-0.672 c-0.006-0.101-0.104-0.331,0.195-0.166c0.079,0.053,0.609,0.302,0.67,0.777c0.01,0.061-0.027,0.597,0.215,1.172 c0.061,0.182,0.622,1.287,0.622,1.287c0.165,0.283,0.347,0.578,0.53,0.821c0.125,0.194,0.313,0.5,0.341,0.613 c0.027,0.111,0.119,0.76,0.425-0.002c0.073-0.222,0.418-0.768,0.452-1.172c0.006-0.082,0.023-0.168,0.037-0.26h0.002 c0.059-0.362,0.105-0.787-0.334-1.26c-0.555-0.594-1.459-1.448-1.644-1.762c-0.058-0.09-0.244-0.475-0.104-0.385 c0.14,0.094,1.201,1.069,2.001,0.944c0.192,0.004,0.473,0.014,0.668-0.153c0.062-0.04,0.223-0.226-0.026-0.211 c-0.09,0.01-0.477-0.019-0.851-0.337c-0.377-0.319-1.51-1.436-1.853-1.926c-0.157-0.205-0.341-0.754-1.174-0.85 c-0.153-0.023-0.708-0.071-0.785-0.063c-0.046,0.005-0.123,0.019-0.276-0.012c0,0-0.293-0.088-0.459-0.193 c-0.159-0.102-0.554-0.425-1.142-0.425c-0.528,0-1.317-0.067-2.004,0.603v0.002c-0.073,0.076-0.148,0.153-0.219,0.247 c-0.113,0.157-0.689,0.714-0.739,1.924c-0.017,0.431-0.105,1.406,0.944,2.535c0.153,0.123,1.017,0.837,1.814,1.322h0.003 c0.138,0.086,0.274,0.164,0.404,0.229c0.159,0.102,0.659,0.514,0.805,0.78c0.028,0.042,0.174,0.287-0.085,0.111 c-0.118-0.081-1.099-0.862-2.161-1.111c0,0-0.395-0.076-0.59-0.076c-0.171-0.004-1.161-0.06-1.3,0.017 c-0.033,0.023-0.052,0.031-0.056,0.05h0.002c-0.004,0.021,0.008,0.057,0.05,0.13c0.078,0.153,0.143,0.417,0.561,0.729 c0.419,0.307,0.685,0.615,2.246,0.835c0.23,0.033,1.419,0.113,2.227,0.502c0.172,0.073,0.854,0.297,0.913,0.469 c0.019,0.05,0.096,0.236-0.134,0.138c-0.111-0.061-0.542-0.291-0.925-0.297c-0.381-0.006-1.643,0.031-1.813-0.011 c-0.172-0.046-0.421-0.201-0.266,0.076c0.159,0.274,0.526,1.138,1.794,1.352c0.36,0.044,2.497,0.194,3.033,0.657 c0.104,0.088,0.274,0.234,0.498,0.423c0.94,0.804,2.723,2.403,3.364,3.809c0.119,0.27,0.337,0.72,0.527,1.195h0.002 c0.241,0.584,0.44,1.2,0.379,1.543c-0.023,0.071-0.119,0.977-0.32,1.063c-0.205,0.088-0.44,0.224-0.501-0.291 c-0.029-0.249-0.713-2.043-0.812-2.319c-0.096-0.274-0.492-0.956-0.749-1.224c-0.714-0.752-2.422-2.541-4.977-3.776h0.002 c-0.109-0.053-0.212-0.101-0.323-0.153c-0.33-0.146-4.728-2.252-6.101-3.512c-0.456-0.402-0.963-0.911-1.116-1.086 c-0.067-0.078-0.136-0.189-0.207-0.243v-0.009c-0.054-0.033-0.113-0.05-0.173,0h-0.003c-0.041,0.034-0.083,0.092-0.131,0.189 c-0.055,0.157-0.348,1.113-0.679,1.433c-0.071,0.084-0.213,0.43-0.307-0.159c-0.082-0.274-0.423-1.069-0.683-1.458 c0,0-0.09-0.132-0.131-0.172c-0.084-0.071-0.187-0.211-0.258,0.012c-0.012,0.03-0.031,0.084-0.054,0.155 c-0.153,0.436-0.503,1.57-0.153,2.836c0.033,0.036,0.015,0.239-0.26,0.03c-0.136-0.105-0.933-0.601-1.134-1.103 c-0.14-0.295-0.381-1.055-0.31-1.763h0.002c0.002-0.042,0.009-0.079,0.017-0.119c0.035-0.067,0.054-0.224,0.203,0.057 c0.013,0.02,0.025,0.043,0.04,0.071h0.002c0.163,0.31,0.448,0.835,0.511,0.916c0.048,0.072,0.148,0.365,0.278-0.184 c0.054-0.238,0.117-0.443,0.159-0.732v-0.009c0.054-0.372,0.077-0.883,0.006-1.766c-0.012-0.329-0.098-1.38-0.006-1.758 c0.038-0.168,0.096-0.549,0.172,0.006c0.064,0.241,0.485,1.745,1.188,2.79c0.088,0.119,0.4,0.561,0.505,0.726v0.002 c0.019,0.028,0.029,0.046,0.036,0.057c0.029,0.061,0.131,0.308,0.249-0.057c0.01-0.027,0.018-0.06,0.029-0.096 c0.088-0.291,0.324-0.94,0.13-1.683c-0.046-0.276-0.785-2.2-0.727-2.731c0.042-0.308,0.101-0.756,0.26-1.059 c0.054-0.105,0.197-0.465,0.207,0.054c0.025,0.343,0.272,2.102,0.844,2.989c0.165,0.245,0.674,0.701,0.774,0.772 c0.105,0.069,0.205,0.243,0.318-0.324c0.111-0.563,0.295-1.181-0.291-2.169c-0.134-0.236-0.646-0.828-0.806-1.785h-0.002 c-0.014-0.109-0.031-0.222-0.037-0.337c-0.007-0.247,0.006-0.439,0.123-0.661c0.078,0.115,0.119,0.502,0.366,1.002H81.69 c0.159,0.325,0.408,0.701,0.818,1.07c0.132,0.128,0.564,0.494,0.775,0.611c0.1,0.044,0.285,0.262,0.306-0.153 c0.025-0.224,0.18-0.837-0.245-1.408c-0.023-0.026-0.061-0.067-0.107-0.124h-0.002c-0.214-0.241-0.576-0.659-0.67-0.921 c-0.117-0.329-0.358-0.77-0.387-1.061c-0.009-0.113-0.101-0.563,0.228-0.155c0.142,0.149,1.005,0.95,1.448,1.252 c0.377,0.261,0.666,0.46,0.754,0.538c0.088,0.081,0.366,0.366,0.318-0.164c-0.017-0.291-0.029-0.942-0.402-1.408 c-0.209-0.251-1.067-1.267-1.279-1.415c-0.207-0.149-0.651-0.526-0.383-0.467c0.266,0.061,0.881,0.32,1.135,0.515 c0.253,0.195,0.653,0.55,1.253,0.324c0.168-0.075,0.656-0.224,0.31-0.5c-0.297-0.23-1.226-1.076-1.524-1.417 c-0.1-0.113-0.36-0.613-0.722-0.395c-0.079,0.054-0.341,0.276-0.464,0.272c-0.124,0-0.36,0.006-0.118-0.314 c0.101-0.132,0.75-0.572,0.88-0.94c0.129-0.366,0.27-0.714,0.234-1.252c-0.021-0.1,0-0.494-0.555-0.293 c-0.136,0.032-0.653,0.069-1.109,0.546c-0.069,0.074-0.708,0.658-0.848,0.928c-0.035,0.042-0.372,0.194-0.22-0.287 c0.061-0.188,0.348-0.59,0.35-0.678c0-0.09,0.048-0.26-0.195-0.454c-0.05-0.038-1.871-1.325-2.982-1.497 c-0.291-0.04-0.773-0.105-0.999,0.115c-0.046,0.057-0.207,0.188-0.266,0.377c-0.023,0.023-0.077-0.059-0.039-0.314 c0.039-0.258,0.086-0.909-0.002-1.137c-0.057-0.1-0.107-0.236-0.118-0.406c-0.018-0.109-0.148-0.45-0.295-0.452 c-0.1,0-0.402-0.075-0.636,0.438c-0.044,0.09-0.36,0.636-0.4,1.565c-0.021,0.157-0.086,0.649-0.203,0.806 c-0.023,0.055-0.102,0.178-0.155-0.071c-0.044-0.147-0.301-0.724-0.873-0.779c-0.571-0.052-2.212-0.004-2.465-0.165 c-0.17-0.094-0.266-0.232-0.32-0.253c-0.057-0.023-0.214-0.105-0.172,0.165c0.029,0.178-0.015,0.674,0.632,1.099 c0.136,0.082,0.327,0.188,0.534,0.285c0.211,0.111,0.437,0.209,0.655,0.276c0.09,0.023,0.324,0.071,0.335,0.128 c0.008,0.058,0.031,0.113-0.17,0.108c-0.201-0.002-1.693-0.06-2.26,0.245c-0.214,0.092-0.85,0.408-1.013,0.697 c-0.067,0.101-0.298,0.434,0.117,0.519c0.335,0.03,0.649,0.101,1.339-0.257c0.17-0.065,0.432-0.285,0.926-0.274 c0.291,0.002,0.538-0.015,0.571,0.021c-0.159,0.23-0.425,0.619-1.16,0.822c-0.732,0.199-2.411,0.653-2.616,1.344 c-0.046,0.134-0.142,0.636-0.136,0.728c0.013,0.09-0.012,0.178,0.528,0.065c0.54-0.115,1.103-0.136,1.527-0.186 c0.43-0.048,0.825-0.142,1.152-0.419c0.094-0.1,0.23-0.219,0.276-0.219c-0.052,0.247-0.172,0.738-1.199,1.157 c-0.193,0.065-1.763,0.609-2.083,1.005c-0.322,0.4-0.458,0.58-0.488,0.881c-0.012,0.098-0.092,0.199,0.289,0.107 c0.218-0.053,0.53-0.059,0.812-0.057c0.279,0.006,1.074,0.147,1.53-0.241c0.251-0.173,0.431-0.339,0.555-0.357 c0.128-0.023,0.463-0.086,0.255,0.125c-0.203,0.212-0.469,0.542-0.91,0.76c-0.346,0.169-1.319,0.567-1.907,0.996 c0,0-0.276,0.22-0.347,0.32c-0.195,0.281-0.425,0.543-0.436,1.072c0.011,0.09-0.071,0.291,0.492,0.065 c0.293-0.098,1.557-0.377,2.397-1.061c0.205-0.124,0.335-0.128,0.588-0.392c0,0,0.326-0.389,0.578-0.764 c0.058-0.123,0.163-0.368,0.221-0.422c0.046-0.044,0.139-0.178,0.101,0.115c-0.029,0.203,0.035,0.617-0.165,1.065l-0.003,0.002 c-0.083,0.189-0.217,0.383-0.424,0.57c-0.055,0.067-1.147,0.868-2.286,1.218c-0.251,0.073-1.765,0.722-1.999,1.21 c-0.013,0.058-0.073,0.391-0.142,0.203c0,0-0.513-1.187-0.105-2.263c0.059-0.098,0.28-0.368,0.027-0.705 c-0.023-0.026-0.167-0.262-0.167-0.262c-0.39-0.628-1.321-2.242-1.522-2.983c-0.243-0.898-1.245-2.888-0.048-4.523 c0.071-0.094,0.23-0.27,0.387-0.439c0.155-0.168,0.302-0.329,0.348-0.386c0.088-0.113,0.278-0.355,0.314-0.617 c0.031-0.255,0.136-0.498,0.152-0.628c0.015-0.13,0.088-0.762,0.059-0.837c-0.027-0.071-0.111-0.333-0.366-0.379 c-0.118-0.019-0.595,0.017-0.89-0.291c-0.113-0.09-0.299-0.251-0.299-0.251c-0.073,0.188,0.079,0.536-0.073,0.908 c-0.046,0.071-0.149,0.256-0.308,0.371c-0.059,0.054-0.235,0.125-0.195,0.368c0.025,0.103,0.059,0.766-0.199,1.342 c-0.058,0.084-0.09,0.314-0.178,0.356c-0.058-0.03-0.1-0.063-0.127-0.22c-0.025-0.161-0.268-1.763-0.814-2.03 c-0.072-0.046-0.21-0.193-0.17,0.054c0.038,0.113,0.174,0.634,0.14,0.751c-0.042,0.028-0.521,0.176-0.498,0.582 c0,0.088,0.006,0.507,0.176,0.794c0.012,0.023,0.031,0.064,0.054,0.121c0.065,0.178,0.139,0.486,0.057,0.779 c0,0.025-0.048,0.284-0.188,0.037c-0.044-0.083-0.522-0.824-0.522-0.824c-0.259-0.39-0.527-0.785-0.602-0.852 c-0.139-0.132-0.327-0.237-0.327-0.237c-0.017,0.245,0.186,0.605,0.031,1.089c-0.006,0.023-0.012,0.044-0.023,0.062 c-0.042,0.101-0.487,0.743-0.565,0.944c-0.073,0.197-0.255,0.672-0.054,0.72c0.142,0.03,1.84,0.448,2.231,2.631 c0.025,0.145,0.544,2.692,0.754,3.199c0.039,0.083,0.081,0.387,0.081,0.387c-0.021,0.05-0.048,0.061-0.121,0.002 c-0.021-0.027-0.042-0.061-0.069-0.119c-0.038-0.113-0.833-1.742-1.819-2.221c-0.201-0.147-0.4-0.295-0.442-0.31 c-0.042-0.015-0.201-0.117-0.188,0.084c-0.002,0.13-0.009,0.575-0.055,0.703c-0.046,0.13-0.023,0.389,0.032,0.578 c0.056,0.186,0.232,0.814,0.617,0.933c0.113,0.046,0.701,0.071,1.028,0.377h0.002c0.011,0.011,0.013,0.015,0.017,0.017 c0.1,0.088,0.709,0.502,0.82,0.82c0.03,0.071,0.111,0.247,0.038,0.247c-0.071,0-0.126-0.046-0.214-0.119 c-0.083-0.071-1.008-0.737-1.888-0.695c-0.188-0.002-1.617,0.218-2.189,1.576c-0.044,0.084-0.125,0.488-0.025,0.49 c0.105,0,0.421-0.153,0.697-0.193c0.276-0.037,2.235-0.018,2.365-0.014c0.13,0.002,0.256,0.048,0.477-0.178 c0.132-0.113,0.54-0.467,0.67-0.494c0.105-0.025,0.335-0.094,0.216,0.163c-0.034,0.13-0.253,0.498-0.806,0.764 c-0.086,0.04-1.233,0.454-1.57,1.411c-0.042,0.088-0.339,0.542-0.22,1.107c0.03,0.103,0.095,0.521,0.385,0.165 c0.093-0.115,0.237-0.37,0.601-0.435c0.13-0.025,0.578-0.09,1.074-0.385c0.496-0.293,1.919-1.061,2.225-1.172 c0.305-0.109,0.756-0.289,0.827-0.289c0.071,0.004,0.201,0.021,0.083,0.117c-0.092,0.078-1.258,0.685-1.898,3.129 c-0.161,0.614-0.287,1.338-0.354,2.194c-0.146,0.025-7.82,2.273-8.203,2.355c-0.381,0.077-0.95,0.36-1.915,0.291 c-0.963-0.067-2.679-0.185-3.129-0.159c-0.285,0.02-0.793,0.123-1.195,0.322h-0.002h0.002c-0.224,0.113-0.419,0.251-0.519,0.425 c-0.096,0.138-0.377,0.431-0.381,0.703L22.301,72.875l35.323,35.242L22.301,143.36l85.816-35.242l-5.092,12.4 c-0.002-0.008-0.002-0.018-0.004-0.021c-0.484-0.119-0.854-0.096-1.015-0.092c-0.586,0.047-1.093,0.627-1.141,0.75 c-0.073,0.184-0.128,0.055-0.163-0.033c-0.036-0.088,0.012-0.264,0.046-0.516c0.029-0.252,0.217-0.666,0.23-0.895 c-0.006-0.461-0.471-0.541-0.827-0.57c-0.465-0.045-1.061,0.338-1.396,0.592c-0.333,0.258-0.917,0.426-1.396,0.561 c-0.477,0.129-3.41,0.568-4.088,0.668c-0.674,0.1-2.363,0.041-2.643,0.027c-0.275-0.012-0.327,0.043-0.427,0.197 c-0.105,0.16-0.54,1.09-0.637,1.422c-0.282,0.908-1.063,1.758-1.356,1.971c-0.291,0.213-2.945,1.721-3.098,1.824 c-0.155,0.111-0.048,0.193-0.012,0.246c0.035,0.053,0.142,0.256,0.251,0.449c0.517,0.771,0.479,1.5,0.502,1.814 c0.023,0.314-0.123,0.004-0.195-0.119c-0.106-0.203-0.535-0.756-0.678-0.996c-0.573-1.014-1.31-1.385-1.469-1.449 c-0.26-0.084-0.124-0.123-0.036-0.158c0.241-0.092,0.549-0.441,0.668-0.604c0.117-0.156,0.595-0.705,1.103-1.408 c0.513-0.703,1.264-0.318,1.388-0.199c0.337,0.326,0.542,0.217,0.682,0.18c0.415-0.094,0.385-0.785,0.348-0.961 c-0.174-1.076-1.428-1.121-1.62-1.139c-0.886-0.018-1.909,1.092-2.079,1.359c-0.169,0.264-0.19,0.02-0.207-0.049 c-0.021-0.07-0.006-0.207,0.006-0.502c0.013-0.297,1.128-1.08,1.541-1.365c1.722-0.934,1.722-1.943,1.747-2.412 c0.026-0.471-0.376-0.672-0.514-0.721c-0.176-0.064-0.172,0.158-0.187,0.33c-0.048,0.279-0.372,0.549-0.575,0.76 c-0.205,0.209-1.867,0.834-2.001,0.904c-1.16,0.471-0.894,1.666-0.854,1.943c0.037,0.277-0.312,0.178-0.379,0.197 c-0.329,0.021-0.718-0.246-0.877-0.348c-0.561-0.371-1.011-0.227-1.199-0.172c-1.526,0.305-3.433,1.678-4.203,2.211 c-0.773,0.533-5.135,4.592-5.221,4.715c-0.429,0.514-1.096,1.086-1.756,1.605h-0.006c-1.036,0.803-2.072,1.463-2.198,1.539 c-0.962,0.559-2.135,0.195-2.396,0.111c-0.666-0.246-0.607-0.855-0.574-1.031c0.044-0.506,1.001-0.436,1.47-0.426 c0.18-0.002,0.443-0.082,0.728-0.189l0.002-0.008c0.628-0.252,1.373-0.664,1.599-0.764c0.793-0.346,1.248-0.195,1.459-0.096 c0.471,0.166,0.327-0.094,0.291-0.197c-0.165-0.535-0.81-0.662-1.105-0.676c-0.49-0.041-1.3,0.25-1.612,0.355 c-0.312,0.117-0.194-0.203-0.128-0.291c0.086-0.211,0.825-0.637,1.068-0.748c0.636-0.324,2.049,0.068,2.21,0.135 c0.155,0.07,0.226,0.084,0.207-0.002c-0.01-0.541-0.445-0.635-0.655-0.771c-1.038-0.52-1.952-0.229-2.264-0.148 c-0.624,0.148-1.459,0.994-1.564,1.102c-0.1,0.105-0.119,0.004-0.052-0.119c0.065-0.125,0.201-0.402,0.335-0.668 c0.521-0.98,0.326-1.258,0.217-1.48c-0.106-0.225-0.224,0.039-0.257,0.145c-0.115,0.381-0.511,0.598-0.716,0.758 c-0.207,0.162-1.67,0.896-1.842,1.004c-0.996,0.699-0.676,1.354-0.582,1.715c0.065,0.25-0.042,0.551-0.123,0.752h-0.004 c-0.036,0.09-0.072,0.158-0.08,0.191c-0.555,1.09-0.193,2.002-0.029,2.311c0.544,1.332,2.403,1.174,2.802,1.186 c2.313-0.004,5.283-3.078,5.589-3.398c0.308-0.32,0.314-0.023,0.314-0.023s-0.086,0.277-0.151,0.473 c-0.065,0.191-1.021,1.201-1.191,1.391c-0.169,0.195-0.176,0.926-0.205,1.1c-0.033,0.176,0.155,0.105,0.26,0.102 c1.057-0.244,0.965-0.398,1.389-0.963c0.312-0.41,0.57-1.604,0.716-2.357h0.002c0.057-0.275,0.099-0.49,0.118-0.578 c0.347-1.154,0.95-1.408,1.174-1.564c0.293-0.217,0.243,0.064,0.211,0.15c-0.033,0.088-0.222,0.215-0.425,0.461 c-0.205,0.246-0.178,0.871-0.169,1.443v0.078c-0.017,0.535-0.295,0.939-0.381,1.025c-0.186,0.193,0.111,0.207,0.23,0.188 c0.519-0.063,0.76-0.43,1.032-0.682c0.172-0.15,0.314-0.332,0.435-0.525l0.002-0.002c0.624-0.994,0.639-2.346,0.689-2.654 c0.063-0.365,0.833-1.076,1.21-1.43c0.649-0.617,2.336-1.604,3.246-2.09c0.915-0.482,1.497-0.115,1.671,0.023 c0.37,0.273,0.24,0.779,0.14,1.094c-0.097,0.313-0.58,0.566-0.737,0.637c-0.929,0.348-2.068,0.838-2.225,0.891 c-0.155,0.055-0.41,0.391-0.511,0.479c-1.034,0.588-1.969,1.98-2.536,3.008c0,0-0.27,0.51-0.356,0.693 c-0.455,0.963-1.595,5.277-1.641,5.555c-1.288-0.047-2.179,0.648-2.451,0.912c-0.159,0.154-0.67,0.535-1.154,0.875h-0.002 c-0.356,0.25-0.692,0.477-0.856,0.568c-0.377,0.217-1.021,0.227-1.176,0.213c-0.419,0.006-0.124-0.207-0.008-0.348 c0.188-0.213,1.073-0.367,1.262-0.424c0.01-0.002,0.021-0.004,0.037-0.016h0.015c0.712-0.217,0.743-0.469,0.911-0.66 c0.169-0.195,1.038-1.182,1.226-1.328c0.364-0.266,0.17-0.313,0.065-0.348c-0.331-0.096-0.852-0.055-1.216,0.004 c-0.833,0.137-2.043,1.463-2.3,1.729c-0.16,0.164-0.532,0.4-0.844,0.574h-0.027c-0.203,0.131-0.346,0.201-0.419,0.23 c-0.213,0.09-0.146-0.09-0.067-0.195h0.002c0.013-0.023,0.03-0.037,0.046-0.051c0.084-0.068,0.356-0.334,0.612-0.615 c0.841-0.783,0.575-1.053,0.5-1.346c-0.076-0.295-0.532-0.496-0.703-0.563c-0.195-0.051-0.137,0.176-0.134,0.367 c0.058,0.326-0.283,0.836-0.383,0.994c-0.128,0.27-0.993,0.939-1.394,1.213h-0.003c-0.073,0.049-0.127,0.084-0.163,0.104 c-0.238,0.123-0.896,0.57-1.013,0.695c-0.119,0.123-0.159,0.002-0.159-0.086c-0.002-0.139,0.151-0.334,0.322-0.488 c0.076-0.07,0.212-0.15,0.354-0.225v-0.006c0.189-0.1,0.389-0.201,0.507-0.291c0.634-0.566,0.207-1.102,0.1-1.201 c-0.195-0.191-0.446-0.551-0.513-0.633c-0.194-0.207-0.263-0.104-0.316,0.006c-0.083,0.189-0.314,0.926-0.345,1.063 c-0.029,0.143-0.153,0.246-0.237,0.318c-0.161,0.168-0.305,0.465-0.416,0.738h-0.002c-0.094,0.24-0.164,0.451-0.187,0.525 c-0.278,0.943-0.604,1.154-0.743,1.297c-0.134,0.145-0.085-0.049-0.09-0.188c0.078-0.541-0.023-1.32-0.06-1.531 c-0.007-0.037-0.017-0.07-0.027-0.098v-0.01c-0.233-0.826-0.869-1.023-1.018-1.055c-0.176-0.033-0.171,0.209-0.169,0.316 c0.004,0.088,0.094,0.48,0.136,0.748c0.01,0.053,0.017,0.098,0.019,0.137c0.021,0.242-0.18,0.682-0.379,1.152 c-0.201,0.473,0.004,1.25,0.04,1.318c0.035,0.072,0.247,0.223,0.389,0.377c0.142,0.156,0.366,0.098,0.471,0.063 c0.102-0.037,0.981-0.4,1.329-0.51c2.539-0.93,4.228-0.615,4.544-0.547c2.426,0.613,2.487,2.125,2.543,2.369 c0.172,0.795-0.257,1.1-0.341,1.238c-0.17,0.301,0.04,0.367,0.146,0.414c0.155,0.053,0.45-0.006,0.674-0.096 c0.484-0.182,0.921-1.096,1.018-1.391c0.102-0.299,0.205-0.195,0.224-0.111c0.134,0.627,0.54,0.881,0.805,1.203 c0.266,0.328,0.62,0.617,0.779,0.822c0.157,0.207,0.195,0.084,0.243-0.021c0.052-0.102,0.082-0.297,0.075-0.627 c-0.046-0.748-0.9-1.723-1.094-1.91c-0.195-0.188-0.072-0.189-0.072-0.189s0.229,0.031,0.352,0.113 c0.155,0.084,0.747,0.266,1.222,0.328c0.764,0.074,0.85-0.121,1.141-0.229c0.379-0.145,0.134-0.244,0.134-0.244 s-0.228-0.158-0.423-0.273c-0.19-0.117-1.103-0.484-1.66-0.563c-0.558-0.076-1.092,0.145-1.245,0.252 c-0.157,0.102-0.4,0.197-0.571,0.215c-0.172,0.021-0.176-0.066-0.176-0.066s0.153-0.229,0.222-0.301 c0.067-0.07,0.567-0.441,0.893-0.568c0.534-0.289,1.112-0.176,1.214-0.18c0.105,0,1.244,0.535,1.788,0.748 c0.54,0.223,0.94,0.18,1.235,0.123c0.364-0.059,0.295,0.029,0.245,0.078c-0.053,0.057-0.222,0.232-0.306,0.354 c-0.088,0.125-0.908,0.82-1.044,0.926c-0.446,0.51-1.21,0.402-1.315,0.404c-0.106,0-0.048,0.209-0.029,0.469 c0.023,0.26,0.036,1.023-0.006,1.461c-0.038,0.764-0.798,1.092-0.955,1.232c-0.008,0.008-0.019,0.018-0.025,0.043h-0.031 c-0.076,0.035-0.151,0.021-0.21-0.004l0.002-0.01c-0.052-0.025-0.094-0.064-0.117-0.094c-0.052-0.066,0.017-0.172,0.065-0.277 c0.22-0.35,0.023-0.592-0.048-0.781c-0.236-0.654-0.8-0.961-0.977-1.078c-0.174-0.119-0.26,0.074-0.275,0.129 c-0.016,0.051-0.134,0.193-0.274,0.297c-0.272,0.336-0.931,0.383-1.138,0.422c-0.9,0.156-1.382-0.357-1.537-0.461 c-0.264-0.133-0.075-0.275-0.075-0.275s0.188-0.162,0.393-0.32c1.08-0.818,0.319-1.711,0.195-1.883 c-0.791-1.445-3.585-1.221-4.054-1.18c-1.321,0.094-3.299,1.291-3.399,1.381c-0.105,0.09-0.191-0.033-0.247-0.1 c-0.105-0.086-0.507-0.254-0.681-0.318c-0.598-0.25-1.706-0.111-1.779-0.111c-0.067,0.004-0.171,0.023-0.343,0.096 c-0.172,0.074-0.061,0.436-0.025,0.521c0.035,0.086,0.58,0.408,0.808,0.576c0.23,0.174,0.544,0.182,0.785,0.18 c0.245-0.006,0.213,0.17,0.213,0.256c0.002,0.088-0.1,0.109-0.188,0.109c-0.088,0.002-0.555,0.096-0.762,0.133 c-0.207,0.039-0.955,0.158-1.193,0.334c0,0,0.159,0.154,0.301,0.326c0.143,0.172,1.342,0.309,1.601,0.336 c0.264,0.029,0.195,0.154,0.199,0.205c-0.016,0.086-0.276,0.127-0.435,0.15c-0.155,0.016-1.386,0.352-1.624,0.406 c-0.243,0.057-1.214,0.301-1.457,0.322c-0.467,0.061-0.113,0.297-0.029,0.346c0.09,0.053,0.487,0.115,0.962,0.141 c0.478,0.027,2.204-0.105,2.435-0.129c0.232-0.029,0.309-0.063,0.416-0.014c0.034,0.084,0.099,0.221,0.18,0.365 c0.061,0.098,0.126,0.197,0.197,0.275c0.172,0.195,1.128,1.813,1.128,1.813c0.484,0.844,0.467,1.576,0.475,1.881 c0.009,0.496,0.187,0.514,0.419,0.633c0.232,0.117,0.697,0.041,0.906-0.123c0.316-0.201,0.101-1.264,0.13-1.746 c0.027-0.482,0.299-0.201,0.335-0.166c0.09,0.088,0.992,0.855,1.193,1.063c0.199,0.211,0.305,0.176,0.358,0.154 c0.107-0.055,0.247-0.215,0.261-0.43c0.042-0.516-0.408-0.9-0.609-1.111c-0.196-0.209-0.222-0.459-0.224-0.602 c-0.004-0.25-0.169-0.549-0.224-0.688c-0.075-0.188-0.094-0.559-0.09-0.949c0.003-0.385,0.032-0.787,0.055-1.027 c0.308-1.766-0.182-2.203-0.26-2.574c0,0,0.201,0.193,0.312,0.369c0.793,0.82,0.879,2.494,0.898,2.688 c0.023,0.195,0.147,0.193,0.308,0.244c0.224,0.057,0.437,0.162,0.636,0.297h0.006c0.595,0.389,1.045,0.982,1.181,1.166 c0.182,0.244,1.76,1.979,1.976,2.17c0.217,0.191,0.201,0.229,0.13,0.268c-0.656,1.041-2.975,2.844-3.588,3.281 c-0.618,0.438-0.624,1.203-0.613,1.684c-0.007,0.602,0.856,1.193,1.073,1.439c0.438,0.51,4.781,2.641,5.319,2.984 c1.35,0.727,2.154,1.975,2.3,2.221c0.145,0.248,0.662,0.289,0.896,0.342c0.232,0.049,0.302-0.023,0.337-0.113 c0.048-0.123,0.073-0.73,0.071-1.016c-0.008-0.373,0.191-0.145,0.21-0.109c0.127,0.102,0.186,0.385,0.24,0.58 c0.059,0.197,0.364,0.422,0.436,0.477c0.073,0.047,0.862,0.391,1.147,0.494c0.431,0.135,0.481-0.063,0.512-0.17 c0.07-0.178-0.1-0.783-0.194-1.08c-0.094-0.301-0.438-1.596-0.551-1.896c-0.111-0.299-0.307-0.352-0.483-0.346 c-0.178,0-0.71,0.082-0.944,0.119c-0.23,0.045-0.199,0.896-0.195,1.109c0.004,0.213-0.14,0.057-0.211-0.031 c-0.073-0.123-0.153-0.408-0.186-0.531c-0.063-0.445-0.377-1.061-0.505-1.236c-0.326-0.512-0.998-0.197-1.053-0.143 c-0.05,0.057-0.157,0.059-0.211,0.023c-0.092-0.088-0.379-0.314-0.632-0.451c-0.626-0.293-2.236-1.6-2.686-2.057 c-0.454-0.453-0.684-0.504-0.935-0.551c-0.249-0.051-1.692-0.094-2.261-0.104c-0.569-0.008-0.113-0.246,0.029-0.355 c0.245-0.236,0.685-0.42,0.972-0.463c0.492-0.133,2.629-0.133,2.894-0.156c0.266-0.021,0.656-0.207,0.921-0.266 c2.006-0.336,2.372-0.807,3.148-1.211c0.775-0.402,0.293-0.432,0.293-0.432s-0.408-0.047-0.661-0.096 c-1.959-0.18-2.966-0.877-3.236-1.012c-0.573-0.273-0.13-0.338-0.042-0.354c0.143-0.037,0.498,0.043,0.714,0.094 c0.59,0.184,1.712,0.238,2.196,0.283c2.419,0.133,3.453-0.664,3.56-0.723c0.213-0.057,0.477-0.148,0.938-0.283 c0.655-0.188,0.697,0.186,0.791,0.361c0.09,0.176,0.674,0.984,1.239,1.793c0.839,1.197,1.919,3.027,2.556,4.705 c0.636,1.676,0.471,2.43,0.473,2.625c0.004,0.197,0.058,0.301,0.169,0.424c0.253,0.297,0.406-0.094,0.477-0.221 c0.067-0.125,0.132-0.539,0.18-0.662c0.174-0.395,0.323-0.113,0.323-0.113s0.035,0.16,0.039,0.373 c0.003,0.213-0.079,0.482-0.096,0.625c-0.048,0.375,0.641,1.021,0.752,1.199c0.06,0.102,0.115,0.18,0.163,0.24l-13.352,32.514 l35.241-35.324l35.244,35.324l-11.004-26.795c0.268-0.01,0.553-0.283,0.693-0.381c0.477-0.283,0.716-1.268,0.743-1.713 c0.025-0.453-0.092-2.168-0.157-3.131c-0.067-0.963,0.216-1.535,0.293-1.916c0.078-0.381,2.328-8.055,2.355-8.201 c1.277-0.102,2.252-0.332,3.002-0.602h0.002c1.773-0.66,2.248-1.566,2.317-1.652c0.098-0.117,0.117,0.014,0.117,0.086 c0.002,0.072-0.178,0.521-0.289,0.828c-0.042,0.117-0.182,0.4-0.358,0.732h0.002c-0.276,0.535-0.636,1.186-0.816,1.492 c-0.293,0.496-0.358,0.943-0.383,1.072c-0.065,0.359-0.325,0.51-0.44,0.6c-0.351,0.293,0.065,0.357,0.166,0.385 c0.565,0.121,1.023-0.176,1.107-0.223c0.961-0.33,1.371-1.479,1.415-1.566c0.262-0.551,0.634-0.773,0.762-0.805 c0.259-0.119,0.19,0.111,0.161,0.213c-0.023,0.131-0.375,0.539-0.49,0.672c-0.226,0.221-0.182,0.35-0.178,0.479 c0,0.129,0.019,2.09-0.019,2.363c-0.035,0.275-0.192,0.594-0.188,0.699c0.002,0.1,0.402,0.018,0.49-0.027 c1.358-0.572,1.578-2.002,1.576-2.189c0.042-0.879-0.624-1.803-0.695-1.887c-0.073-0.088-0.119-0.143-0.119-0.215 c-0.004-0.076,0.171,0.01,0.247,0.039c0.318,0.107,0.732,0.721,0.82,0.82c0.32,0.324,0.346,0.93,0.392,1.045 c0.123,0.391,0.747,0.563,0.933,0.619c0.188,0.051,0.45,0.078,0.578,0.031c0.127-0.043,0.575-0.051,0.705-0.053 c0.201,0.01,0.096-0.148,0.084-0.189c-0.017-0.047-0.163-0.242-0.312-0.443c-0.477-0.984-2.106-1.779-2.221-1.82 c-0.247-0.111-0.163-0.168-0.121-0.215c0.056-0.07,0.305,0.068,0.389,0.111c0.511,0.207,3.056,0.723,3.203,0.752 c2.183,0.393,2.599,2.086,2.633,2.229c0.046,0.201,0.515,0.018,0.716-0.055c0.2-0.074,0.843-0.52,0.941-0.564 c0.519-0.195,0.894,0.029,1.154,0.008c0,0-0.103-0.184-0.237-0.326c-0.13-0.143-1.501-1.027-1.676-1.127 c-0.247-0.137,0.012-0.186,0.041-0.186c0.388-0.107,0.808,0.057,0.896,0.113c0.291,0.168,0.71,0.174,0.796,0.174 c0.404,0.021,0.554-0.457,0.584-0.498c0.113-0.033,0.632,0.104,0.749,0.146c0.245,0.033,0.1-0.105,0.054-0.176 c-0.27-0.543-1.871-0.789-2.03-0.814c-0.159-0.027-0.188-0.068-0.218-0.127c0.038-0.086,0.27-0.119,0.356-0.18 c0.572-0.254,1.233-0.223,1.338-0.195c0.22,0.035,0.297-0.102,0.353-0.176h-0.002c0.007-0.006,0.015-0.014,0.019-0.02 c0.111-0.158,0.295-0.264,0.369-0.309c0.372-0.15,0.722,0.004,0.908-0.074c0,0-0.163-0.182-0.251-0.295 c-0.308-0.299-0.272-0.775-0.289-0.891c-0.048-0.26-0.312-0.34-0.383-0.367s-0.705,0.041-0.833,0.059 c-0.13,0.014-0.373,0.121-0.632,0.154c-0.26,0.031-0.5,0.225-0.616,0.313c-0.115,0.09-0.636,0.59-0.822,0.734 c-1.633,1.197-3.627,0.191-4.528-0.049c-0.893-0.246-3.081-1.563-3.242-1.689c-0.339-0.252-0.607-0.033-0.703,0.031 c-1.074,0.406-2.265-0.107-2.265-0.107c-0.188-0.068,0.149-0.131,0.205-0.145c0.486-0.232,1.135-1.748,1.208-1.996 c0.036-0.119,0.078-0.238,0.122-0.352h0.004c0.385-1.008,1.032-1.887,1.092-1.936c0.628-0.697,1.348-0.553,1.641-0.59 c0.289-0.039,0.155,0.051,0.113,0.096c-0.054,0.061-0.301,0.162-0.425,0.223c-1.063,0.713-0.96,0.846-1.157,1.164 c-0.253,0.314-0.45,0.682-0.603,1.041c-0.262,0.605-0.393,1.172-0.454,1.357c-0.224,0.564-0.027,0.484,0.063,0.494 c0.529-0.01,0.795-0.24,1.071-0.436c0.314-0.221,0.66-0.859,0.932-1.416h-0.002c0.167-0.352,0.307-0.674,0.387-0.84 c0.218-0.441,0.553-0.705,0.76-0.912c0.211-0.205,0.148,0.133,0.13,0.256c-0.019,0.125-0.189,0.309-0.365,0.559 c-0.213,0.256-0.266,0.617-0.268,0.936h-0.002c0,0.248,0.028,0.473,0.03,0.594c0.004,0.279,0,0.594-0.055,0.807 c-0.09,0.383,0.006,0.305,0.107,0.289c0.301-0.025,0.479-0.16,0.879-0.486c0.214-0.17,0.471-0.709,0.674-1.199h0.002 c0.172-0.41,0.301-0.795,0.331-0.883c0.421-1.027,0.914-1.146,1.157-1.193c0,0.041-0.119,0.18-0.217,0.271 c-0.277,0.33-0.371,0.721-0.419,1.15c-0.023,0.195-0.042,0.42-0.065,0.654h0.004c-0.027,0.283-0.067,0.58-0.123,0.875 c-0.117,0.539-0.027,0.516,0.065,0.525c0.088,0.012,0.592-0.088,0.726-0.135c0.377-0.111,0.684-0.662,0.917-1.268h-0.002 c0.194-0.486,0.337-1.016,0.429-1.352c0.201-0.732,0.59-0.994,0.822-1.158c0.034,0.035,0.017,0.281,0.021,0.572 c0.009,0.496-0.211,0.76-0.276,0.928c-0.247,0.473-0.289,0.771-0.283,1.02c0.002,0.111,0.015,0.213,0.026,0.32 c0.087,0.414,0.418,0.184,0.519,0.113c0.136-0.074,0.274-0.256,0.397-0.441h0.002c0.136-0.223,0.249-0.453,0.302-0.57 c0.305-0.564,0.243-2.057,0.24-2.26c-0.004-0.201,0.053-0.18,0.109-0.17c0.057,0.01,0.105,0.244,0.13,0.334 c0.13,0.436,0.396,0.914,0.559,1.193c0.427,0.643,0.921,0.6,1.099,0.631c0.27,0.041,0.188-0.119,0.165-0.172 s-0.159-0.154-0.253-0.322c-0.159-0.254-0.109-1.893-0.165-2.465c-0.055-0.57-0.633-0.83-0.779-0.873 c-0.249-0.051-0.126-0.133-0.067-0.154c0.073-0.059,0.226-0.102,0.366-0.176h0.241c0.082-0.014,0.153-0.025,0.195-0.029 c0.929-0.039,1.475-0.352,1.565-0.4c0.513-0.234,0.438-0.535,0.438-0.635c-0.002-0.146-0.344-0.277-0.455-0.295 c-0.167-0.012-0.303-0.063-0.408-0.117c-0.224-0.084-0.875-0.039-1.13-0.002c-0.257,0.037-0.339-0.018-0.316-0.041 c0.193-0.059,0.32-0.217,0.377-0.262c0.22-0.23,0.155-0.711,0.117-1.002c-0.228-1.443-1.304-2.738-1.499-2.98 c-0.194-0.248-0.364-0.199-0.454-0.195c-0.092,0-0.488,0.289-0.678,0.35c-0.479,0.152-0.329-0.188-0.285-0.221 c0.059-0.029,0.141-0.09,0.224-0.164h0.004c0.285-0.24,0.643-0.631,0.702-0.682c0.473-0.457,0.508-0.975,0.54-1.111 c0.205-0.551-0.189-0.531-0.291-0.557c-0.538-0.035-0.881,0.104-1.252,0.238c-0.366,0.129-0.806,0.773-0.938,0.879 c-0.322,0.242-0.314,0.006-0.318-0.117c0-0.125,0.218-0.385,0.272-0.467c0.218-0.361-0.278-0.623-0.391-0.721 c-0.343-0.297-1.191-1.227-1.417-1.523c-0.276-0.344-0.425,0.143-0.5,0.309c-0.226,0.6,0.125,0.996,0.324,1.256 c0.195,0.25,0.45,0.863,0.513,1.133c0.061,0.27-0.318-0.174-0.467-0.385c-0.151-0.209-1.166-1.066-1.415-1.273 c-0.467-0.375-1.115-0.389-1.411-0.404c-0.525-0.049-0.24,0.229-0.161,0.316c0.08,0.09,0.274,0.373,0.54,0.754 c0.3,0.445,1.101,1.305,1.25,1.447c0.408,0.33-0.042,0.236-0.153,0.227c-0.291-0.027-0.733-0.266-1.061-0.383 c-0.331-0.121-0.9-0.658-1.047-0.781c-0.571-0.426-1.184-0.27-1.408-0.244c-0.415,0.02-0.197,0.203-0.151,0.307 c0.115,0.209,0.481,0.641,0.609,0.773c0.561,0.615,1.132,0.869,1.536,1.006h0.013c0.257,0.086,0.448,0.121,0.525,0.174 c-0.224,0.115-0.416,0.127-0.663,0.121c-0.469-0.031-0.865-0.154-1.204-0.342c0,0-0.77-0.422-0.914-0.504 c-0.993-0.588-1.61-0.402-2.173-0.289c-0.567,0.111-0.394,0.211-0.322,0.314c0.046,0.068,0.27,0.318,0.483,0.525 c0,0,0.216,0.205,0.287,0.252c0.887,0.568,2.648,0.814,2.991,0.84c0.515,0.012,0.159,0.152,0.054,0.211 c-0.307,0.158-0.751,0.215-1.059,0.258c-0.536,0.061-2.455-0.682-2.731-0.727c-0.745-0.193-1.394,0.043-1.687,0.131 c-0.496,0.133-0.218,0.244-0.149,0.277c0.071,0.037,0.645,0.439,0.785,0.539c1.044,0.703,2.549,1.125,2.788,1.191 c0.553,0.072,0.176,0.131,0.004,0.172c-0.377,0.09-1.427,0.006-1.754-0.006c-1.551-0.129-1.959,0.033-2.512,0.164 c-0.546,0.129-0.253,0.227-0.184,0.277c0.088,0.07,0.714,0.402,0.992,0.553c0.279,0.148,0.124,0.168,0.055,0.203 c-0.739,0.117-1.568-0.143-1.88-0.291c-0.502-0.197-0.998-1-1.103-1.137c-0.211-0.271-0.006-0.291,0.029-0.258 c1.47,0.406,2.768-0.133,2.989-0.203c0.222-0.076,0.086-0.176,0.015-0.26c-0.247-0.254-1.304-0.719-1.633-0.814 c-0.586-0.094-0.244-0.236-0.161-0.311c0.321-0.33,1.281-0.625,1.434-0.676c0.32-0.156,0.239-0.275,0.103-0.387h0.002 c-0.055-0.047-0.117-0.088-0.166-0.131c-0.175-0.152-0.68-0.656-1.086-1.115c-1.262-1.371-3.366-5.768-3.512-6.102 c-0.105-0.221-0.207-0.443-0.318-0.654c-1.227-2.367-2.893-3.959-3.607-4.641c-0.782-0.744-3.162-1.518-3.547-1.564 c-0.517-0.061-0.381-0.295-0.293-0.496c0.087-0.203,0.996-0.301,1.065-0.324c0.626-0.109,2.139,0.639,2.736,0.914 c1.739,0.785,3.773,3.322,4.236,3.857c0.314,0.367,0.483,1.473,0.573,2.359c0,0,0.07,0.57,0.082,0.674 c0.214,1.268,1.078,1.637,1.352,1.793c0.277,0.156,0.12-0.094,0.078-0.262c-0.044-0.172-0.007-1.434-0.013-1.816 c-0.002-0.168-0.048-0.344-0.102-0.494c0,0-0.164-0.377-0.195-0.432c-0.094-0.225,0.088-0.15,0.14-0.131 c0.105,0.035,0.232,0.316,0.333,0.563c0.059,0.146,0.107,0.281,0.136,0.348c0.385,0.807,0.467,1.998,0.502,2.229 c0.218,1.561,0.526,1.826,0.833,2.244c0.312,0.418,0.576,0.488,0.729,0.561c0.15,0.082,0.132,0.059,0.18-0.002 c0.077-0.141,0.023-1.131,0.017-1.303c-0.011-1.258-1.093-2.609-1.185-2.75c-0.178-0.26,0.069-0.113,0.109-0.084 c0.265,0.15,0.678,0.646,0.78,0.805c0.448,0.879,1.409,2.043,1.551,2.223c1.129,1.047,2.104,0.959,2.539,0.943 c1.206-0.053,1.763-0.625,1.92-0.74c0.937-0.732,0.849-1.637,0.849-2.225c0-0.584-0.32-0.982-0.42-1.141 c-0.241-0.379-0.214-0.654-0.207-0.732c0.006-0.041-0.005-0.207-0.019-0.375h-0.002c-0.013-0.166-0.032-0.338-0.042-0.41 c-0.097-0.838-0.645-1.016-0.85-1.176c-0.49-0.342-1.608-1.473-1.926-1.852c-0.318-0.379-0.343-0.762-0.337-0.854 c0.017-0.25-0.173-0.084-0.211-0.025c-0.17,0.195-0.155,0.477-0.153,0.668c-0.125,0.801,0.85,1.861,0.944,2.004 c0.094,0.137-0.291-0.047-0.385-0.105c-0.316-0.184-1.168-1.09-1.762-1.645c-0.597-0.557-1.116-0.334-1.518-0.295 c-0.402,0.035-0.952,0.379-1.174,0.453c-0.758,0.307-0.113,0.396,0,0.422c0.111,0.029,0.416,0.217,0.609,0.344 c0.714,0.533,1.834,1.057,2.11,1.154c0.577,0.24,1.111,0.201,1.174,0.211c0.473,0.063,0.726,0.59,0.774,0.672 c0.166,0.297-0.064,0.205-0.165,0.195c-0.163-0.018-0.509-0.184-0.672-0.26c-0.699-0.291-1.352-0.068-1.534-0.018 c-0.699,0.184-0.094,0.338-0.002,0.354c0.226,0.029,0.389,0.092,0.515,0.162h0.008c0.172,0.096,0.266,0.207,0.333,0.26 c0.597,0.623,1.4,1.227,1.463,1.273c0.611,0.453,1.116,0.355,1.176,0.361c0.536,0.086,0.306,0.783,0.285,0.865 c-0.109,0.518-0.917,0.578-1.13,0.578c-1.398,0.072-3.299-2.35-3.485-2.529c-0.157-0.18-0.404-0.461-0.704-0.809 c-1.345-1.557-3.771-4.4-4.096-4.752c-2.243-2.506-3.782-3.111-3.92-3.178c-1.126-0.713-2.773-0.637-3.257-0.611 c-0.481,0.035-1.306,0.793-1.44,0.922c-0.387,0.342-0.211-0.271-0.178-0.408c0.117-0.441,0.645-0.988,0.758-1.094 c0.247-0.313,1.036-0.611,1.113-0.65c0.298-0.129-0.012-0.24-0.129-0.295c-0.337-0.152-0.934-0.18-1.162-0.176 c-0.597,0.047-0.743,0.324-0.854,0.465c-0.504,0.568-0.379,1.258-0.375,1.566c0.007,0.307-0.111,0.176-0.146,0.125 c-0.036-0.043-0.243-0.232-0.36-0.338c-0.421-0.426-0.927-0.543-1.158-0.586c-0.23-0.041-0.711,0.107-0.883,0.131 c-0.385,0.064-0.213,0.152-0.178,0.197c0.059,0.068,0.335,0.18,0.417,0.223c0.427,0.178,0.797,0.914,0.962,1.234 c0.166,0.318,0.769,1.443,0.923,1.658c0.471,0.693,1.078,0.736,1.196,0.76c0.251,0.029,0.037,0.25-0.03,0.344 c-0.316,0.328-0.489,0.797-0.577,0.986c-0.314,0.496-0.247,1.676-0.243,1.885c0.006,0.449-0.218,0.025-0.253-0.041 c-0.153-0.252-0.13-0.824-0.118-1.445c0.013-0.619-0.048-0.848-0.157-1.027c-0.106-0.186-0.579-0.459-0.732-0.572 c-0.36-0.27-1.336-1.721-1.478-2.016c-0.146-0.297-0.393-0.143-0.483-0.107c-0.095,0.035-0.488,0.445-0.656,0.607 c-0.171,0.166-0.129,0.586-0.148,0.68c-0.086,0.473-0.312-0.041-0.36-0.109c-0.494-0.746-0.325-1.598-0.264-2.039 c0.063-0.432,0.743-0.834,0.802-0.873c0.232-0.186-0.111-0.26-0.237-0.258c-0.182,0.004-0.307,0.074-0.423,0.121 c-0.477,0.203-0.816,1.025-0.874,1.141c-0.143,0.254-0.183,0.105-0.218-0.02c-0.061-0.26,0.006-0.908,0.025-1.158 c0.021-0.256,0.475-1.121,0.54-1.318c0.065-0.195-0.268-0.088-0.381-0.025c-0.303,0.164-0.483,0.477-0.638,0.777 c-0.325,0.531,0.048,1.434,0.083,1.561c0.143,0.34,0.141,0.811,0.122,0.959c-0.053,0.254-0.408-0.473-0.471-0.6 c-0.207-0.766-1.055-1.92-1.193-2.066c-0.423-0.496-0.892-0.408-1.214-0.414c-0.32-0.006-0.168,0.129-0.132,0.174 c0.035,0.059,0.197,0.123,0.289,0.189c0.188,0.145,0.397,0.441,0.515,0.576c0.328,0.314,0.973,1.799,1.032,1.912 c0.152,0.281-0.088,0.193-0.229,0.195c-0.136,0.004-0.401-0.188-0.54-0.275c-0.14-0.09-0.542-0.107-0.726-0.113 c-0.425-0.018-0.795-0.217-0.959-0.316c-0.161-0.102-0.987-0.707-1.159-0.818c-0.396-0.254-0.913-0.178-1.026-0.152v0.115 l-4.404-10.725L193.934,143.36z"></path><path fill="#C8202F" d="M322.806,87.081l33.115-1.859c-3.037-20.619-20.012-27.312-50.529-26.98 c-31.686,0.358-46.101,12.283-46.385,30.685c-0.574,36.819,68.362,21.548,65.944,39.536c-1.716,12.639-35.831,10.994-37.106-2.002 l-33.117,1.432c0.287,3.43,0.287,30.256,48.96,30.111c52.519-0.154,53.794-24.123,54.223-32.961 c1.702-35.103-65.505-22.846-65.647-38.676C292.157,75.776,321.805,76.373,322.806,87.081"></path><path fill="#C8202F" d="M365.824,64.525l31.352-2.062v23.753l12.054,0.012l0.072,18.583l-12.126,0.203v17.725 c-0.238,11.281,12.59,10.246,12.59,10.246v21.76h-10.398c-4.944,0.023-32.948-4.441-33.544-32.006 C365.609,106.692,365.824,64.525,365.824,64.525"></path><path fill="#C8202F" d="M444.476,133.571l-0.014,21.203h14.855c7.063,0.156,38.69-5.205,38.69-32.043 c0-25.812,0.011-59.952,0.011-59.952l-34.079,2.155v57.783c0.429,10.293-12.52,10.818-15.569,10.867 C448.526,133.749,444.476,133.571,444.476,133.571"></path><path fill="#C8202F" d="M538.823,117.262c0,10.209,6.981,18.5,20.083,18.49c13.188-0.025,20.096-8.281,20.096-18.49 c0-10.207-6.908-18.294-20.096-18.32C545.09,98.907,538.823,107.055,538.823,117.262 M505.363,117.346 c0-20.679,17.856-37.08,53.543-37.105c36.916-0.011,53.259,16.426,53.259,37.105c0,20.668-18.796,37.439-53.259,37.416 C521.206,154.739,505.363,138.014,505.363,117.346"></path><path fill="#C8202F" d="M650.973,154.823v-37.641c0,0,0.536-14.927,17.559-14.937c16.366-0.013,14.878,14.937,14.878,14.937 s-0.226,37.664,0,37.664h32.65l-0.013-46.492c0,0,2.322-26.301-35.426-27.421c-19.07-0.323-29.696,11.03-29.696,11.03l-0.06-29.361 l-31.662,1.823l0.014,90.397H650.973z"></path><path fill="#C8202F" d="M724.965,86.384l32.46-2.524v8.123c0,0,10.459-11.079,29.16-11.054 c35.448,0.046,35.474,27.493,35.462,27.432v46.42h-32.209v-37.188c0,0-0.19-14.509-15.522-14.794 c-15.82-0.299-16.891,14.388-16.891,14.388v37.619l-32.46-0.014V86.384z"></path></svg>